<mxfile host="65bd71144e" pages="2">
    <diagram name="Deployment" id="vXDBUK7H-4tK57Y_UbAI">
        <mxGraphModel dx="2222" dy="998" grid="1" gridSize="10" guides="1" tooltips="1" connect="1" arrows="1" fold="1" page="1" pageScale="1" pageWidth="827" pageHeight="1169" math="0" shadow="0">
            <root>
                <mxCell id="0"/>
                <mxCell id="1" parent="0"/>
                <mxCell id="CdDIdLdeYycKOqK319mR-1" value="IaC CI/CD Pipelines" style="fillColor=#CECFD1;strokeColor=none;dashed=0;verticalAlign=top;fontStyle=0;fontColor=default;opacity=60;fontSize=14;labelBackgroundColor=none;" parent="1" vertex="1">
                    <mxGeometry x="160" y="400" width="560" height="660" as="geometry"/>
                </mxCell>
                <mxCell id="CdDIdLdeYycKOqK319mR-2" value="Pipeline Repositories" style="fillColor=#CECFD1;strokeColor=none;dashed=0;verticalAlign=top;fontStyle=0;fontColor=#232F3D;opacity=60;fontSize=14;" parent="1" vertex="1">
                    <mxGeometry x="160" y="460" width="440" height="600" as="geometry"/>
                </mxCell>
                <mxCell id="FvHIyR7vi8E8eyAL5Enl-1" value="Terraform Modules" style="fillColor=#DFE0E3;strokeColor=none;dashed=0;verticalAlign=top;fontStyle=0;fontColor=#232F3D;fontSize=14;" parent="1" vertex="1">
                    <mxGeometry x="160" y="520" width="240" height="540" as="geometry"/>
                </mxCell>
                <mxCell id="FvHIyR7vi8E8eyAL5Enl-3" value="&lt;span&gt;AWS Account&lt;/span&gt;&lt;span&gt;&lt;br&gt;&lt;/span&gt;" style="points=[[0,0],[0.25,0],[0.5,0],[0.75,0],[1,0],[1,0.25],[1,0.5],[1,0.75],[1,1],[0.75,1],[0.5,1],[0.25,1],[0,1],[0,0.75],[0,0.5],[0,0.25]];outlineConnect=0;html=1;whiteSpace=wrap;fontSize=12;fontStyle=0;shape=mxgraph.aws4.group;grIcon=mxgraph.aws4.group_aws_cloud_alt;verticalAlign=top;align=left;spacingLeft=30;dashed=0;fillColor=#dae8fc;strokeColor=#6c8ebf;opacity=80;" parent="1" vertex="1">
                    <mxGeometry x="760" y="400" width="480" height="660" as="geometry"/>
                </mxCell>
                <mxCell id="FvHIyR7vi8E8eyAL5Enl-11" value="" style="edgeStyle=orthogonalEdgeStyle;rounded=0;orthogonalLoop=1;jettySize=auto;html=1;entryX=1;entryY=0.5;entryDx=0;entryDy=0;entryPerimeter=0;labelBackgroundColor=none;strokeColor=#9933FF;align=left;exitX=0;exitY=0.5;exitDx=0;exitDy=0;exitPerimeter=0;" parent="1" source="FvHIyR7vi8E8eyAL5Enl-13" target="FvHIyR7vi8E8eyAL5Enl-19" edge="1">
                    <mxGeometry x="0.7895" y="-10" relative="1" as="geometry">
                        <mxPoint x="461" y="780" as="sourcePoint"/>
                        <mxPoint x="340" y="915" as="targetPoint"/>
                        <mxPoint as="offset"/>
                        <Array as="points">
                            <mxPoint x="410" y="810"/>
                            <mxPoint x="410" y="860"/>
                        </Array>
                    </mxGeometry>
                </mxCell>
                <UserObject label="pipeline" id="FvHIyR7vi8E8eyAL5Enl-12">
                    <mxCell style="shape=image;verticalLabelPosition=bottom;labelBackgroundColor=none;verticalAlign=top;aspect=fixed;imageAspect=0;image=data:image/png,iVBORw0KGgoAAAANSUhEUgAAAucAAAG3CAYAAAAXYfuiAAAEtGlUWHRYTUw6Y29tLmFkb2JlLnhtcAAAAAAAPD94cGFja2V0IGJlZ2luPSLvu78iIGlkPSJXNU0wTXBDZWhpSHpyZVN6TlRjemtjOWQiPz4KPHg6eG1wbWV0YSB4bWxuczp4PSJhZG9iZTpuczptZXRhLyIgeDp4bXB0az0iWE1QIENvcmUgNS41LjAiPgogPHJkZjpSREYgeG1sbnM6cmRmPSJodHRwOi8vd3d3LnczLm9yZy8xOTk5LzAyLzIyLXJkZi1zeW50YXgtbnMjIj4KICA8cmRmOkRlc2NyaXB0aW9uIHJkZjphYm91dD0iIgogICAgeG1sbnM6dGlmZj0iaHR0cDovL25zLmFkb2JlLmNvbS90aWZmLzEuMC8iCiAgICB4bWxuczpleGlmPSJodHRwOi8vbnMuYWRvYmUuY29tL2V4aWYvMS4wLyIKICAgIHhtbG5zOnBob3Rvc2hvcD0iaHR0cDovL25zLmFkb2JlLmNvbS9waG90b3Nob3AvMS4wLyIKICAgIHhtbG5zOnhtcD0iaHR0cDovL25zLmFkb2JlLmNvbS94YXAvMS4wLyIKICAgIHhtbG5zOnhtcE1NPSJodHRwOi8vbnMuYWRvYmUuY29tL3hhcC8xLjAvbW0vIgogICAgeG1sbnM6c3RFdnQ9Imh0dHA6Ly9ucy5hZG9iZS5jb20veGFwLzEuMC9zVHlwZS9SZXNvdXJjZUV2ZW50IyIKICAgdGlmZjpJbWFnZUxlbmd0aD0iNDM5IgogICB0aWZmOkltYWdlV2lkdGg9Ijc0MyIKICAgdGlmZjpSZXNvbHV0aW9uVW5pdD0iMiIKICAgdGlmZjpYUmVzb2x1dGlvbj0iNzIvMSIKICAgdGlmZjpZUmVzb2x1dGlvbj0iNzIvMSIKICAgZXhpZjpQaXhlbFhEaW1lbnNpb249Ijc0MyIKICAgZXhpZjpQaXhlbFlEaW1lbnNpb249IjQzOSIKICAgZXhpZjpDb2xvclNwYWNlPSIxIgogICBwaG90b3Nob3A6Q29sb3JNb2RlPSIzIgogICBwaG90b3Nob3A6SUNDUHJvZmlsZT0ic1JHQiBJRUM2MTk2Ni0yLjEiCiAgIHhtcDpNb2RpZnlEYXRlPSIyMDIxLTEyLTE0VDIxOjI2OjU5KzAxOjAwIgogICB4bXA6TWV0YWRhdGFEYXRlPSIyMDIxLTEyLTE0VDIxOjI2OjU5KzAxOjAwIj4KICAgPHhtcE1NOkhpc3Rvcnk+CiAgICA8cmRmOlNlcT4KICAgICA8cmRmOmxpCiAgICAgIHN0RXZ0OmFjdGlvbj0icHJvZHVjZWQiCiAgICAgIHN0RXZ0OnNvZnR3YXJlQWdlbnQ9IkFmZmluaXR5IFBob3RvIDEuMTAuNCIKICAgICAgc3RFdnQ6d2hlbj0iMjAyMS0xMi0xNFQyMToyNjo1OSswMTowMCIvPgogICAgPC9yZGY6U2VxPgogICA8L3htcE1NOkhpc3Rvcnk+CiAgPC9yZGY6RGVzY3JpcHRpb24+CiA8L3JkZjpSREY+CjwveDp4bXBtZXRhPgo8P3hwYWNrZXQgZW5kPSJyIj8+8RxK0QAAAYFpQ0NQc1JHQiBJRUM2MTk2Ni0yLjEAACiRdZG7SwNBEIc/E0XRaARTKFgEiVZGokLQxiLBF6hFEsFXk1xeQh7HXYIEW8E2oCDa+Cr0L9BWsBYERRHETrBWtNFwziVCRMwss/Ptb3eG3VmwhFJKWq/3QDqT0wKTPufC4pKz8RkbbTjogrCiq7PBiRA17eOOOjPeuM1atc/9ay3RmK5AXZPwmKJqOeEp4Zm1nGrytrBDSYajwqfC/ZpcUPjW1CMVfjE5UeEvk7VQwA+WdmFn4hdHfrGS1NLC8nJc6VRe+bmP+RJbLDMflNgj3o1OgEl8OJlmHD9eBhmV2YubIQZkRY18Tzl/jqzkKjKrFNBYJUGSHP2i5qV6TGJc9JiMFAWz/3/7qseHhyrVbT5oeDKMt15o3IJS0TA+Dw2jdATWR7jIVPOzBzDyLnqxqrn2wb4BZ5dVLbID55vQ+aCGtXBZsopb4nF4PYHWRei4hublSs9+9jm+h9C6fNUV7O5Bn5y3r3wDLm1nzIO0lb0AAAAJcEhZcwAACxMAAAsTAQCanBgAACAASURBVHic7N15fFxV3T/wz/feSZp0oQv7Iq1YlpJmZrBCaTJNmgqi9WERDEuhCQKCuCRtAXF51LjjD6XNqI+CiiRpWVpQNkGBkiamLaA8ziQNCFYFRGTRFkqXLHPP9/dHyiNgaTPJ3Dkzdz7vl32B7cz9flIyZ745c+45ABERERERERERERERERERERERERERERERERERERERERERERERERERERERERERERERERERERERERERERERERERERERERERERERERERERERERERERERERERERERERERERERERERERERERERERERERERERERERERERERERERERERERERERERERERERERERERERERERERERERERERERERERERERERERERERERERERERERERERERERERERERERERERERERERERERERERERERERERERERERERERERERERERERERERERERERERERERERERERERERERERERERERERERERERERERERERERERERERERERERERERERERERERERERERERERERERERERERERERERERERERERFRHhPbAYiyLBQOV0xR1SkiOlHVGQM4xYAWu64pVh36d8ApVlUHkAHADIg4/SJmIJWSgVDI25FKYbPjOP/q7l6/GUDK9hdFRJQzmpqcuuLYZIzBvnBC+wI6Th2nWI0pdsQZo6LFUCkGAIgOiMoARAeMcQYgZkAcM2Ag/aGUvu5JaPO/3G2b729Y0G/5qyLKGjbnFAjHHHPCvmPGuIeLYKoxcrgIDgfkMBFMUZV9AZ0igimA7OND+ddUsRnAy4A+q4pnHUeeVfWeNQbPimz/S3d393Yf6hIRZVVt06riMZP2e7fruFON0amOyFSFTBXRqVAcBMi+ACZB4GS49A5A/6WQzVDdDMi/APxDVZ8F9DnAPKcaem7FkqoXAWiGaxNlFZtzyhvRaHRSKlV6bCgkZcbIsSJyjAimquJwEYyzne+dqKoCeBaQXgC9qkO/du58ceOmTZs4G0REOae2dpU7ds5+x8B1y6BSBtEyCMpUMV1EQrbzvRNVDAD4G0SfFcXTCn1CjfT2DZonVn+25kXb+YiGg8055aJQNFoxE8Dxqs5MERwLoAzAwZZzZZgOAkgC8pgxeFTVe6ynZ8NT4KwPEWVZXfODh0NCJ0Cd2QBOADBLRHJ20mNEFJsVeEKgTxjVXhX5fb/30h9WLz17p+1oRG/G5pysi0ZPnKbqngDIbEBPEMEsQEpt57JBFa+KaIcx0q7qPdzTs2Ej2KwTUYYturbj3SjCfEdQA5EaAIfYzmSDqqZE0A3FY8bIo8YdeGzl5q4/oqnJ2M5GhYvNOWVdOFwxE3De7zhao4o5InKA7Uw57BUAa43R33jewK96e3/Hj2WJKG3nx+/bxzFjTxFxPiTQGohMs50pV6liqwC/M9B2I2bN3zfj92ubanjjP2UNm3PyXTh8wruBovc7jsxX1fkicqDtTPlIVVUEv1fFPYC5N5nc8AfbmYgod9XH17xHNfRfAjkVgioARbYz5SNVbAXQqYI1JqVrVi6t5iea5Cs255RxZWVlxa67z3wR53RAThHBu21nCiZ9TlVXp1K4rbd3/e9spyEi+xY2dxxZJDhHFeeIyEzbeYJIgZeh+pAAd23pe/X+u68+/XXbmShY2JxTRkSj0UmeN36B4+jpAD4kIhNsZyokqviLiN6WSqVu3bjx0W7beYgoexZ+d81Ut8g9xxE5B5D32s5TSFQxANF2gd6lKe/u1qXv/7vtTJT/2JzTiJWVHX9QKFT8UUDOEEE1gJzdXquQqGoC0BtTKV3Z27ths+08RJR5tdetKh0TOvBMB7gIkBrh+7l1Cqio/t4Ad0lqcHXrFSc9bTsT5Se+mCktZWVl40OhiR8B5AIReT8A13Ym2j1VHRCRu4zxbuzu3vAAAO4+QJTnzl++9njXkYsFOBeQibbz0DtT6GNqdCUG+29tu+qUl23nofzB5pyGI1ReXnmy6+ICAGcAMtZ2IEqPKv4C4H+MwY09PV1bbOchouGb19Recvhk5xwIPi2Q99nOQ+lR1RQED0KxYsuWrXfe03TqDtuZKLexOad3VF4+5xgR5zIRLOR2h0GhOwGsHByUH/T2diVtpyGid7bwu2umhkKhyyG4WET2s52HRk+h2xT4hSquX9FYvd52HspNbM7pbWYVhcNjTheRT8rQwRQUXA+pmmuTyfUP2A5CRP9WF+84DpCroForIryXJ6BU0a3Aj/q2eCtWN9Vss52HcgebcwIAzJx5/Ltct/jjInIJgINt56Fs0iSAaxOJdbcB4EEbRJZcsHztyY7jfFaAk2xnoSxSvK7ACs/TH61cWt1jOw7Zx+a8wJWXV1S5riwF5L/AmzsLmqo+I6LfSiT6bwIeH7Sdh6hQLIqvPdVR5ysQzLKdhexSRRfEa27d3PELNDXxJv4Cxea8MDmRSOx0AFeLYLbtMJRr9FlAvjU4uOWm3t7eAdtpiIKqrrnzdBH9Mvcmp7dT6CYYfPe5V03L2qaaPtt5KLvYnBeQoZM7Jy0SwVUicrTtPJTr9Dlj8LXu7nU3AfAshyEKjEXNHQsc4JsQidrOQjlO9SVAml8z3o/uXFLzqu04lB1szgvA0UdXTigt1csBZzG4npzSpKp/BPDFZHLdL2xnIcpndcvWzoEj14hIle0slGcUr0P0hv6d/dfdevUHXrAdh/zF5jzADjtsTul++zmfBnA1IPvazkP5TRWPGeN9tqdnQ4ftLET5ZNGyjhni4NsicrrtLJTvtM+o/KhPtn17dcOCV2ynIX+wOQ+gsrKy4qKiyR8H8EVwppwyTFV/6Xl61caN6/9sOwtRLqv71kP7YnxRExSf4JaIlEm79ktf/rpnvsflLsHD5jxY3Eikok5EvgLIVNthKLhUdUAE8a1b+77xl788/prtPES5ZNal1xcdO3PGpwT4sgCTbeeh4FJgiyiuNQM7421XnbLddh7KDDbnAREOV3xUxPmmCI6ynYUKh6q+LKJXJxLrWwCo7TxEttUtaz8JjvsDEfCme8oaBV5WY775t1f1f9Y21fC8ijzH5jzPlZXFIkVFaAZQbTsLFS5VrPO8wU9u3Phot+0sRDbUXbfmULih60TkbNtZqJDpHz01S1Y01vzadhIaOTbneWr69OP2Hzdu7NcBfFxEHNt5iAB4xuj3Pe/VL/X29vIoaioItbWr3JLKAxeLgyaBjLedh2iI/mpQseTmxuo/2U5C6WNznndmFUWjJZ9Sla+IYJLtNERvp4q/iZjLE4n1v7KdhchPdfGO4wT4KQ8Rohw1qKrNnmz/+sqGBVtth6HhY3OeR2bOrDzZdREXkWNsZyHaG1Xcqmoau7vXv2w7C1Em1V63qrQ0dMBXAVkqENd2HqI9UeBlUfO5lsZ5N4H3BuUFNud54JhjTth3zJjiZSJYZDsLUTpUdbOq+XR394ZbbGchyoS65vYYxPm5QKbbzkKUprVeyvv4iqU1m2wHoT1jc57jwuE55zmO2wxgf9tZiEZKVX+hqpdzFp3yVe11q0pL3IO+6QCNEPA+H8pT2qdA03Obzfe4q0vuYnOeo8rKYocXFemPAFlgOwtRhvzTGPOJ7u71d9gOQpSORcsfni1OqFXArWopIFQTgHdJS+P8x21Hof/E5jz3OJFIxacA51si4J3/FDiqelNfHxqeemrd67azEO1Jbe0qt2TuAV8UlS/xhE8KGoV6UCzbsmXrV+5pOnWH7Tz0b2zOc8iu2fI2QKpsZyHykyr+6nneBRs3blhvOwvR7tTH17xHEWoTyBzbWYj8pMDTmvLOb1ta83vbWWgI7zLPEeHwnPNCIedXgPBUOQo8EUx2HOfCAw98l7700t+6wB0EKIfUNXcsFLj3ish7bGch8psA+4rjfCxySr2XPHHaOqxdy/HYMs6cW3bEEbMmTphQ8kMROd92FiIbVLV9YKDv/CeffPwftrNQYTu16Z6xkydP/IEIPmY7C5Ed+tvBgdSim698/7O2kxQyNucWRSKxmIiuAGSq7SxElr2i6i1KJjf8xnYQKkz11z1chpB7O8BzJKjQ6Wse8KkVDdUrbScpVGzO7XDD4dhXRfTzIsItuYgAqKoRka8nEl1fA2Bs56HCUbe8/QJx3OsBjLWdhShXKHCLh22f4Omi2cfmPMvC4YoDRORWEamxnYUoF6nqAzt39p3/9NOP/9N2Fgq2D8XvG7M/xjUL5DLbWYhykQJPSyp1ZsvS+b22sxQSNudZVF5eMcdxZLWIHGo7C1Fu02eN8c7s7n7kf20noWCqu27NoXCL7hDBbNtZiHKZqm5XmEvaGmtutZ2lULA5z5JoNPYpQJcBUmQ7C1F+0J2qelkyub7NdhIKlrrm9pjAuR0iB9rOQpQvVLX5uS3mSp4s6j825z475JBZY/ffv+R6EbnAdhaifKSK65LJrqvAdeiUAfXNHZdC5AcAOFFClCZVdBmDs1csqeLuWj5ic+6j8vLYEY6DO0VQbjsLUX7T+7dtS527adOjvDGJRqS2dpVbGjtomQg+YzsLUX7TF1VNbWtjTZftJEHF5twnM2fOqQiF3LsA7Gc7C1FAPGnMwIe7ux/7q+0glF9qr3lw4tjS4tUQOdl2FqIgUMWAEb2I2y36g9v4+SAcrjjXdd2HwcacKJNmOE7xo+XlFTxOnYZt4XfXTC0dO2YdG3OizBFBsQtZUdfc8RXbWYKIM+cZFo1WfFFVvi4i/Lsl8oEq+lTNou7u9bfbzkK5bdF17e9zXOde3vhJ5B9VtO3c8uIlq5vOHrCdJSjYQGbMrKJIpOQGEbnQdhKioBs6sAhXJBLrltvOQrlpUXPHAgFWicg421mIgk5VO3d6Oz+yeukHN9vOEgRszjMgGo1OUh33Cx4sRJRt+t1EYt1nAajtJJQ76uIdFwG4QSCu7SxEhUKBp03K+/CKpTWbbGfJd2zOR6ms7PiDQqExD3BHFiJbtDWRWHcxAO69S6iLd1wtkGts5yAqRAq8bAZTH1hxxfyk7Sz5jM35KJSVxQ4vKsJDAI60nYWokKnqPa+99vezn3nmmT7bWcieuuaOa0XkSts5iAqa6qtqdEHrknkbbEfJV2zORygSOeEooPghEbzLdhYiAlS1PZV69bTe3t5ttrNQljU1OfWTa34EkUttRyEiQFW3e/BOX9k4f43tLPmIzfkIzJw5O+y6oQeEOwAQ5Zr1W7fuXPCXvzz+mu0glB27Dhf6uQgW2c5CRG+i2g/F2S2Lq++2HSXfsDlPUzh84myR0P0imGw7CxHtjv4O2P6BRCLxqu0k5K/a2lXu2NhBKyA413YWIvpPqpoCUN/aWH2z7Sz5hIcQpaG8fE61SOghNuZEuUyOB8Y9eMQRsybaTkL+qa1d5ZbOPXAlG3Oi3CUiIYG01TV3XmI7Sz5hcz5M5eUVcxzHvVcE421nIfKDqg4ASKlqALYllPdNmFDy67KyMr5eg6ipySmNHXSTQM6xHWW0FFCFeqoYUG4JSkEkcCC4oX55R53tKPmCy1qGobw8Nst1sQYAZ+IosBKJriK8dTtCt6yszN2+fbuzzz77uP39E5zS0u1uX1+xm0oNOmPGhNxUqtgpKhpwQyHX9byQk0oNukVFIcfzUq7jOK4xruO6KdcY13EczzVGXNd1HWM813EcxxhxHce88U9X1XFExFU1b/xzN48TV1Xf9jhxRdRRfePP4A79vrchmdzwG1t/p+SPhcvaoyHHOQMQT6FGAE+hBioeHPFgjIGI58jQ7xnF//27whjZ9TgVM/QcOAbqeVDxVBwj6nkKx8D1PE05Bq54op5n4BhRxzPwjKjjITTomQHXSJHjFUnK9HuOB+N4xZIyO1OOVyIDRgZdb2up641zdxqn3/X63NcMtsJDL7zVq882eFNDXtfc8YSIzLD4V0vkG4V6avS8tsXzVtvOkuvYnO9FOFwx03FkLSD72s5C5KdEYmcx8Pig7RxEhYrNORWAQQNzVlvDvHtsB8llXNayB5HICUeJyENszKkQlJX18Yd1IotEOGFGgVfkqKy+YPnak20HyWVszt9BOHzCu4HiNdwukQpFf38/GwMii1SFr0EKPpExruPcWb+8o8p2lFzF5nw3ZsyYdbBI8RoRHGY7C1G2pFIpNgZENnHmnArHWIjcW9/88CzbQXIRm/O3CYfD44qLS+8VwbttZyHKplTqYDYGRBaJKl+DVDgEEyDuvQu/u2aq7Si5hs35W7ki+9wmgvfaDkKUbcYMsDEgskg5c04FRw4KFYXuP2NZ+yTbSXIJm/M3iUZj3xfBh23nILJhv/0G2RgQ2cQ151SARGTGRNf9ZW3TqmLbWXIFm/NdotHKqwBcbjsHkS2e57ExILJIuL0xFa55pZMP+pntELmCzTmAaDRWq4rv2M5BZFMqNYmNAZFFKlxzToVLBBcsind83XaOXFDwzXl5ecUcVbSK8ONEKmyex91aiGwS5cw5FTYH8t+LlnVeaDuHbQXdnJeVHX+Q6zp3iKDEdhYi24xhc05kk3KSiAiOoz8+f/na423nsKmAm/NZRaFQ8WoAB9tOQpQL9tmHa86JrOLMOREgMibkyB218fv2tx3FloJtziORku+JSMx2DqJc4Xnj2RgQWSRcc060i7yrFONura1d5dpOYkNBNufRaOX5IvIZ2zmIcokxnDknskk5c070fwQyv3TuAd+2ncOGgmvOZ86cHQZwg+0cRLmGWykSWcfXINGbCJyr6uLtH7WdI9tCtgNkU3l5bLLj4JcAxtrOQpRrOHNO2RCJVCwFnBpA9e1/JoL/+L1ddvv7qvJOj3+ny6T5+N3foPm25Sey68piDH7c07PuvvRqvPm6vCGU6D85P1+0rKO3bUn1k7aTZEtBNeeOgxtFcITtHES5yBjDxoB8FQ5Xfl5EvjX0/0b/7ZZ+K5upb/H/vI4I4Dj6wGiuqqrsz4neRiDjxcHt85raZ61tqumznScbCqY5D4crLxHBGbZzEOWqsWNLM9YVnL987fGizqGOA1UxRoy765+qKo5xHFX1HOM5qi6MMUbVFcd4u/5cHFUVYxwTUgPPOEZVxTWOq2oGPeO4IVXxjOOpGnFNyjNaJCGTChktkpQZ9IrVIGUcz6iRkHGLjHo7B02ouEQ9GTChQU9TUmyKBjxNyRizoySl49yd5vWdgzrRKTGvbh/Q1zHelE7ZqS9v/JuZcMhRuhYdBk1NineYxaU9i0RiV4vgW7Zz+ElVR7VUVITLWoh2S3Ds4VOcawEUxP2CBTEQzJgx+8ji4qI/iGCc7SxEuSqVGjxo48ZHX8rEteqaO1tFZFEmrpVrVNHc2jh3se0c+SQarfgs4AT+FGZjsLi7u6t5pM+vb+54ESIHZjITUZCoZxa0Lpl3v+0cfiuEG0JDY8aEVrIxJ9ozVS5rGQ4RNNYv71xmO0e+CIcrryyExhwAREY3c85DiIj2TBz5eSHsfx745jwSqfgKIAV90hTRcHDNeRocWVzX/NvltmPkukikYqnjyLW2c2TP6PYpF26lSLRnIgeO1XE/sx3Db4FuzqPREytFnM/bzkGUD4wpYWOQBhE01sU7v287R66KRisXizjfs50ju5xRvYZ0lM09UUEQObVuecdltmP4KbDN+fTps/dRdVcAKMjTpYjSVVLCmfN0CeTT9c2dP0KB3L8zXOFwRQMgBbf0R3WUzTVvCCUaFnHkuguWP3y07Rx+CWxzPn580TUiMs12DqJ8wTXnIyTyifrm3/4ETU2BHU/TEYlUftpxnBHfFJnPHGd0zbUo15wTDdNYR0I/RUAnRgL5ZjJz5pwKVf2E7RxE+YRrzkdBcHHd5PkttbWrCvqTunC44pMiUsBLfUY3c66cOScaNhHE6pZ3XGo7hx8Ct895WVlZses6N/AkB9oND8BmVd0MyKuA7gBkhwh2quobBxuIiDiAjlPFBBFMALC/qhwkgjEWs/tOdQxfM6MgIheUxg4qmTX5+oWP33DZoO082RYOV1wuIj+wnSOfiaqM4GSlvKGqKRF5WVVfAmQrgNcF2Aaop3jjtFctBmSsAKUqOlZUJkJ0iqpMEUGx1S+Aco44+M4FyzrvXrGk6h+2s2RS4JrzUGjyZ0VQZjsHZZeqKoAXAPxJVf4E6DOAPA94fwec5x1n+0uJROI1jOIAmbKyOVNCIUwVcacbo0eKyDEiiAA6A5CiTH0ttnDmfPRE5KNlZTPGTmhqP6tQTrIDgEik8jIAPyz0SRHV0d0QGog15woD6J8hklDVJ6Bmk+dgkzHeX295tesVNDWZkV66tql9fNFE74AiKToMqoeqOIfB0cMBHCkqR6roVIEU9KdXhUcmOg7iAGptJ8mk/B8I3iQSOeEooLg76DOchU4VWwD9A4CkiHaravKVVwaeeuGFx3fYyDP0ac2EmSJuhYhUqCImgnfZyDI6qXcnEo88k4krBfkQouFQRfvOLanTVjfVbLOdxW/RaMXHVeX6Qm/MAUAVn0smu0a8p3tdc+drItgnk5n8ptB/QdEFwQaT0vXi9f9v21WnbLeRZdal1xcdO+OY6SIIq2jEEQkDchyAQ2zkoewxMKe1Ncy7x3aOTAnUYBqJVLaLyDzbOSjjnlTFbwHziDG6oadnw1PI8SPUZ8yYfWRRkXuS48gpqnJSPhyCZczAEd3dj/01E9cq9OYcAKB4ZHAHFtz8+blbbEfxSzhceYkIuIxwF1V8Ppnsumakz69v7tyKoaV0OUtVUxB0qupv1DgPrVhS9Qfk+Hh87vc63jUmhDlQzIGgUgXv5Qx70Ojfdmw2xwZlQiQwy1oikdhFIphnOweNnipeFNHfqOqavj5Z89RT616wnSldTz756J8A/AnAj6ZNm1YyYcKh8x0HZwJylggm2c63O6rFbLAySXBiaKyuPW/5Qx+4ZfFJL9mOk2mRSOwiQNmYZ5CKSk6ubFHtB3AvjN6xFXr/nUtqXrUdKR23XlH9NwB/A7AKAM5Y1j5pPDDPdZyTAHwAIkdaDUgZIO8aO8X5JoBG20kyIQdHgfRNnz57n/HjizYBCPyRrkGlqr0iuNsY767u7kceQ47PxIzU9OnTx4wde8B/icj5gCzIpSVYqZSZvnHj+j9n4lqcOX8T1T8p+k9qbTz5OdtRMiUarbhQVX42dPM0vWG0M+d1zR3bRCQ3PmVTGIV2qGJlX9/A7as/d/JrtiP5ZdGyjhni4jQAp4vKbEgwd7ILOoV6kvIiLUvn99rOMlqBmDkfN67oC2BjnndU8VdV3Ox5gzf39j76hO082bBp06Z+YNMdAO6IRqOTgLG1gHwckONtZxv1ASq0eyJHCsZ0XbD84ZNXLJ7/lO04oxUOx+pUlY25D3LhUwhV/FlhbjCiN69sqHnedp5saFtS/SSAJwF8p+66NYeKGzpPgYUicpztbDR8AnHhhr4L4EO2s4yW9YFgtKLRE6ephv6YSzOQtCe6Q1Vu8zzvpxs3blhvO02uCIdPnC3ifgZArYhY2S6sv3/wqF3LcUaNM+f/SYGXU17qlJuX1CRsZxmpSKRiESA3sTHfvdHPnHfuEEFpJjMNhw797wHjyfdXvPbw/aPZUSVIFi3rmCEOLgJwoYjsZzsPDY8x+GDb4qrf2M4xGnk/wKq617AxzwtPqOpntm7tOySZ7LqIjflbdXc/8mgyue4Cz0sdrqpfVsWL2c5QXMyZcz8JcECR6649f1lnpe0sIxGNVp7PxnzPRvvpk0h2X4MK3QZoHIMDx7Q2VH9wxZKqX7Ex/7e2JdVPtjZWX/WKbD8MnlkI6G9tZ6K9E9Hv5vuBcHm9rKW8vGKOiJxjOwe9M1VtNwbf7elZdz8Cuo48kzZufPQlAF+fNm3atZMmHXaxKq7O1raMqkVszn0nE0MuHqhb9tvTW5fMfch2muEKh+ecB0iLcC2uvzRbO53ra6oa3+n1LV+99IObs1Exn93fsKAfwC0Abll0Xfv7xHWuguAs7viSm0RkZmnlgZdgNa63nWWk8nqgdRy5znYG2j1V3Ol5eF8yuW5+T8+6+8DGPC3PPPNMXyLR9cNUast0wFyqioxscUg5Yaw4em/98o7TbAcZjnC44lzHcdsAsBHxmfp8PKhC/wXol3bsGJja2jjvy2zM09e2tOb3rY3V52g/joTqjwEU3GnAecGRr532nbtyelvSPcnb5jwcrjhXRE60nYPeTu8basq7PtLT0/W47TT5rre3dyCRWP+TZLLrKFVcrIq/+VVLlSeEZo3IGBW5Y1Fz57m2o+xJJFJ5tuM4K8DGPCv820dRXzOq/71zs5nW0lD9jSDvvJItbVdV/7Wlsfryfs87SlVvVNWU7Uz0bwIcMKlk0hds5xipfG3OQyLON22HoH9TxWOplFeZSKz7MJtyX6SSya4bt29/8UhVXDl0SmpmcbeW7BKRkANZWRfvuMh2lt2JRmO1IrISbMyzJtOvQVUMAPq9HamdR7Q1Vn8zKAe05JJbl9Q809pYfXEKOFZV77Kdh/5NBIsvWNZ5sO0cI5GXzXk0WnGBCI6wnYMAQF8wBvXJZNeJvMnTf5s2bepPJru+l0p501URB5Cx2RrXdfNyPMhrAgdwflof77zcdpQ3C4crzgJwM/L8vqRsE5HRLd/L4My5Km5PmYEZLQ3VV3L5iv9ubqz+U2tj9RkpTZ0EaI/tPAQAUuKKftZ2ipHIxzdjF5Av2g5B8FRxnTGvH9Xd3dUKrinPqt7eDZuTya7GVCoVBpA3NxbSf5Kh//1PXXNHTpxsF4nEPuI4zq1gY551oqNfc66qG1XN/NbGqtqbl5z0l0zkouFb2Th/zY7fvnScqi5W1e228xQ6FbnsvOUPHWg7R7ryrjmPRCoWAjLddo4C1z04aOYkk11XdHd3c/CxaOPGR55MJLpOBnA2oC+M5lpc1mKXiLO8vrnjSpsZotE5Z4jobWBjboWOYuZcodtUzRXPbTHH21NBtQAAIABJREFUtTbOa89kLkrP6tVne62N1c2pwVQZFL+2naeQiaC02Cm6ynaOdOVbc+4Czn/bDlHAPGNMUyLRNau3d/3vbIehf0skulbv3IljVPUHqjqifYrZnOcAca6ti//2ahulw+HK0wBnFSBFNurTG5+ipE+hd3swM1ob5123tqmGNybmiJuvfP+zLY1VH1LVC6F43XaewiWX18bvy6tT5POqOY9GK88VwVG2cxQiVfzV88zc7u71X0UG1zlT5jz11LrXk8l1nzFGYxg6ijotxnDNeS4Q4Jr65s7PZ7NmOBw7VQSr2ZiPWlaX9ynwsjHm7NaG6tNXNtQ8n83aNHytjdUtg2YgCtVHbGcpUGPH6nirn0qmK5/ejB1VcNbcjlu2bx+M9vSs32A7CO1dT8/6Ddu2vXicKr4DwLOdh0ZA5FvZatCj0YoPi+jtIlKcjXr0jtKaNVfobYMDXlnb4nmr/QpEmXPzkpP+8uwWM9dAv6G8RyvrFPqp877bvp/tHMOVN815JFJZKyLH2M5RYFKALkkkuhZu2vToVtthaPh27eryuVTKqwL0z8N5TlER9znPJQr50sLvrpnqZ43y8soFqvILNuY5oKlpeK8/xWY1em5rQ/W5t1xZ80+fU1EGrW2qSbU1VH8JxjsNUO41n0UiMi5UJEtt5xiuvGnOgfz5Sw2IVwCcnEisW247CI3cxo0b1g8OvhpVNTfu7bFcc55LtM+od/rNV77/Wb8qhMNzPug4bMxzRW3vsXt9/Sn0YfUGw62Lq2/LRibyR+vimnt1cPAEKJ6wnaWQOHAuq71uVantHMORF815OHzibBGcYDtHoVDVP/b3m+MTia61trPQ6PX29m5LJtdfrKrnAHjH2Ro257lC+wA9fcXieQ/6VSESmXOKiHunCMb4VaMQiZgRL1d4pWz/d3z9qWpKVT/f2lB9UuvS9/99pDUod7RecdLTW/q2nAhV317n9DaCKSXOARfYjjEcedGcO47bYDtDoVDFulTKVD755HrfZuzIjmRy3SrPw3sB7PYEV9UQm3PbVPuNwRktDdUP+FVi5szKkwE25rnm9Ree3u3rT1WfN0B1a2P1NeBa5UC5++rTX9/Y+8cPq6LNdpZCISJ50U/mfHM+Y8asgwHU2s5RCFRx52uvPX9Sb+8GniYXUD09XX/Ztu3FSlXc8PY/48y5Zar9HuSMtsVVv/GrRHl57CTXlbtFUOJXjcI28hNCjzhk8n++/lQfHBw0x61orObpywH1+A2XDbY2VtWr6jW2sxQCEZm5aFnHfNs59ibnm/Pi4pJPcHsv/6nqqmSyq/aZZ57ps52F/LXrZtHLjNFLVNH/xu+zObdItV+N+ciKxrm+HVgSDlfMd11lY56jtk0Z/5bXnxr9TsuW9g/yps+CoK2N1Z83MF+xHaQQiIOcnz3P6ea8rKysGMBltnMUgFuSyXULwf3LC0p397qfqeo8VbwIAKEQm3MbVDHgGZzVumTe/X7ViEQqaxxH7gEkL26GKkQ7N5cKAKhip1HvvNbF1Z9DU9OIDhSj/NTWMO9rRpVbRvtMIKcuurbj3bZz7ElON+eh0MRzRORA2zmCTBW3JhJdi8D9sAtSd/e6Rzyv/wRV9HDmPPtUMQDFWSuWVP3KrxrRaGyeCO4FZKxfNWiIMSNfE77/Pq8IVF+Ch3ltjTW3ZjIX5Y+2xupvAvol2zkCTeA4Y/Ap2zH2JKebc8D5tO0EwaYPJpM768DGvKBt3Pi7v23fPhgzRp+xnaWQqGJAxfto6+K59/pVo7y8okqVjXk++Msft6TMAOa0Lq16zHYWsqulofobgMZt5wg0xcW5vK1iyHaAd1JePqec2yf6SX8/OPjqmUDvoO0kZN+uQ6Z40FT2DIqa2tbGeff4VSAcrpwrIveJYJxfNeitREZ+Q+jjN1w2+Djw10zmofzV0lC9uL658wAIzrWdJZBEJo0JHXgmgJW2o+xOzs6cizgX2c4QVKr467ZtOxb09vZus52FqAANqmpty+Lqu/0qEInEYmzMifKa7tjyYj2AtbaDBJUD5GyfmaPN+awix5G82Cg+36hiuzHe6Zs2/eEV21mICtCg5+nZrY1Vd/lVYObMORUA7hfBeL9q0DsZ+SFERG+3uunsgYEBrxbKJYf+kJpcvTE0J5vzSKTkVAD72c4RRKrmwp6eDT22cxAVoEFV75wVS6ru9KtAeXnFHNd1fs3G3JaRL2sh2p1brqz5p5fyzgCww3aWoBFApBj1tnPsTk425wAW2g4QTPrt7u71t9tOQVRoVDVlPHNua+O8X/pVIxyuPNF15dciMsGvGkSUfSuumJ9Uozm7BCOvCc63HWF3cq45P+KIWRMB+bDtHMGjGxKJddyeiSjLVDVlFOe2Lan+hV81IpE5JzgOfgPIPn7VoL0TGflWikR70rq4+jYFfmI7R9AIZPr5y9cebzvH2+Vccz5hwpgzeYJdpulWwFsIbplIlFWqmlKVhSsWV93hV42ysorjRdwH2JgTBduWza8tVsVTtnMEjSuSc7PnOdeci8h5tjMEjefJ5YnEI8/YzkFUSBTqCfT8tsVzV/tVY+bMyveFQs4DACb6VYOGzxiuOSf/3NN06g6InqeKAdtZAuZsNDXlVD+cU2HKyuZMAaTGdo4gUdVf9PR03Ww7B1EhUagHo+e3NFav8qtGeXlsluvKgyKY5FcNShd3ayF/tTZU/wHQb9nOESQicnDd5OoK2zneLKea86IiOQ05fDBSHnqtrw+fsR2CqJAo1FPFBa2Lq2/zq0YkMuc4xwEb8xzDNeeUDTu3vPRtKJ6wnSNIRJ2zbGd4s5xqzlXlTNsZgkRVP/fUU+tesJ2DqFAo1BNPFrU1Vt3qV41otCIKOA+JYLJfNYgod61uOnsgZVKXKvjDYKaoIx+xneHNcqY5LysrGw/IB2znCA7dkEyuu952CqJCoVAPqnUtS+be4leNsrJYBJCHRGSKXzVoNLjmnLJj5ZL560SVu7dkiABT65sfnmU7xxtypjkPhSafLIIxtnMEhTFYCv5UTZQdCgODC1sbq327v2PmzNnhoiJdA8i+ftWg0RFhc07ZYwb6vgTF67ZzBIXC/S/bGd6QM825iC6wnSEoVPW27u51j9jOQVQQFMYAF7YurlrhV4ny8jnloVARG/McZwxvCKXsabvqlJcBfNt2jqAQIGfO2MmZ5hwAm/MMUEW/iPc52zmICoLCQM3H2hrntvlVIhKpLHNddw2A/fyqQUT56dkt3jJVPGc7RxCoyPvOW/7QgbZzADnSnEcic44D5BDbOYJAxPyYe5oTZYHCKMxFLYurW/0qEYlUlgF4GMD+ftWgTNEdIvp72ymosKxtqumD6Fdt5wgCASSkxR+ynQPIkeZcRE62nSEIVNGvqtfazkEUeApjjF7c2ljd4leJmTNPnAFgjYgc4FcNyhTdYYyemkxueMx2Eio8vRv/2KbAs7ZzBIE4mhP9aE4054CcZDtBMOjPk8kNf7edgijIFFAV8/G2JVU3+VWjvHzOMa7rtotITnzESnuiO43RU7u71z9sOwkVpsdvuGxQFdfYzhEEArzfdgYgB5rz6dOnjwEQs50j/+ngwIDyxUk5QSDNCmyxnSPTFFA15uOtDdU3+lUjHK482nHYmOcH3WmM/hcbc7Ltn7Lt56rKybnREjlwUXP7TNsxrDfn48cfNAeQUts58p/c/uST6/mxFuWElsa5jxtPTwpSg66AQvXStsXVP/OrRiRywlGOI+0iOMivGpQpbMwpd9zfsKAfgu/bzhEEAsf67Ln15hzAPNsBgiCV8n5gOwPRm61YUvW/gHk/FJttZxmtoRlzvay1seqnftWYMWP2kSJF7QAO9qsGZYruNMZwKQvllMEB8zNA+2znyHciMs92BuvNuSqXtIyWqiY2btyw3nYOordrbaj+g5canK+q/7SdZaR06PbPy9sWV/l2Gl9Z2ZzpxcWhdu5alQ/eaMw3rLGdhOjNbrmy5p+quM12jrynqLQdwXZzHgJwouUMeU8VnDWnnLXiivlJz9P5CrxsO0u6FFBV/WTr4urr/aoxc2bFe0Iht11EDvWrBmUKG3PKbeoZ9gOjJdj/guUPH20zgtXmfObMyqgIxtnMkO9UsR14/VbbOYj2ZOXS6h4PWgPoi7azDNcbjXlbY9WP/apRXh47wnWddhEc5lcNyhTd6XlyGhtzymVtS2t+r4pu2znyncC1uqrDanPuOFphs34w6J3d3d3bbacg2puVDVVP6KBUq+rztrMMi8Gn/WzMw+ET3u262i6Cd/lVgzJlqDHv6el6yHYSor1SrLAdId+JwGp/arU5F5HjbdYPAmOw0nYGouFqvWLu0zqgVVB9xnaWPTFqPt26eO7/+HX9aPTEaY5T1A7I4X7VoExhY075xXO8W6AwtnPkMxFY7U9trzlncz4KqvpyT8+6B23nIEpH21XVf02JN1ehT9vOsjuq2tDWWP1Dv64/Y0bFVFW3HZCpftWgzFBFXyqF09mYUz5Z2VDzvEI7bOfIZwoce2rTPWNt1bfWnE+fPnsfAEfZqh8EInIHgJTtHETpWtlQ8/ygGahSxUbbWd7MGDS2Nlb5tldwWVns8OJip11EpvlVgzJDFX2ep6dt3MgJEMpD3LVlVATi7jNx3HG26ltrzseNC80SEbFVPwg8T++1nYFopG5ZfNJL2N4/D4rHbWcBAFWzuG3x3Lhf15858/h3hUJoF8G7/apBmaGKPsCczsac8pXnmF/ZzpDvXMd9n63aIVuFVSXM1nw0dMfrr/+dB2C8TTQacwBMATAJwFYAmxOJLn66kKNav3DSv86P3zc/hPH3AWJvb1mjS1sXVzf7dflwePZhjhNqB3CEXzUoM95ozJPJ9Q/YzmJLfbzzP8bRloYqjqN5ZGVDzfN1zR1/EBFrs7/5TyK2KltrzkVM2P6S97z20DPPPFPQJ4FFo7EpAD4AYAGAMIADAewPwH3b414D8CKARwF0AvgtgD8lEl3qU67JANLZFzueSHR1+ZElH6xsWLD11KZ7PjBl8qQ7ITg52/VVcUXr4qplfl0/EplzqIjTDsh7/KpBmVGIjXl9vHNY42h9vHO342hLQ5Uv42h9vDPdcXS4+gH8602/XgHw+5aGqr/6UMsyvRdgcz5SMvR6sFXbjmi08jGAu7WMwmWJRNcNtkNkWzQaKwLwMQB1AOZg5D/h/QlAHMBNiUTXtgzFAwBEo7GDAbyQxlPOTyS6bs5khnz0ofh9Y/bX8beJyOnZqmmMubJtcfX3/Lr+0UdXHlJaKmsBHOlXDcqMocbcOyOZ3PAb21n8Vh/vfGMcXQSgAhkYR1saqjI6jtbHO9MdR0frWQDtAB4G8MtMfz02LFr+8GzHCT1iO0e+UsXO1i0Pj0dTU9Z3vrE1de0AKLNUOxD6+wfbbWfIpmg05kSjsbMB9GJoNqUSo/v+PRLA9wE8H43GrolGYzwMy7L7Gxb0P7fF+6gqsvKDihr9rJ+N+YwZsw4uKZF2sDHPearoL4TGvD7e6dTHO988jsaQoXG0Pt55TX28M5/H0akALgTQCuDZ+njnf9fHOyfajTQ6fev++XuF5v0PGbaIoLRuQmy6jdpWmvPy8tg0QKxtUZPvVPHik08++ifbObIlGo3NBPA7ALch843ORABXA0hGozF7a54JALC2qSbVumXNIoX+xM86RvXq1sVV1/p1/bKy4w8qLi5pF+GOVLlOFf2qBdGYZ2UcrY93BmEcnQLg6xhq0j+/aw1+3lm9+mwPivW2c+S1UMjKRLKVbzgRj29YoyCC39rOkC3RaOxUABsAvNfnUu8B8Ntds+h5ORAHRlOTaW2outSo+rIOXIHPtTVW/T8/rg0MNeahUHG7iBztVw3KjDca8+7uDb+2ncVP9fHOrI6ju2bRgzCOTgTwLQB318c7J9kOMxI6dH8AjZSIlX7V0ovHzhcbFKoa+BdbNBqTaDT2WQB3ARifpbKCodmf69mg29fWWLXUAN/I6EVVv9DaMPc7Gb3mm8ycOfvAoqIxD4vIMX7VoMxQRb8x+pEgN+b18U6pj3daG0cD0qADwIcBPFYf7zzWdpB0qRf8fsFXaufTTysvHMdxOKM0CqpeIXxM9W0A34Gdm5YvAfAjNuj2tTXM/ZKq+XwmrqVGv9jSWPXtTFxrd8LhigNCoaKHAczwqwZlxq7G/MyennX3287iM+vjaIAa9CMBPFAf79zXdpB0PL9Vf6eq3AZzxApq5lx5g9SI6eCOHf/stZ3CT9Fo7BQMzbzYdCmAr1jOQABaG6uvMQaNCoxiyzbzpdbFVd/KXKq3mj79uP1F5GEAeTezVmje1JjfZzuLn+rjnRxHM+9QAD+rj3fmzSkta5tq+gD80XaOvGXpviFby1qm2akbBPLkpk2b+m2n8Es0GjsAQIvtHLt8MRqN+b1Gk4ahbfHcuCg+MZIGXVW/3NJQndnlMW9y1FGz9hs3btwaEeEOVDlOVQdEzFkF0Jjn1DhaH+8M0jh6OoBP2A6RHknYTpCvBDjg1KZ7sr6BiY3mXFRxuIW6AaGBfZHtWkZyE4YOwcgFLoCfR6OxYttBCGhpnHsD1HwMimHvOauKptbGqq/7lemYY07Yd+zY0jUiKPerBmXGUGOuZyYS6wN9rPmuZSQ3IcfG0fp4Z5DG0et27X6TJ8wfbCfIZ+PHj896z5r1E0JnzJh1kAjGZLtuUKgisM05gE8B+NAIn9sLYBWALgwdXLEZwGEAjsLQWsGPABjJSWlhAI0AfNt2j4avtbG6pa65YxCQVoG4e3qsqvlqa2P1V/3KcswxJ+xbUlK0BhZPkaPhUdUBwJyVSGwIdGO+S6GOo/cBeHIvjxmHodNPDwUwC0DRCGuVALilPt75vpaGqpz/JFuNJPY8WtKehELuVGR5aVDWm/OiopKp2a4ZLOYJ2wn8EI3GBMDSETz1HwA+kUh03b2bP3sZwP/uuv43ASwE8E0g7U9uGqLR2LJEoos31eSA1sbqm+ubO1IKrBSR3Y9hRr/Wuri6ya8MZWVzpoRCzkOARPyqQZmhqgOq8tHu7g332s7it11roUc8jrY0VO1xHK2Pd45qHK2Pdy5raajyaxxd2dJQNewDzOrjnfsAOBlDf18VI6g3E8AHMbQTTk5TyN5+aKE9EOi0bNe0sKxFD8t+zeBIpfBn2xl88l4A09J8zu8AlL1DY/4WiUSXSSS6VgA4BkP7/abjMACnpvkc8lFLY/UqCM7b3S4EBvhGy+Iq325CKy+PTQ6FnIdEJOpXDcqMfzfmXffYzpIlIx5H36Exf4uWhirT0lAViHG0paFqa0tD1R0YOiV1IYCtI7jMRzKbyh8rllT9A8AO2znylTrIet+a9eZcRA7Kds0A8Xp7B561HcIntWk+/ikACxKJri3pPCmR6NoJ4CwMfWSbjk+l+XjyWWtD1e1q9BwAg//3m2q+2dYw90t+1Swvj012XTwoIiP5aJ+ySgdVUVtAjTkwwnG0paEqrXG0paEqMONoS0OVtjRU3QLgJABp/T0AOLU+3pn1FQgjo0Gd2POdqGa9b816c67K5nykVPEc8Pjg3h+ZX3Ytaflomk/7TCLR9c+R1Eskuv6BoRkPL42nvT8ajfF7N8e0Lan+hap3DoBBo/rtlsbq//arVjQaneS6+gCG1qpSTtNBz9Pa7u51e50NDopdS1rSHUcbWhqqRjSOtjRUjWgcrY935uQ42tJQ9Tuk//c3BUCVD3F8IGzOR8wJfnMukv2fQIJCJLBLWiIYOvZ5uLoBPDSagolE12MYuoEoHXNHU5P80do475dIDR7X1lj1Bb9qHHHErInAuAcAeZ9fNShThhrznp71Ob8WOMPSHUd7ADw4moItDVWBGkdbGqoeBvCLNJ92ph9ZMo8z5yNmoW+1sOacM+cjpYq/2c7gk1PSfPytiUTXKA6k+T83pvn4nH1TKXQtS+f7djDX9Omz95kwofQBQI73qwZlig4C5uwCbMyB9MfRW1oaqjiO/qcvpvn4M3xJkWEG8rztDHlLUQjNuebV0be5RV+yncAn6X5PPJahur/C0E4Ew5XrbyqUYdOnz95n3LjQb0Rwgu0stDc6qCrnJBIb7rSdxBKOoxnQ0lD1RwDPpPGUQ+vjnSPdkjFrHM8EtX/IAsl632rjRobJFmoGRToDYD6ZkObjH89E0USiazAajZ2D4e9uYKLRmGRo1p5y3NFHV04oLcWvATnRdhbam6HGPJns+qXtJBZZGUdbGqoG6+OdaY2j9fFOydCsvV/aAXwsjcePBfCaT1kywkBesnQkfN4TQemH4veNub9hQdb2tGdznkeMkaD+5Ds+jcc+m0h0vZqpwolE19pMXYuCY6gxl18DmGM7C+1VShXnFnhjDqQ5jrY0VGVsHG1pqFqbqWvliEcQsObcUe8lOy1fMIzvK50M4MVs1bNwQyib85ES8YLanKcz47PZtxREAMrKysaXlOA+jOxgEsqulDHm3GRyXbo38QURx9HMSfcHl7G+pMiggeBO7mVFSZGT1d41q835IYfMGgtIzq/NylUigR1Q03lTGclBEUTDEg6Hx4VCk+4TkZjtLLRXKWPMed3d6++wHSRHcBzNnO1pPj7nm/PUo6+ku4c7vYlxzcRs1stqcz5+fO5/A+c2L90BI1/wTYWsC4fD4xxnwn0iktM3rBEAIAVgYXf3+tttB8khHEczJ3DN+erVZ3uA9tnOkbdUx2WzXFab86Ki0pz/Bs5tblCb83TWSvJNhTLukENmjRWZcC8geXKgSEFLAViYSHStth0kx3AczZx0j7rPi95G0/+hg3ZxxMnqf+OsNueO4+XFN3CuEtkZ1BcWZ3zImkMOmTV2//1L7hWRebaz0F55qno+G/Pd4jiaOYGbOQcAqAS1h/CdGMnqf+Ms37rrZvVjgaBJJAI7c843FbLisMPmlO67r3OPiNTYzkJ75anq+cnkulW2g+QojqOZE8zmHLodENsh8pODrPavWW3OVb0xgJvNkkGSAh4ftB0i06LRmIBvKmTBYYfNKd1vP/duAPNtZ6G98owxF3R3r7/NdpBcVB/v5DiaWYFc1iKCnbYz5CtVKc5mvaw2547jsDOntytBesur+KZCozZt2rSSSZOcuwCcZDsL7ZVnjLeou3vDrbaD5DCOo5kVzJlzFeXE+ciIZrdfznJzLmzO6e3SPdXudV9SUMGYNm1aycSJh90J4GTbWWivPM9DXU/PhltsB8lxHEczK90Z5vxozmnkRLPav2b1hlDP4/FU9B/SXce1zZcUVBCmT58+ZuLEw34pglNsZ6E9U1UDaH1PT9fNtrPkAY6jGdTSUGUApLOMtMSvLJQbNMsz59nerYUz5/R2/bYDUGGYPn36mPHjD/yFCD5oOwvt2RuNeSKxbqXtLHmC42gG1cc7XQDpHJiYH2u5RbmoZaSyPHOe1Z8EPM8xIc6dj4iqZvUHqSxK9+NVnjBLaSsrKysOhSbfAWCB7Sy0Z7sa8wuTyfUrbGfJIxxHM6s0zcenewOpFaoQYXs+Ig7EZLdeFrkuUtmsFyQi4kyfPn2M7Rw+SPfGG76pUFqGGvNJt4vgw7az0J6pqlGVjyWT69tsZ8kzHEczK91lQnnRnAPZ3as7SIxIVvvXrDbnxqiXzXpBEwpNSecEuLyQSHQZpPfGwjcVSsOsoqKiSatF5FTbSWjPhhpzXNTd3dVqO0u+2bVGmuNo5qTbxOZJc66B6yGyRdRktX/NanOuqpw5HwXXLQ7qIU7pfCTLNxUapllFkUjpKkBOs52E9kxVjYhe3N29rsV2ljzGcTRzAjlzLul/XbSLSHZXfnBZS14ZDOpPvXxToUwLRSIlt4ngDNtBaM9UVQG9JJFYf5PtLHmO42jmBHLmXIGg9hC+U3WyeghklmfOJS++gXOV60q6e9nmi3S29eKbCu1NKBKpvFVEPmI7CO3ZUGMulyST639uO0sAcBzNnMA15/Oa2ktEhFtyjJhm9b9xlncASaV70wq9RegA2wl8ks6MDwcX2pNQNBq7RUTOsh2E9kxVVRWXJpNdN9rOEhAcRzMn3eUfOb+V4uGTU0HtH7LCGBPk5jzE5nwUHMccZDuDT9J5U9nPtxSU79xIpHIlgI/aDkJ7pqoqopd1d6/7qe0sAcJxNHMCN3MOb0xQ+4fsEMlq/5rl5nwbm/NRUHUOtJ3BJ+m8qbzXtxSUz9xIJLZCRM62HYT2bKgxl08kEut/YjtLwHAczZx90nx8zjfnGjJB7R+yI8vNeVY/2uru7t4RjcY8ADwpdEQ0qC+udNZKvi8ajUki0aWZKByNxsYivfWXWzNVmzLGjUZjbQDOtR2E9mxojTkuTyS6brCdJYDSGkfr453S0lCVkbGsPt6Z9jiaqdo+mZXm43O+OYfBQdmejg0SgdmazXrZ/k+lALZkuWaQHGo7gE/SmfGZBOCIDNZeB+DVYf56KoN1KTOcSKSyBcB5toPQnu1qzD+ZTK673scyUhfvuKi2dlUhTgBxHM2cqjQfn/PNuYgcYjtDPhvsG9yczXpZ/zlKFVn9AoNERN5jO4NP0j16+vhMFI1GY8cBiKbxlA7OmucUJxKJ3SQi59sOQnunqp9OJtf92McSUte89gaB/Kw0dtBNaGoqtHlCK+Nofbwz7XE0l2fN6+Od+wEoS+MpL7c0VGV1m72RCWz/kBUv7iwKdnMOKJvzEVLN6ExHLnkszcd/LEN1L0rz8WszVJdGz4lGK38ugkW2g9CwfLq7e/3/+Hh9qWvu+KmIcwkAiOCCRVNqfl5gDTrH0cxYmubj7/ElRcYpm/MRUsXOtU01fdmsmfWBS4Qz5yMlgvFlZccH8Y7rhwC8lsbjPxCNxk4aTcFoNDYZQLozrmtHU5MyxolEKn8GSJ3tILR3qvqZRKLrh74VaGpy6uNrbxSRtzSJDqSubvL8nwIQ32rnlrTH0fp456jG0fp4Z6DG0fqR7zANAAAgAElEQVR45+EAlqT5tLv8yJJxItNtR8hf2Z9UtrCsRV7Kds0gKSpyA/fTbyLR1Q/g7jSf9p1oNDai799oNBYCcCuAyWk87U8A/jiSepRREonEfioiF9oOQntnjGlMJtf9wLcCTU1O/ZR5PwOcC3f3xyL4WF3z2htQAA16S0PViMbR+njniMbR+nhnoMbR+njnPgBWAihJ42k7AazxJ1HmnPaduyYIwH3OR0ggL2a7po015y9ku2awOMfaTuCT29N8/HsBfD8ajaUzkL7h2wA+kOZzvs/15tZJJFL5E5GMfRxPPjIGi7u718d9K9DU5NRNrrnxnRrzN4g4l9Q3d/wYBdCgY4TjaH28M2vjaC6uN6+Pdx4E4EEAsTSf+kBLQ1XO3ww6qWjyDNsZ8pkC/8h2zaw3546T/S8yWJx0brzJJw8g/RuaPgngsWg0NnM4D45GYwdHo7EbAFyZZp1tAFrSfA5lloTDsetF5GLbQWjvVHVpd3dXs28FmpqcRVNqfi4i9cN6vMildc0d/s3g544Rj6P18c5hjaP18c6D6+OdgRhH6+Od4+vjnVcDeBrACSO4RF4saRFXg9o3ZIVAsz6pnPUjfFXxghTC/IV/AvkiSyS6+qLR2K0APp7mU8sB/C4ajV0HYAOAJIDn35jljkZjpQCmAzgTwFVI/1hmALgpkejK6h6n9BYSiVT+SCTt7w2yQNVckUyuX+ZbgaYmp27y/JsE6d0MLCKfrI93pFoaqhv9imZbS0NVX328c8TjaH288y3j6Buz3PXxzoyMoy0NVX6Oo0fXxzv3NvM9DkPLOw4BULPrV/EI621DntwMqpAo266RszFznvXmHPD+zjOIRk4VYQx9PJtzHw1mwGcBnALg8DSfVwLgC2/6/1ui0djTGBqA3zXKTK8A+Noor0EjJ9Fo7IcALrMdhPbOGL2qu3v9db4VaGpy6ifXtELSvglxF2moj3cMtjRUpzvrm08yNo7WxzvzaRz98q5f2fLVloaqf2ax3siJRgtjVZc/VPXv2a5p44bQZ7JdM0hEMD4SOeFI2zn8kEh0vQpgIQAzyktNBjAbo39DAYBPJBJdr2TgOjQC0f/f3p2HR1We/x//3GeGQMIaXMBq3YpVG5gZfygqiQkRUKEVrTZawYRu1tZqAlirtrVNW+suEFrr1m9tCFAb1LoVF6xJMAHBYmcSUlxQUZHKIosCIcnMuX9/BKttBQLk5J4583ldl1fbP3rOu0UPNyfPeZ5I3m8BfN+6gzpDf9TY2HCHV1cvKqoOlGQXVuGA97WXq0tm1t3SNVXJp7I0Pymfo5Wl+X56jr4CwLvvKbpQUVF1AB0v9Wg/KbC6u+/Z7cN5Y+Pi9arY3t339ZdgrnWBV6LR+gYkz5vqedFo/SPWEekqHM79DTrWw1KSU8V10WjD7V5dv6ioOpCZN2i2iEzsiuuJI9dOrqi7sSuulYwqS/OT6jlaWZrvp+foDgCTKkvz26xDOqPnyMFhEdmfZUj0MVff6u5bGh3QoKtt7usXzhnWBR77NTqOg7b0IjgYmgmH8ypE5ErrDto7VVwfi9Xf6tX1i4qqA5lnDK7qqsH830R+UlJR9/MuvWZy4XO06yk6BvOXrUM6y3HU7/OCtxRu64cb3unu2xoN59LtfwrxExF//8MWjdbHAZwPYJFRQgOAs6PR+n050IO6SCiUO0MEpdYdtHeuqz+Jxeo9WyJSVFQdyMobPEeAS7y4voiUF1fU/cSLa1urLM1PiudoZWm+X56jcXQsz3nUOmRfCODrecFzou/NL7+o239KYvXm/HWb+/qFDPHpSaH/Fo3WbwQwFsDvu/nWtQDGcXcWG+Fw3p2OI1OsO2jvVHFDY2PDTV5dv+ON+aC5EHzdq3sAgCNyY3FF7Y+8vIeVXR8smj1HPd6dpTutBzC6sjT/PuuQfaUiHM4PhMprFrc1Gc5FdKXFff2kR4+M0dYNXotG69sAfBdAGTreWnipHR07FYyNRuv3dZ9g6gLh8Mg7RDDNuoP2TlV/HovVe7Zme1R5TTAzb9A8gVzs1T0+zRHn1pKKWl/+vbdrbXS3P0crS/P98hx9EcDJlaX5Vj+B2G+TptcN48mgB0pNTrQ1Gc5dV5Ly+N7UIl+2LugO0Wi9RqP1swCcAGCeR7f5B4BTotH6m3ctqaFuFgrl3ibiXG3dQZ3yi1iswbOPDUeV1wSPGhiYJyIXeXWPzyLi3FlSUefLPdArS/O1sjS/W56jlaX5N+9aUpPq/g7gPAC5laX571rH7I9AEOOtG1Kdqs28ajKc79ixg8P5AVLVs5FGG8ZHo/VvRKP1kwCcBGABumaf96fQsR/w8Gi0PtYF16P9EA7n3eI4co11B+2dqv4qGq0v9+r6o8prgkdmB/4EoMire+yJiMwsmbnItx8iV5bmv1FZmu/Zc7SyND/Vn6ObADwC4BwAIypL8x+vLM0/0C0pzQiQFi/xPKUJk3nVbFf6SCRvA4CDre7vD/G8aPRF66/xTUQieYei4wE6Hh2/MQzoxH9tM4B6AC8AeCIarffkH7pIJO8wAPvydXdJNFr/Jy9akl0kknsTINdbd9Deqbo3xmKLb/Dq+qPKa4JHZTsPQuRCr+7Ree4VlaWj7rau8NrkWYsO+DlaWZrvyXN08qxF+/oc7aydADYC+GDXXxsBvASgBkBTKg/jn3b+jJoB/QLORoGkzUs8L7S27Dz8wWvPWtvd9zUbzsPhvOdE4Pt1015SxW2xWP211h3WIpG8IIAj0LG2btCuvwYA2IqOh+8mAO8DeC0arffFg9cPQqG8Gx0Hvtwpw3/0pmi0wbNfq+HfvbdHztATHhTIBV7dY18ooKL6vcqygpT7AHB/TZ61qNPPUb8MsH5WUlE3UUTmWnekNMWGyrJ8kzX7QYubdnCjgMPh/ACI6MUArkPX/GgyZe1aJ74aBqd40f4Jh3N/KcLBPBWo6i2xmLeD+dChJ1ajY9u/pCCAqMg9JRWL3Nll+d2904mJXevEV4PPUV8QeLvLUTpQgdkyLaOtFAEAUcN7+4QcNXTo6adbVxDti0gkr1xEPFseQV2n46dzDZ4tO0rGwfxjAggE9xXPrL3MuoVoX0y8+clshZxt3ZHyVM3mVLPhXJXDeVcIBBxPDucg8kI4nPszAH4+ldFH9A4vl83tWsryEJJwMP+YACKOc+/kirrvWrcQdVYwq9+FIsiw7kh1rtjNqWbDeWPj4pWq2GZ1fx8pgunyJKLOCYfzfioiv7DuoL1Tde+MRhs820GnqLw6I2foCQ8JZIJX9+gq/17iMrPucusWos7RidYFfuAqllnd23JZSwLQvxve3xdEZFAoNPI86w6iPQmFcn8sgl9Zd9DeqeqMWGzxD726flF5dUZW9qCUGMw/JoDAkbsnz6r9vnUL0Z5MrKg7DiKjrDtSnmLTvLICs9PsLYdzALLU9v7+4DjO96wbiHYnHM67znHk19Yd1BluRSzW4NlJmUXl1RmZ2YMfhsi5Xt3DKwKIwrmrZGbtFdYtRLvTQ3C5GO7E5yNmb80B8+EcHM67gKqOzsk5fYh1B9F/i0RG/kgEN1t30N6p6m+i0cVTvLp+UXl1RtbAQY+I4Cte3cNru9ag3+Xng4oodY2btaCnAt+w7vADhZrOp6bDeSLRvtjy/n4hIhIMCt+eU1KJRHKvAZxbrTto71T1rlisodSr64+btaBnZvagvwDiixMLxcFvSipqr7LuIPq0gzXrIoEcZN3hB66q6QGPpsP5ihVL16mqydGofiMilx177PD+1h1EABAO510NyG3WHdQpd8diDZ69CR43a0HPQ9D7LyIy3qt7WBBxZpVU1JVZdxB9TOB49q1IOlHVuLS3mr48tl7WAgB11gH+IP369s3kx0pkLhzOnSqCO6w7aO9U9d5otP4HXl1/3KwFPQ/VPo8KZJxX97AkIjNLKmo9W6NP1FnFFXXjRRCy7vADAf5edc3Z2y0bzIdz15VF1g3+oVOOPvroXtYVlL5CobwyEZlu3UF757q4PxZr+D48OmF4VHlNr0O1z6MQnOPF9ZOFiHNncUUdT7slUwJ4diZBulG1f2lsPpy3tWmtdYNfiMigfv0+9y3rDkpP4fDIqxwHM607aO9U9f8aG+svh4eD+ZHZzmN+H8w/5ojcOLmi7kbrDkpPk2Y8nysi+dYdfuGKW2vdYD6cv/pqw1pVXWHd4ReO4/z0c58bnmXdQeklEsn7gYgzy7qD9k4VD8RiDZfB48FcRM7y4vpJS+QnJRWL7rTOoPQTcAI3WTf4hmpra2ID35x30GesC3zksIMP7sWPlKjbhEIjrwDwW+sO6gytjMXqvwOPBvOi6dWZRw4MPJF2g/kuIphWUlF3F7jPNHWTjrXmfGveVVTkhfnTLmqx7kiS4RzPWgf4iYj8aNiwvGzrDvK/cDj3eyLCwTwFqKIqGm34FgDXi+sXTa/OzAwOflyAMV5cP1WIyBUlFYsqi4qqA9Yt5HsiInxr3pXc5JhHk2I437p17SJAzf+k4hciGCCiP7PuIH+LRPK+C+B3IsK3hElOVefGYvXfgIeDeVZg8BPpPph/TATFWWcMfmjcrAU9rVvIv4pnLJosQNi6w08Srj5t3QAkyXC+evXqnQAWWnf4iePIlcOGnT7MuoP8KRTK/Y6q3sPBPCX8KRZrmAyPBvNzy5/IygwOehKC0V5cP4Wdfwj6PFl8+zO9rUPIf86fUTNAAuAhb11IgbfnTitosu4AkmQ4BwDXxePWDT4TdBznLusI8p9QKPfbIriPg3nyU9U/R6P1xQASXlz/3PInsrKz+z0pkDO9uH6qE2CMk9HruYk3P8llhtSl+jvOjQIcat3hK5o8c2gSDefxJ1XVkzc76UpEzgiHRxZbd5B/hMO5F4jgfg7mKWF+LNZwKTwczAcO7P9XESn04vq+IXJaj6y+zxdNf3qgdQr5Q8msupMA4aGDXc1NcDj/bytWLF0ngqXWHX4jIjOGDj11kHUHpb6cnFMG8415alDVh6PR+okA4l5cv/j2Z3pnZ/dfAGCUF9f3HZFIViDzbxzQ6UAN/+69PUTxB0jyzG/+oFubV75mvoXix5LqF1dVH7Ju8B85KBgM3mddQSlPgsGMSkAOsg6hPVPFo7HYzkvg4WAuGb0WiKDAi+v7lkgkM5D53KRZC/pZp1Dqysk5/gaIRKw7/MYFHlt+3+Xt1h0fS6rhPJFon6+qnuy/m95kQiiUO9m6glJXKJR7fbruXZ1a9PFYrOUiYLknv8l8MphzX+X9ISInBbT3o0Xl1RnWLZR6iqfXnAzI9dYdfqQJqbZu+LSkGs5XrHjpXRG8aN3hR44jFZHIaUdbd1DqGTYsb4zjyC+tO2jPVPFke/uWIq8G86Lymj5Oz15PcTA/MCJSmJk9qAo8qIj2QfHtz/SWgDNbRILWLb6jumXlypVJsb/5x5JqON8lqf704iP9gcD8nJwcvrGhTguFRhwTCOiDAHigSlLTBfH45gubm5vbvLh6UXlNn8zswFOAnOHF9dONiFw0eVbd7dYdlDokI/NuETnRusOPFPKXZFrSAiThcN7e3vYgPNpdgOTkYHDAdOsKSg1DhpzaT6TH41xnntxU8fS2besu8HIwzxoYeFoEeV5cP33J1SUz6y63rqDkVzyz9jIRcOc1j6irc6wb/lvSDefNzS+9D2hS/XjBT0TkB+Fw7sXWHZT0gr1796gWkaHWIbR7qvrs1q1rvrpq1apWL64/4dbH+mYNDDwNINeL66c9wW8nz6rjtxy0WyWz6k5yHJll3eFf+m7V1ppa64r/lnTDOQC4rs62bvAzETyQkzPyFOsOSl7hcN59IjjbuoP26LmtW987b9cJy11uwq2P9R3QawAHcw+JSFBV5k+e/nyOdQsln0tnLDqs42Ac6WXd4leqmIvy8qQ7Yycph/NNm/QxQD+07vAvyezRw3ls6NBTPm9dQsknHM69WQTftO6g3VPVmo0bExO8GswnzVrQb0DmgGdEZKQX16dPiKCfBoN/vWTmczyPgv6taHp1phPQx0XkCOsWP1MXSfkyOCmH8zVrlrQAMte6w+cOCwYznsjJyeljHULJIxzOu1ZErrPuoD2q27Bh51c6npNdb9KsBf2C2vsZgZzuxfXpfwlwVA/JeKxoenWmdQslBckKDKoSyMnWIX6mqourphastO74LEk5nHdweXCO5yQcDA547Oijj+aPzAihUF6ZCG6x7qDdU9UXXPfDL69du3yHF9efNGtBv4D2eRYip3lxfdo9EZyaGRw0B+XlSfz7MnWHkopFd0HkQuuONJC0c2bSPgSi0cVRQF+y7vA7ETmzf//DqwFw79Q0Fg6PvMpxMNO6g3ZPFQ3x+JbxjY2N2724ftEtC/sH0HuhCE714vq0dwK5oGRgYYV1B9kpmVl3iwi+b93he6pbWhLrknbr7qQdzgHAdZP3TzV+IiLnRiJ5s5Hkfz+QNyKR3GtEHO4GkNR0yc6dOq65uXmbF1cvumVh/8ysjGcFMsKL61PnCeTKkll111p3UPcrmVn7Y3GEv/bdQAVz5k+7yJOlgV0hqYexTZvcuYB+YN2RJi6JRPLmgG/Q00o4nPtLQG6z7qDdU8XSbdvi57z6asNHXlz//Bk1A7IyMxZyME8mcnPxjEXfsK6g7jN5Vt1PxXF+bd2RDhRQtLf/xrpjT5J6OF+zZkmLqt5t3ZFGLolEch8aMmRIT+sQ8pwTDufeIyI3WIfQnujfP/qo5exVq5Z6snvV+TNqBvQLOAshwq1Vk4gAIgH9/eSKuousW8h7JTPrbgHkV9Yd6UJUn5x99ZjXrDv2JKmHcwCIx9vvUlVPTr6jzyLn9ekz6IlQKNTbuoS88bnPDc+KRHIfERGeTpjEVPEysH3sm28u3+rVPfoHnMe5I0RyEkgAInOKZ9Wea91CHikvd0oq6u7iUpbulXDdpD8pPemH844TQzHPuiO9yFiRvi8cf3zu56xLqGudeOLwww49NHMRIOdZt9DuqWo0Hk+MjUajW7y8T8LVXwHqyV7p1CV6OCrzL62oOcc6hLrWueVPZE0eeObDInKFdUt60ZfnTC2sta7Ym6QfzgHATYE/5fiNiJzUqxeWRSIjI9Yt1DVyckaekpHR6yUAw61baI8aW1vbxzQ3L9nk9Y3mTBm1MKHuV6Ha6vW9aD+J9HQQeOzSmYu4tZ5PXDpj0WEDs/svAnC+dUu6SQApMU+mxHDe1LSkCdCF1h3pRkQOV3VeCIfzvmrdQgcmFMqdHAw6i0TkcOsW2j1VXbFjR8voV15Z1m0fws8pK3w64cqFquDywSQlggzH0T+XVNRNtm6hAzO54vnhgYAuhfAlSXdT1fdWrnglabdP/LSUGM4Bvj23IoI+IngkEsm9HdzJJeUcffTRvUKhvPscR/4oAh42ldz+qaqjX3tt+cbuvvGcqfl/FdUiAO3dfW/qnF1r0B8onllbat1C+6dkZt3lQKABkM9bt6QlwW+W33d5SjzjxDpgH0g4nNsoIkOtQ9KVqr7Q1rbz4pUrl//LuoX2LhTKPd5x8GdAwtYttGeq+ko83la46xsbM8Uz6i4QB38WEf5BPImpYvrszc9fg/Jy17qF9u7c8ieysrP73yOCYuuWtKX4qH3Hh0fNu/4rm61TOiNl3pwDUFUtt45IZyJyRs+emY2h0EiufUxy4XDu9xwHL3MwTwmvt7XtPNN6MAeAqqkFjwgwSaEJ6xbaPRFMK8kufGTCrY/1tW6hPSuZvmhE9sD+/+BgbkwxI1UGcyC13pwDHW/PXxYRfqRoTBVVH33UcpWX27zRvjv++NzP9eol94ngy9Yt1Bn6hqpbEIstec+65NMunVU3KaAyG5JSL3DSjqquRLz9/GTfszkdDf/uvT1yco6/ASI/FkjAuietqW7Z6rrHPDq10NPdr7pSqj14VVV+Zh1BgAiK+/bNbAqFcidYt1CHcDjvW5mZ8k8O5qlBFW/F422FyTaYA8Cc0oK5rotvK6DWLbR7InKiBDP+PnlG7SXWLfSJyRXPD8/JOWGpiHMDB/MkILgzlQZzIPXenAMAIpHcZQBPtEse+lh7u5Q2N9e/Y12SjoYNO/0Ex3HuEpEzrVuos/Tt1lYtWLly8dvWJXtSPLP2MnGceyVFf69IJ6r6hy07t0x5/NrzPrJuSVdFtyzsn5mVcaOoXMGfOiUHhX6wpWXLMan2z0VKPnDD4dPPFgk8bd1Bn1DFdgA3bt26Zubq1at5qEk3CIVCvUX6/lQEVwPSw7qHOkcV76q2FTQ2LnvLuqUzSmbWXiGOc5d1B3WC6uqE634zFQ5Z8Rkprqi91BG5DZDB1jH0CVfda6vKRt1m3bGvUnI4B4BwOK9eBLnWHfSfOgYP/LSxsX4OAO4k4A0nFMr9puPIrwAcZh1Dnaeq7yUSWrBixeI3rFv2xeSZtVPhONzONgUooFD3/1oSO6+dP+0czw+ySneXzqwdGxC5DfwWLukosH7zpq3HPFF+7g7rln2VssN5KDTyTMdx/mbdQbujMdeVGxob65+wLvGTcPj0rwCBm0QwzLqF9tm/VNtGxWLLUvLjvZKKuutE5GbrDuokxQZX9fqqLTUPcMvFrlcyfdEIBPRXInKWdQvthutOq5wyaoZ1xv5I2eEcACKR3L8CMt66g/ZEY4D8Ohqtfxh8k77fhg3LHRcI4Bf81iI1qeo613VHNTUtecW65UCUVNSVi8jPrTuo8xSIIZH44eyphc9Zt/hB8aznCxwN/AQiY61baA8Ub66XbV96qnR8q3XK/kjp4XzXIStNXG+b/FT1VRGZ7rofzm1sbNxu3ZMiAuFw7oUiuAaQk61jaL9tUNXCWKyh2TqkK5TMrLtFHLnWuoP2jSrqVOI/ryo9s866JdUUFVUHeuYOPj/gYCrA5bSpIJFIfHXO1MJHrTv2V0oP5wAQDufdKYJp1h3UOarYAugD8bj7u+bmJause5LRsccO79+nT+Y3RFAmgmOse+hA6AeJhFvY1LSkybqkK02eWTcDjkyx7qD9oS+oyp2zy/IfB7fK3KOiWQsOyXSzLoPI90XkCOse6iTF3yrL8sdYZxyIlB/Ojz12eP9+/TJfB3CIdQt1nqoqgFoRnd3SIg+/+mpDSm1z5IWcnJGnBIP4noh8HZAs6x46MKrYDCRGx2JL/mHd4oXJFXV3Q+R71h20fxR4TYG7d8Z3zOaHo5/oODzoxPEQLYHKV0SQYd1EnafQhKobqSorXGHdciBSfjgHgEhk5GWAc591B+0v3QHgUdfFnzdtcheuWbOkxbqou5x44sijevSQiY4jlwL4knUPdZmt8biOWbGi4e/WIR6Skoq6B0RksnUIHQDVVgUeduFWrdmM52rLC+PWSd2tqKg60OuMg/McDRSp4OsCOci6ifaT6l2VZQVXWmccKF8M5wCccDj37yJyknUIHSjdoYpnVOXRnTtbFrz22vKN1kVdLRwe8UXVHhMcR76qqqeLiF/+OSQAgH7ouomzGhtfXGpd4rWioupA5hmD5grkYusWOnCqulGAhyD4y3psr0vVj+k6o6i8pk/P/hjjOM75EHyFA7kPKDbtSOw4zg8/CfLNUBAK5Z7hOLLIuoO6jqqqCBpV5W+uq39z3S2Lmpubt1l37avjj8/tm5GBMxxHRgM6XkROsG4ib6hiWyKROHvFiiWLrVu6y6jymuCR2c5DInKedQt1HYVug2KhQp5VjdfMmXLmq9ZNB6KovDoja8Cg0wAZDQejAYwAwM0kfERdXDV7Sv5vrTu6gm+GcwAIh/Nmi6DYuoM8kwDQDOgyQJe1tzvLmptb/gksb7cO+7SOpSo4BZARjoO8XdsfBq27yGu6I5HQcU1Ni9PuJUFReXVGVvbgxyA4x7qFvKLvq2KRAC+5knhpa8tHLyftkejl5c7E7MIvOIIRAWCEqpwq0AhEelqnkVf05R0vrBsxf/5FCeuSruCr4fyEE0Yc1LNnj3+KyKHWLdRdtB2QVQCaVfWfriuvqiZWO477TmPj0rXwbm915/jjcwdnZLjHOY5zIiAniuiJqgjz7790pC2uq19pbFz8vHWJlaLp1ZlZwcELAIyybqFuoHAVeAvASoi7UhQrXXHfbE/I2+9vxZruWLtefPszh7o9eh4lcI4MCL4IaI4CXwLkBBFken1/Sg6qGo+77inzphZGrVu6iq+GcwAIh3MvFpEHrTsoGWi7Kt4D8D4gG0X0A1X5QFU/cBzsUMVOEd2pKi2AtKm6AREJiCDouhIQ0SxABgAYAGh/AAMBOVxEjwDkcPBtOAFQRSvgTojFFj9r3WKtqLymT1a2sxAip1m3kCGFq9C1AlmnohuhskFUN6pgK1S2A+52VWeHiLaIQFVcVxOOK46qQHpA0QuCXq5qLxHJEki2Qg8GcBAgB0FwqECPBKSX9f9UsqfATbNL839i3dGVfDecA0AkkvsowPWPROQtVW0T0Qui0cV/tW5JFufPqBnQz3Ge5wf6ROQ9fWU9tkf89vGyYx3ghZYWXAFgq3UHEflaXMS9mIP5f3p0auGW9nb3LAV8cSIqESUnBTSeSHzHb4M54NPh/NVXG9a6rv7QuoOIfCsBYGI0uiRlj4f20p9+WLjRTWCsQnkKMBF5RO+aO/XMBusKL/hyOAeAxsaG36tqjXUHEfmLqrqJBEqi0fr51i3JbM7U/H9B20ar4h3rFiLyF1W807LJvd66wyu+Hc4BQCTxLXB5CxF1kY699/XbTU3186xbUsHssrHvxKFjAH3fuoWIfELhAu435pcXpty5J53l6+E8Gn1xteu637PuICLf+H40uviP1hGpZF5ZweuuumMV+oF1CxGlPhfurbPLRvl6ZYSvh3MAaGxc/KCq/tG6g4hSm6pbGos13GvdkYqqygpXiCbOVsWH1i1ElLoUuuzdzfoz6w6v+X44B4B4fMtVAF637iCiVKU/isUW/8a6IpVVlp25HEh8GQU1NXMAABN7SURBVMAO6xYiSkGKjwTxid1xwJW1tBjOm5ubt8XjOrHjNEkios5T1Z9Fow23W3f4weyywvqE654PVd9tfUZE3nLh/qCydPQb1h3dIS2GcwBYsaLh7wB8dYIUEXlNb4rFGn5lXeEnc6aMWqiQi1XV92+/iKiLqM6tKhtVZZ3RXdJmOAeAaLThDkAXWncQUfJT1RnRaAP/QO+B2WX5jwGY3LHrAhHRHijejMv2K6wzulNaDecAdMeOnRMBfds6hIiSl6reE4s1TLPu8LPZZQXzAP2+dQcRJbUdqvjq3NLxafUxeboN53jtteUbXTdxAaAt1i1ElIy0MhZrSKu3NFYqywru42nORLQ7ria+PXtKfqN1R3dLu+EcABobX3xZVS+37iCipDM/Gm34NgC1DkkXVVMK7lTVX1h3EFFyUdU7qsoKH7TusJCWwzkAxGKLqwC3wrqDiJKDKv4ajbZMApCwbkk3s8sKyl3FDOsOIkoSir+11K+7zjrDilgHGAtGInnPASiwDiEiO6pas3Xre+NXr16907olnZVU1N4v4nzHuoOIDKmu1u3tJ8/+8Zi0PVU4bd+c7xLftm17kSretQ4hIhuqWBqPb5nAwdze7M21l0ORlj/GJiJAFS3trvvVdB7MASBgHWBt06b3dxx22BE1qpgkIj2te4io+6jqCteVMStWLE+rnQCSVm2tBo887fFDDjnkJBF80TqHiLqRwoUkJs2ZUvi8dYq1dH9zDgCIRhdHAbcIAA/FIEoTqnirrW3nWU1N9ZutW+gTy++7vP2dzYkiVV1k3UJE3UjdH84uLXzIOiMZcDjfJRZb8owquIMLURpQ1XXxeOKslSuX/8u6hf5XbXnhzpaWtglQjVq3EJH3VLWicsoofhS+C4fzT4nF6v+gqr+07iAiL+mHgDuuuXnJKusS2r35143d2qbt56jiDesWIvKOQh+ZvbmGh759Srrv1vKZwuHcB0TkG9YdRNS1VNEK6LhYrKHGuoU6Z/Ksv30BGmyAyCDrFiLqWgpd8s4m98za8kJ+kP8pfHP+GWKxnd8FdKF1BxF1HVV1Vd1JHMxTS2Xp6DfaXfccVfCjXSI/UX0d29rP5WD+vzicf6bl7S0tuFAVy6xLiKjLXNHYuPhh6wjad/OmFkZdN3EeVFutW4jowKnqe24bzk73LRN3h8P5brz6asNHrotzlB8kEaU8Vf1ZLNZwr3UH7b85UwtrXRcTFcoTXIlSmeo6xNvPrLqm4C3rlGTFNed78cUvDj84KyuzDsCXrFuIaN+p6l2xWMOV1h3UNYpn1l7mOM591h1EtO8U+oGqO6qqrHCFdUsy45vzvXjtteUb29tbRwN43bqFiPaNqv45Fmsote6grlM1ZdT9rupPrTuIaB+pbnETchYH873jcN4Jzc0vvR+Pt45W1dXWLUTUOap4JhbbWQzAtW6hrlVVVvBrV8E9kYlShEK3xcUdN2dq/svWLamAw3knrVjx0ruq7WeqYo11CxHt1eING1ouAJa3W4eQN6rK8q8G3D9adxDRXu0QF1+eW1r4onVIquBwvg8aG5e95boo4Bt0ouTV8RH3ti+vXbt8h3ULeUp3vLD+Owp9xDqEiHZD8RFcHVc5pWCRdUoq4XC+j5qa6t8E3DxVfcW6hYj+k6q+sn37jrOi0egW6xby3vz5FyVaNq27BIqnrVuI6L8oNsXVHc3BfN9xt5b9NGTISYf07p31rIhErFuICFDFm0AiPxZb8p51C3WvounVmZmBwU+JoMC6hYgAQN931R3Ljz/3D4fzAxCJRAao9n5KRE6zbiFKb/p2a6sWrFy5+G3rErJRVF7TJzPbeUZERlq3EKUzVbwTh46ZV1bAXe72E5e1HIBoNLolHt8yVlWft24hSleqWJNIyJkczNPb/PLCbQnZPk6hPNmZyIrq60DrGRzMDwzfnHeBo48+ulf//kf8SQTnW7cQpRNVfS8ed0c1Ny9ZZd1CyeH8GTUD+jvOsxA5xbqFKJ2o6j/atX3cn6aMWWfdkuo4nHcdJxIZOR1wyqxDiNKBKt5NJNzCFSsWv2HdQsml6JaF/TMzez4jglOtW4jSgaouaNnsXjy/vHCbdYsfcFlL13Gj0cVTVN1SVeWhJ0Se0rddF6M4mNNnmX/d2K0J2XaWqi62biHyO1Xc3VK/bgIH867DN+ceCIVyJzgO/gRIlnULkQ+9Ho+3jl6x4qV3rUMouRXf/kxv6dnrcYGcad1C5DcKqKj+qLKs4A7rFr/hcO6RoUNzTw4E5AkRDLZuIfILVV0Rj7eNbW5+6X3rFkoNo8preh2ZHZgvgq9YtxD5h+5UuMWzSwsfsi7xo4B1gF+tX//u2oEDj3goEMAYETnUuoco1anqi/G4O7a5eekG6xZKHatrK+PBI0976JBDDxkiwDDrHqJUp8B6JHTc7CmFz1q3+BXfnHssFAr1dpx+DwAosm4hSl361Pr1O7+2du3yHdYllLKkpKJuhojwo32i/aSKpUi0Xzh72mge9uYhDufdJBLJvQaQm8GfVhDtE1VUxWL13wIQt26h1De5YtH1ENxk3UGUahS4fwO2XfVU6fhW6xa/43DejYYNyxsTCOiDgBxk3UKUClwXv25srP+pdQf5S8nMmkshgf8TQYZ1C1GyU0Wbqntl1ZRR91u3pAsO593sxBNHHpWR4Twigv9n3UKUxOKquDwWq/+DdQj5U/Gs5wsEwb8IkG3dQpSsVPU91cSFVVPOXGrdkk44nBvYdaLo70TwTesWomSjis2qiaLGxiV/s24hf7vkjpoTemQ4TwhkiHULUbJR1Zp2bb+EJ352Pw7nhkKhkV93HLkXkH7WLURJYmV7e2JCc/OSVdYhlB4m3vxkdrB3v2oBxli3ECUDVY1D9eezt9TegvJyHqpogMO5sVBoxDEiPeaJyGnWLUS2dMG2bfFLVq1a+qF1CaWXoqLqQNYZg6YDUmrdQmRJoW8l4E6cW1r4onVLOuNwnhyCkUjuL1RxnYg41jFE3UlVVUR+GY3W/xIA39KQmZKZNZeKE7gXAE93pvSjeDAu2y6fWzqeL0iMcThPIuFwbiGAKhE53LqFqDuo6ibXxaVNTQ1PWbcQAcCk6XXDggE8DJHjrFuIuoOqbldXrqyamv9H6xbqwLe0SSQWa6iJx90QoPOsW4i8poqlIonhHMwpmcydVtC0o6XtFADzrVuIvKcvuAk3wsE8ufDNeZIKhXInOI7cA+Aw6xairqSqCuDWWKzhBvBgIUpixTNrLxNxKkSQad1C1JVUdTug188uG/VbAGrdQ/+Jw3kSGzYsLzsQ0JmAlFi3EHWRfyUSKGlqqn/OOoSoMybNeu5LQfR4EJBh1i1EXUFVa+Ju+3fmTR3zpnULfTYO5ylg2LDc8Y6D+7gWnVKZqla3trZf8coryz6wbiHaF+NmLeh5qPb5JYAfQrgclFKTQrcJ9EeVpaPuAd+WJzUO5yni2GOH9+/bt9ctAL7LHV0olajqJgBXxGINf7ZuIToQl1bUjXQElTy0iFKP/rW9Lf6DeT8c/bZ1Ce0dh/MUM3Ro7snBIH4HyCnWLUR7o6oPt7XtvGrlyuX/sm4h6grFtz/T2+nR60Z1cJVAAtY9RHukuhqKssopBY9bp1DncThPTU4kkvcdQG8C5CDrGKL/pqrvua7+oKlp8WPWLURemDSz9pSA49wvQNi6heh/qLYq9LaWxPqb50+7qMU6h/YNh/MUdsIJIw7KyMi4WUS/IyL8taRkkFDVe7Zvj/+YJ32S340qrwkeOdC5GoobRKS3dQ8RACj0KTfuls6ZVrjKuoX2Dwc6H8jJGXlKMCjTRSTPuoXSl6q+EI/LVc3N9THrFqLuNGlWzRFBDdwOwdetWyh9KfAaFD+aXZbPn1imOA7nPjJs2MjzHEduEZETrFsonejaREKuaWqq5+FZlNaKZz1f4CDwG267SN1KdR1Ef/H2Jr2/tryQZ0f4AIdz/wlEInnfVsUvRDDYOob8TD8E9Lb161tnrF27fId1DVFSKC93SgYWfgOKX3L7W/KSQrdBcWfLZveO+eWF26x7qOtwOPepUCjUW6TvNADXiEhf6x7yE21XxT3bt+/41apV/9hgXUOUjIqmV2dmBQZPgei1gPS37iH/UNW4AL9v0/byP00Zs866h7oeh3Of++IXhx+cldVrmiqu5JBOByiu6s5Wjd/Y2LjsLesYolRQctNzB2nv4NUOnCsh4DOYDkS7qlaJxG+qLB39hnUMeYfDeZoYNiwv23F0qoiUAuBbHNoXHMqJDlDJTc8dhD4Z00RxFYd02heqaBPoH1td9+YHpxautu4h73E4TzO7ThotBTBFRAZa91Ay0x2qeEC1/U4O5URdo2j60wMzA5lXCeQHEBxi3UNJTLUVwO9b47j1wasL3rXOoe7D4TxNHX98bt+ePXG54+AqQI607qHkoarrAfy2tbX9d6+8suwD6x4iPyqaXp3ZKzB4sgOdBpHjrHsoeSiwWRT3t+7cWfHgtWette6h7sfhnAKRSN4FgE4F5HTrGLKjipdV9e4PP3xvzurVq3da9xClhfJy59L+BRMCjnOFiowR/r6cthR4Da5boe2tlVXXnL3duofs8CFA/xYOnz4CCEwVwdcABK17yHuq2Cmi1a6b+F1j44tLrXuI0tnEirrjgpDvQfBNAbKte6h7KPCcm8DMOVPzF3T8R0p3HM7pf4RCpx4hErwMkG+K4PPWPdT1Ot6Su5WJhM5pbl6yybqHiD7RseTl0K85cCYDKITAsW6irqXAZkDnqrr3VpUVrrDuoeTC4Zz2xAmFTj/LcQLfVtUJIpJhHUQH5F+AznVdrWxsXMzfDIhSwNfvrPt8z6BcqsBkERxv3UP7TwGFai2A37+z2X2ktryQywfpM3E4p04ZMuSkQ3r3ziwWcb4N4EvWPdQ5qroOwF9UdX5j4+I6AAnrJiLaP5Mrnh+uCHwNgq8JZIh1D3WOqr4nwB/b3fY/zJs65k3rHkp+HM5pn0UiIyOqcjEgF4ngWOse+k+qWAPoY67rzm9qWvICANe6iYi61sQZNZEejvM1BS4QkROte+i/KDYA+nDCdf88Z2vdIpSX8zlMncbhnA7I0KG5JweDuBhAESBHWfekqYSqLgZkQSLRvmDFiqWN1kFE1H2Kb687BhkYL8B4QApFkGndlI4U+gEgjyCRqG5ZvKFm/vyL+JNK2i8czqmrSCh02gggeK6IjgcQERH+/eURVX0VQA2AGteVhU1N9Zutm4jIXtH06sxMOXSUBGQ0VEYBOIkflHpHoasEWADgr29vcp+vLS+MWzdR6uPwRJ448cThh2Vk9DxHxBkPYCyA/tZNqUpVVUReUcULqm5NItFe29z80vvWXUSU/IpuWdi/V1aPfFFnFETzBRIG0MO6K2WptipQB2BBHFgwr6zgdesk8h8O59QdgqFQ7ukiUgDoGQBOF5G+1lHJSlXXiWCp62Kpqizbvr3lpTffXL7VuouIUt+o8ppeR2Q7/09ERjiKU1X0VIEcY92VrFTRJoKXVPUFuLpo89aP6p4oP3eHdRf5G4dzshAYNiwvEgjoGao4A5CRIhhsHdXdVLWt4424Noloo+tqowiaYrEl71m3EVH6KLnpuYPczMAwEQmJYBhEQlDkiEhv67Zup7pFgWUieAEuFr29xV3GLQ+pu3E4p6SQk3PK4EAgGBEJRACNAHISoENEJKXXSnYsScG7qlgF4HVVrFLV11038Xpzc/x1YHm7dSMR0f8oL3cmDzzjmIQ6xzmQ40RkiALHATgOiqNFxAenSOu7CvxDXImquNE2V//x4NTC1dZVRBzOKWmFQqHeQNbxjhP8guvqEBF8AcAXAPkCoIdbD+6q+hGAD0SwAcDaji0MZQ3grhFx1rS3J9a0tm54d9WqVa2WnUREXWlUeU3wc33cwyUgRwQkcIQCRzjAEXDkcIUeAeAQURysIv3Fes5QXafAG4C8AegbUPcNqLzRojtfnT/tHJ6OTEmJwzmlpJycnIxAoM+hIs4hAA4F5NP/mi2CXqrSE9CeHf8ePQHpCagLIC6CuKokAMQ//s+AtrmubBfRbYBuB5xtItgGuNtdFx+JyCbXdTe2tTkfBINbNjY3N7dZ/n9ARJTMRpXXBD/fu22g2zNwsMSDB0H0oIA4/eBob3WdPhDtLYI+CvSBSm8AvQANCBBUQVAUQRUEoAiKSEBV2wTSqtBWCHYq0CqQVqhuVegGuM56BTaouOsTqhu2b922nuvDiYiIiIiIiIiIiIiIiIiIiIiIiIiIiIiIiIiIiIiIiIiIiIiIiIiIiIiIiIiIiIiIiIiIiIiIiIiIiIiIiIiIiIiIiIiIiIiIiIiIiIiIiIiIiIiIiIiIiIiIiIiIiIiIiIiIiIiIiIiIiIiIiIiIiIiIiIiIiIiIiIiIiIiIiIiIiIiIiIiIiIiIiIiIiIiIiIiIiIiIiIiIiIiIiIiIiIiIiIiIiIiIiIiIiIiIiIiIiIiIiIiIiIiIiIiIiIiIiIiIiIiIiIiIiIiIiIiIiIiIiIiIiIiIiIiIiIiIiIiIiIiIiIiIiIiIiIiIiIiIiIiIiIiIiIiIiIiIiIiIiIiIiIiIiIiIiIiIiIiIiIiIiIiIiIiIiIiIiIiIiIiIiIiIiIiIiIiIiIiIiIiIiIiIutn/BwA1qSuFojpmAAAAAElFTkSuQmCC;" parent="1" vertex="1">
                        <mxGeometry x="610" y="783.11" width="91" height="53.78" as="geometry"/>
                    </mxCell>
                </UserObject>
                <UserObject label="pipeline-repo" id="FvHIyR7vi8E8eyAL5Enl-13">
                    <mxCell style="verticalLabelPosition=bottom;html=1;verticalAlign=top;align=center;strokeColor=none;fillColor=#00BEF2;shape=mxgraph.azure.git_repository;labelBackgroundColor=none;" parent="1" vertex="1">
                        <mxGeometry x="470" y="790" width="40" height="40" as="geometry"/>
                    </mxCell>
                </UserObject>
                <mxCell id="FvHIyR7vi8E8eyAL5Enl-14" value="triggers" style="edgeStyle=orthogonalEdgeStyle;rounded=0;orthogonalLoop=1;jettySize=auto;html=1;labelBackgroundColor=none;strokeColor=#F89D1C;" parent="1" edge="1">
                    <mxGeometry y="10" relative="1" as="geometry">
                        <mxPoint as="offset"/>
                        <mxPoint x="520" y="809.6100000000001" as="sourcePoint"/>
                        <mxPoint x="610" y="810" as="targetPoint"/>
                        <Array as="points">
                            <mxPoint x="590" y="810"/>
                            <mxPoint x="590" y="810"/>
                        </Array>
                    </mxGeometry>
                </mxCell>
                <mxCell id="FvHIyR7vi8E8eyAL5Enl-15" style="edgeStyle=orthogonalEdgeStyle;rounded=0;orthogonalLoop=1;jettySize=auto;html=1;labelBackgroundColor=none;strokeColor=#F89D1C;entryX=0.003;entryY=0.713;entryDx=0;entryDy=0;entryPerimeter=0;" parent="1" source="FvHIyR7vi8E8eyAL5Enl-12" edge="1" target="D69IxyFNtBpLVOCJYwym-7">
                    <mxGeometry relative="1" as="geometry">
                        <Array as="points"/>
                        <mxPoint x="802.681818181818" y="760.0000000000002" as="targetPoint"/>
                    </mxGeometry>
                </mxCell>
                <UserObject label="&lt;b&gt;feature-module&lt;/b&gt;" id="FvHIyR7vi8E8eyAL5Enl-19">
                    <mxCell style="verticalLabelPosition=bottom;html=1;verticalAlign=top;align=center;strokeColor=none;fillColor=#00BEF2;shape=mxgraph.azure.git_repository;labelBackgroundColor=none;" parent="1" vertex="1">
                        <mxGeometry x="320" y="840" width="40" height="40" as="geometry"/>
                    </mxCell>
                </UserObject>
                <UserObject label="&lt;b&gt;terraform-aws-lambda&lt;/b&gt;" id="FvHIyR7vi8E8eyAL5Enl-29">
                    <mxCell style="verticalLabelPosition=bottom;html=1;verticalAlign=top;align=center;strokeColor=none;fillColor=#00BEF2;shape=mxgraph.azure.git_repository;labelBackgroundColor=none;" parent="1" vertex="1">
                        <mxGeometry x="220" y="690" width="40" height="40" as="geometry"/>
                    </mxCell>
                </UserObject>
                <mxCell id="FvHIyR7vi8E8eyAL5Enl-30" value="" style="edgeStyle=orthogonalEdgeStyle;rounded=0;orthogonalLoop=1;jettySize=auto;html=1;entryX=1;entryY=0.5;entryDx=0;entryDy=0;entryPerimeter=0;labelBackgroundColor=none;strokeColor=#9933FF;align=left;exitX=0.24;exitY=0.24;exitDx=0;exitDy=0;exitPerimeter=0;" parent="1" source="FvHIyR7vi8E8eyAL5Enl-13" target="FvHIyR7vi8E8eyAL5Enl-29" edge="1">
                    <mxGeometry x="0.5159" y="-10" relative="1" as="geometry">
                        <mxPoint x="480" y="820" as="sourcePoint"/>
                        <mxPoint x="350" y="755" as="targetPoint"/>
                        <mxPoint as="offset"/>
                        <Array as="points">
                            <mxPoint x="420" y="800"/>
                            <mxPoint x="420" y="710"/>
                        </Array>
                    </mxGeometry>
                </mxCell>
                <mxCell id="D69IxyFNtBpLVOCJYwym-1" value="" style="edgeStyle=orthogonalEdgeStyle;rounded=0;orthogonalLoop=1;jettySize=auto;html=1;entryX=0.76;entryY=0.76;entryDx=0;entryDy=0;entryPerimeter=0;labelBackgroundColor=none;strokeColor=#9933FF;align=left;exitX=0.5;exitY=0;exitDx=0;exitDy=0;exitPerimeter=0;" edge="1" parent="1" source="FvHIyR7vi8E8eyAL5Enl-19" target="FvHIyR7vi8E8eyAL5Enl-29">
                    <mxGeometry x="0.7895" y="-10" relative="1" as="geometry">
                        <mxPoint x="320" y="840" as="sourcePoint"/>
                        <mxPoint x="350" y="870" as="targetPoint"/>
                        <mxPoint as="offset"/>
                        <Array as="points">
                            <mxPoint x="340" y="720"/>
                        </Array>
                    </mxGeometry>
                </mxCell>
                <mxCell id="D69IxyFNtBpLVOCJYwym-7" value="terraform-aws-lambda resources" style="fillColor=#EFF0F3;strokeColor=none;dashed=0;verticalAlign=top;fontStyle=1;fontColor=#232F3D;whiteSpace=wrap;html=1;opacity=70;align=left;" vertex="1" parent="1">
                    <mxGeometry x="770" y="500" width="420" height="430" as="geometry"/>
                </mxCell>
                <mxCell id="D69IxyFNtBpLVOCJYwym-2" value="Region" style="points=[[0,0],[0.25,0],[0.5,0],[0.75,0],[1,0],[1,0.25],[1,0.5],[1,0.75],[1,1],[0.75,1],[0.5,1],[0.25,1],[0,1],[0,0.75],[0,0.5],[0,0.25]];outlineConnect=0;gradientColor=none;html=1;whiteSpace=wrap;fontSize=12;fontStyle=0;container=1;pointerEvents=0;collapsible=0;recursiveResize=0;shape=mxgraph.aws4.group;grIcon=mxgraph.aws4.group_region;strokeColor=#00A4A6;fillColor=none;verticalAlign=top;align=left;spacingLeft=30;fontColor=#147EBA;dashed=1;" vertex="1" parent="1">
                    <mxGeometry x="780" y="603.11" width="400" height="316.89" as="geometry"/>
                </mxCell>
                <mxCell id="D69IxyFNtBpLVOCJYwym-4" value="VPC Optional" style="points=[[0,0],[0.25,0],[0.5,0],[0.75,0],[1,0],[1,0.25],[1,0.5],[1,0.75],[1,1],[0.75,1],[0.5,1],[0.25,1],[0,1],[0,0.75],[0,0.5],[0,0.25]];outlineConnect=0;gradientColor=none;html=1;whiteSpace=wrap;fontSize=12;fontStyle=0;container=1;pointerEvents=0;collapsible=0;recursiveResize=0;shape=mxgraph.aws4.group;grIcon=mxgraph.aws4.group_vpc2;strokeColor=#8C4FFF;fillColor=none;verticalAlign=top;align=left;spacingLeft=30;fontColor=#AAB7B8;dashed=0;" vertex="1" parent="D69IxyFNtBpLVOCJYwym-2">
                    <mxGeometry x="190" y="26.889999999999986" width="200" height="180" as="geometry"/>
                </mxCell>
                <mxCell id="D69IxyFNtBpLVOCJYwym-3" value="Security group (optional)" style="fillColor=none;strokeColor=#DD3522;verticalAlign=top;fontStyle=0;fontColor=#DD3522;whiteSpace=wrap;html=1;" vertex="1" parent="D69IxyFNtBpLVOCJYwym-4">
                    <mxGeometry x="20.5" y="30" width="159.5" height="130" as="geometry"/>
                </mxCell>
                <mxCell id="D69IxyFNtBpLVOCJYwym-5" value="" style="sketch=0;points=[[0,0,0],[0.25,0,0],[0.5,0,0],[0.75,0,0],[1,0,0],[0,1,0],[0.25,1,0],[0.5,1,0],[0.75,1,0],[1,1,0],[0,0.25,0],[0,0.5,0],[0,0.75,0],[1,0.25,0],[1,0.5,0],[1,0.75,0]];outlineConnect=0;fontColor=#232F3E;fillColor=#ED7100;strokeColor=#ffffff;dashed=0;verticalLabelPosition=bottom;verticalAlign=top;align=center;html=1;fontSize=12;fontStyle=0;aspect=fixed;shape=mxgraph.aws4.resourceIcon;resIcon=mxgraph.aws4.lambda;" vertex="1" parent="D69IxyFNtBpLVOCJYwym-4">
                    <mxGeometry x="70" y="65" width="60" height="60" as="geometry"/>
                </mxCell>
                <mxCell id="D69IxyFNtBpLVOCJYwym-8" value="invoke" style="edgeStyle=orthogonalEdgeStyle;rounded=0;orthogonalLoop=1;jettySize=auto;html=1;labelBackgroundColor=none;exitX=1.014;exitY=0.205;exitDx=0;exitDy=0;exitPerimeter=0;" edge="1" parent="1" source="D69IxyFNtBpLVOCJYwym-6" target="D69IxyFNtBpLVOCJYwym-5">
                    <mxGeometry x="-0.6334" y="10" relative="1" as="geometry">
                        <Array as="points">
                            <mxPoint x="932" y="720"/>
                        </Array>
                        <mxPoint as="offset"/>
                    </mxGeometry>
                </mxCell>
                <mxCell id="D69IxyFNtBpLVOCJYwym-6" value="Triggers" style="fillColor=none;strokeColor=#5A6C86;dashed=1;verticalAlign=top;fontStyle=0;fontColor=#5A6C86;whiteSpace=wrap;html=1;" vertex="1" parent="1">
                    <mxGeometry x="800" y="640" width="130" height="400" as="geometry"/>
                </mxCell>
                <mxCell id="D69IxyFNtBpLVOCJYwym-9" value="Existing Lambda Execution Role" style="sketch=0;outlineConnect=0;fontColor=#232F3E;gradientColor=none;fillColor=#DD344C;strokeColor=none;dashed=0;verticalLabelPosition=bottom;verticalAlign=top;align=center;html=1;fontSize=12;fontStyle=0;aspect=fixed;pointerEvents=1;shape=mxgraph.aws4.role;" vertex="1" parent="1">
                    <mxGeometry x="1060" y="420" width="60" height="33.85" as="geometry"/>
                </mxCell>
                <mxCell id="D69IxyFNtBpLVOCJYwym-10" value="New Lambda Execution Role" style="sketch=0;outlineConnect=0;fontColor=#232F3E;gradientColor=none;fillColor=#DD344C;strokeColor=none;dashed=0;verticalLabelPosition=bottom;verticalAlign=top;align=center;html=1;fontSize=12;fontStyle=0;aspect=fixed;pointerEvents=1;shape=mxgraph.aws4.role;" vertex="1" parent="1">
                    <mxGeometry x="1060" y="530" width="60" height="33.85" as="geometry"/>
                </mxCell>
                <mxCell id="D69IxyFNtBpLVOCJYwym-13" value="Option 2" style="edgeStyle=orthogonalEdgeStyle;rounded=0;orthogonalLoop=1;jettySize=auto;html=1;labelBackgroundColor=none;exitX=1;exitY=0.75;exitDx=0;exitDy=0;exitPerimeter=0;" edge="1" parent="1" source="D69IxyFNtBpLVOCJYwym-5" target="D69IxyFNtBpLVOCJYwym-9">
                    <mxGeometry x="0.7685" y="-7" relative="1" as="geometry">
                        <mxPoint x="1110" y="729.71" as="sourcePoint"/>
                        <mxPoint x="1129" y="557" as="targetPoint"/>
                        <Array as="points">
                            <mxPoint x="1220" y="740"/>
                            <mxPoint x="1220" y="437"/>
                        </Array>
                        <mxPoint as="offset"/>
                    </mxGeometry>
                </mxCell>
                <mxCell id="D69IxyFNtBpLVOCJYwym-12" value="Option 1" style="edgeStyle=orthogonalEdgeStyle;rounded=0;orthogonalLoop=1;jettySize=auto;html=1;labelBackgroundColor=none;exitX=1;exitY=0.5;exitDx=0;exitDy=0;exitPerimeter=0;" edge="1" parent="1" source="D69IxyFNtBpLVOCJYwym-5" target="D69IxyFNtBpLVOCJYwym-10">
                    <mxGeometry x="0.7289" y="-7" relative="1" as="geometry">
                        <mxPoint x="1100" y="719.71" as="sourcePoint"/>
                        <mxPoint x="1210" y="719.71" as="targetPoint"/>
                        <Array as="points">
                            <mxPoint x="1210" y="725"/>
                            <mxPoint x="1210" y="547"/>
                        </Array>
                        <mxPoint as="offset"/>
                    </mxGeometry>
                </mxCell>
                <mxCell id="D69IxyFNtBpLVOCJYwym-14" value="Existing KMS CMK&amp;nbsp;&lt;div&gt;(optional)&lt;/div&gt;" style="sketch=0;outlineConnect=0;fontColor=#232F3E;gradientColor=none;fillColor=#DD344C;strokeColor=none;dashed=0;verticalLabelPosition=bottom;verticalAlign=top;align=center;html=1;fontSize=12;fontStyle=0;aspect=fixed;pointerEvents=1;shape=mxgraph.aws4.data_encryption_key;" vertex="1" parent="1">
                    <mxGeometry x="990" y="950" width="47.69" height="60" as="geometry"/>
                </mxCell>
                <mxCell id="D69IxyFNtBpLVOCJYwym-15" value="CloudWatch LogGroup" style="sketch=0;points=[[0,0,0],[0.25,0,0],[0.5,0,0],[0.75,0,0],[1,0,0],[0,1,0],[0.25,1,0],[0.5,1,0],[0.75,1,0],[1,1,0],[0,0.25,0],[0,0.5,0],[0,0.75,0],[1,0.25,0],[1,0.5,0],[1,0.75,0]];points=[[0,0,0],[0.25,0,0],[0.5,0,0],[0.75,0,0],[1,0,0],[0,1,0],[0.25,1,0],[0.5,1,0],[0.75,1,0],[1,1,0],[0,0.25,0],[0,0.5,0],[0,0.75,0],[1,0.25,0],[1,0.5,0],[1,0.75,0]];outlineConnect=0;fontColor=#232F3E;fillColor=#E7157B;strokeColor=#ffffff;dashed=0;verticalLabelPosition=bottom;verticalAlign=top;align=center;html=1;fontSize=12;fontStyle=0;aspect=fixed;shape=mxgraph.aws4.resourceIcon;resIcon=mxgraph.aws4.cloudwatch_2;" vertex="1" parent="1">
                    <mxGeometry x="1070" y="820" width="60" height="60" as="geometry"/>
                </mxCell>
                <mxCell id="D69IxyFNtBpLVOCJYwym-16" value="SQS" style="sketch=0;points=[[0,0,0],[0.25,0,0],[0.5,0,0],[0.75,0,0],[1,0,0],[0,1,0],[0.25,1,0],[0.5,1,0],[0.75,1,0],[1,1,0],[0,0.25,0],[0,0.5,0],[0,0.75,0],[1,0.25,0],[1,0.5,0],[1,0.75,0]];outlineConnect=0;fontColor=#232F3E;fillColor=#E7157B;strokeColor=#ffffff;dashed=0;verticalLabelPosition=bottom;verticalAlign=top;align=center;html=1;fontSize=12;fontStyle=0;aspect=fixed;shape=mxgraph.aws4.resourceIcon;resIcon=mxgraph.aws4.sqs;" vertex="1" parent="1">
                    <mxGeometry x="835" y="820" width="60" height="60" as="geometry"/>
                </mxCell>
                <mxCell id="D69IxyFNtBpLVOCJYwym-17" value="EventRule" style="sketch=0;points=[[0,0,0],[0.25,0,0],[0.5,0,0],[0.75,0,0],[1,0,0],[0,1,0],[0.25,1,0],[0.5,1,0],[0.75,1,0],[1,1,0],[0,0.25,0],[0,0.5,0],[0,0.75,0],[1,0.25,0],[1,0.5,0],[1,0.75,0]];outlineConnect=0;fontColor=#232F3E;fillColor=#E7157B;strokeColor=#ffffff;dashed=0;verticalLabelPosition=bottom;verticalAlign=top;align=center;html=1;fontSize=12;fontStyle=0;aspect=fixed;shape=mxgraph.aws4.resourceIcon;resIcon=mxgraph.aws4.eventbridge;" vertex="1" parent="1">
                    <mxGeometry x="835" y="680" width="60" height="60" as="geometry"/>
                </mxCell>
                <mxCell id="D69IxyFNtBpLVOCJYwym-18" value="" style="edgeStyle=orthogonalEdgeStyle;rounded=0;orthogonalLoop=1;jettySize=auto;html=1;labelBackgroundColor=none;entryX=1;entryY=0.5;entryDx=0;entryDy=0;entryPerimeter=0;" edge="1" parent="1" source="D69IxyFNtBpLVOCJYwym-14" target="D69IxyFNtBpLVOCJYwym-16">
                    <mxGeometry relative="1" as="geometry">
                        <mxPoint x="1110" y="750" as="sourcePoint"/>
                        <mxPoint x="895" y="840" as="targetPoint"/>
                        <Array as="points">
                            <mxPoint x="1000" y="850"/>
                        </Array>
                    </mxGeometry>
                </mxCell>
                <mxCell id="D69IxyFNtBpLVOCJYwym-19" value="" style="edgeStyle=orthogonalEdgeStyle;rounded=0;orthogonalLoop=1;jettySize=auto;html=1;labelBackgroundColor=none;entryX=0;entryY=0.5;entryDx=0;entryDy=0;entryPerimeter=0;" edge="1" parent="1" source="D69IxyFNtBpLVOCJYwym-14" target="D69IxyFNtBpLVOCJYwym-15">
                    <mxGeometry relative="1" as="geometry">
                        <mxPoint x="1000" y="990" as="sourcePoint"/>
                        <mxPoint x="905" y="850" as="targetPoint"/>
                        <Array as="points">
                            <mxPoint x="1020" y="850"/>
                        </Array>
                    </mxGeometry>
                </mxCell>
                <mxCell id="D69IxyFNtBpLVOCJYwym-20" value="" style="sketch=0;points=[[0,0,0],[0.25,0,0],[0.5,0,0],[0.75,0,0],[1,0,0],[0,1,0],[0.25,1,0],[0.5,1,0],[0.75,1,0],[1,1,0],[0,0.25,0],[0,0.5,0],[0,0.75,0],[1,0.25,0],[1,0.5,0],[1,0.75,0]];outlineConnect=0;fontColor=#232F3E;fillColor=#7AA116;strokeColor=#ffffff;dashed=0;verticalLabelPosition=bottom;verticalAlign=top;align=center;html=1;fontSize=12;fontStyle=0;aspect=fixed;shape=mxgraph.aws4.resourceIcon;resIcon=mxgraph.aws4.s3;" vertex="1" parent="1">
                    <mxGeometry x="817" y="941" width="40" height="40" as="geometry"/>
                </mxCell>
                <mxCell id="D69IxyFNtBpLVOCJYwym-21" value="API GW" style="sketch=0;points=[[0,0,0],[0.25,0,0],[0.5,0,0],[0.75,0,0],[1,0,0],[0,1,0],[0.25,1,0],[0.5,1,0],[0.75,1,0],[1,1,0],[0,0.25,0],[0,0.5,0],[0,0.75,0],[1,0.25,0],[1,0.5,0],[1,0.75,0]];outlineConnect=0;fontColor=#232F3E;fillColor=#E7157B;strokeColor=#ffffff;dashed=0;verticalLabelPosition=bottom;verticalAlign=top;align=center;html=1;fontSize=12;fontStyle=0;aspect=fixed;shape=mxgraph.aws4.resourceIcon;resIcon=mxgraph.aws4.api_gateway;" vertex="1" parent="1">
                    <mxGeometry x="870" y="962" width="40" height="40" as="geometry"/>
                </mxCell>
            </root>
        </mxGraphModel>
    </diagram>
    <diagram id="aMEAGwJy28AW5wLAO1pR" name="Workflow">
        <mxGraphModel dx="358" dy="907" grid="1" gridSize="10" guides="1" tooltips="1" connect="1" arrows="1" fold="1" page="1" pageScale="1" pageWidth="1654" pageHeight="1169" math="0" shadow="0">
            <root>
                <mxCell id="0"/>
                <mxCell id="1" parent="0"/>
                <mxCell id="jtLlMTJgqhqr8NrwFMSb-36" value="Nuvibit" style="points=[[0,0],[0.25,0],[0.5,0],[0.75,0],[1,0],[1,0.25],[1,0.5],[1,0.75],[1,1],[0.75,1],[0.5,1],[0.25,1],[0,1],[0,0.75],[0,0.5],[0,0.25]];outlineConnect=0;gradientColor=none;html=1;whiteSpace=wrap;fontSize=12;fontStyle=0;container=1;pointerEvents=0;collapsible=0;recursiveResize=0;shape=mxgraph.aws4.group;grIcon=mxgraph.aws4.group_corporate_data_center;strokeColor=#7D8998;fillColor=none;verticalAlign=top;align=left;spacingLeft=30;fontColor=#5A6C86;dashed=0;" parent="1" vertex="1">
                    <mxGeometry x="2120" y="420" width="1280" height="980" as="geometry"/>
                </mxCell>
                <mxCell id="6cMvZ2hwRAPNSA1tBTO--6" value="&lt;span&gt;Customer AWS Organization&lt;br&gt;Sore Security Account - SEMPER Core&lt;br&gt;&lt;/span&gt;" style="points=[[0,0],[0.25,0],[0.5,0],[0.75,0],[1,0],[1,0.25],[1,0.5],[1,0.75],[1,1],[0.75,1],[0.5,1],[0.25,1],[0,1],[0,0.75],[0,0.5],[0,0.25]];outlineConnect=0;html=1;whiteSpace=wrap;fontSize=12;fontStyle=0;shape=mxgraph.aws4.group;grIcon=mxgraph.aws4.group_aws_cloud_alt;verticalAlign=top;align=left;spacingLeft=30;dashed=0;fillColor=#dae8fc;strokeColor=#6c8ebf;opacity=60;flipV=0;flipH=0;container=0;" parent="1" vertex="1">
                    <mxGeometry x="1438.83" y="480" width="600" height="880" as="geometry"/>
                </mxCell>
                <mxCell id="jtLlMTJgqhqr8NrwFMSb-30" value="SEMPER Resources" style="fillColor=#EFF0F3;strokeColor=default;dashed=1;verticalAlign=top;fontStyle=0;fontColor=#232F3D;whiteSpace=wrap;html=1;opacity=60;flipV=0;flipH=0;container=0;" parent="1" vertex="1">
                    <mxGeometry x="1457.83" y="530" width="560" height="550" as="geometry"/>
                </mxCell>
                <mxCell id="6cMvZ2hwRAPNSA1tBTO--1" value="Nuvibit&amp;nbsp;&lt;span&gt;Chatbot Backend Account&lt;br&gt;&lt;/span&gt;" style="points=[[0,0],[0.25,0],[0.5,0],[0.75,0],[1,0],[1,0.25],[1,0.5],[1,0.75],[1,1],[0.75,1],[0.5,1],[0.25,1],[0,1],[0,0.75],[0,0.5],[0,0.25]];outlineConnect=0;html=1;whiteSpace=wrap;fontSize=12;fontStyle=0;shape=mxgraph.aws4.group;grIcon=mxgraph.aws4.group_aws_cloud_alt;verticalAlign=top;align=left;spacingLeft=30;dashed=0;fillColor=#dae8fc;strokeColor=#6c8ebf;opacity=60;flipV=0;flipH=0;container=0;" parent="1" vertex="1">
                    <mxGeometry x="2160" y="480" width="960" height="640" as="geometry"/>
                </mxCell>
                <mxCell id="6cMvZ2hwRAPNSA1tBTO--11" value="Chatbot Backend Resources" style="fillColor=#EFF0F3;strokeColor=default;dashed=1;verticalAlign=top;fontStyle=0;fontColor=#232F3D;whiteSpace=wrap;html=1;opacity=60;flipV=0;flipH=0;container=0;" parent="1" vertex="1">
                    <mxGeometry x="2200" y="560" width="880" height="521.5" as="geometry"/>
                </mxCell>
                <mxCell id="6cMvZ2hwRAPNSA1tBTO--12" value="context-bucket&lt;br&gt;\10_input&lt;br&gt;\20_processed&lt;br&gt;\30_instructions" style="sketch=0;points=[[0,0,0],[0.25,0,0],[0.5,0,0],[0.75,0,0],[1,0,0],[0,1,0],[0.25,1,0],[0.5,1,0],[0.75,1,0],[1,1,0],[0,0.25,0],[0,0.5,0],[0,0.75,0],[1,0.25,0],[1,0.5,0],[1,0.75,0]];outlineConnect=0;fontColor=#232F3E;fillColor=#7AA116;strokeColor=#ffffff;dashed=0;verticalLabelPosition=bottom;verticalAlign=top;align=center;html=1;fontSize=12;fontStyle=0;aspect=fixed;shape=mxgraph.aws4.resourceIcon;resIcon=mxgraph.aws4.s3;flipV=0;flipH=0;container=0;" parent="1" vertex="1">
                    <mxGeometry x="2850" y="841.5" width="70" height="70" as="geometry"/>
                </mxCell>
                <mxCell id="6cMvZ2hwRAPNSA1tBTO--13" value="Vector DB" style="sketch=0;points=[[0,0,0],[0.25,0,0],[0.5,0,0],[0.75,0,0],[1,0,0],[0,1,0],[0.25,1,0],[0.5,1,0],[0.75,1,0],[1,1,0],[0,0.25,0],[0,0.5,0],[0,0.75,0],[1,0.25,0],[1,0.5,0],[1,0.75,0]];outlineConnect=0;fontColor=#232F3E;fillColor=#ED7100;strokeColor=#ffffff;dashed=0;verticalLabelPosition=bottom;verticalAlign=top;align=center;html=1;fontSize=12;fontStyle=0;aspect=fixed;shape=mxgraph.aws4.resourceIcon;resIcon=mxgraph.aws4.ec2;flipV=0;flipH=0;container=0;" parent="1" vertex="1">
                    <mxGeometry x="2610" y="801.5" width="70" height="70" as="geometry"/>
                </mxCell>
                <mxCell id="6cMvZ2hwRAPNSA1tBTO--23" value="\20_processed&lt;br&gt;\30_instructions" style="edgeStyle=orthogonalEdgeStyle;rounded=0;orthogonalLoop=1;jettySize=auto;html=1;fillColor=#1ba1e2;strokeColor=#006EAF;align=left;" parent="1" source="6cMvZ2hwRAPNSA1tBTO--14" target="6cMvZ2hwRAPNSA1tBTO--12" edge="1">
                    <mxGeometry x="-0.1031" y="10" relative="1" as="geometry">
                        <Array as="points">
                            <mxPoint x="3060" y="716.5"/>
                            <mxPoint x="3060" y="876.5"/>
                        </Array>
                        <mxPoint as="offset"/>
                    </mxGeometry>
                </mxCell>
                <mxCell id="6cMvZ2hwRAPNSA1tBTO--14" value="10-prepare-data" style="sketch=0;points=[[0,0,0],[0.25,0,0],[0.5,0,0],[0.75,0,0],[1,0,0],[0,1,0],[0.25,1,0],[0.5,1,0],[0.75,1,0],[1,1,0],[0,0.25,0],[0,0.5,0],[0,0.75,0],[1,0.25,0],[1,0.5,0],[1,0.75,0]];outlineConnect=0;fontColor=#232F3E;fillColor=#ED7100;strokeColor=#ffffff;dashed=0;verticalLabelPosition=bottom;verticalAlign=top;align=center;html=1;fontSize=12;fontStyle=0;aspect=fixed;shape=mxgraph.aws4.resourceIcon;resIcon=mxgraph.aws4.lambda;flipV=0;flipH=0;container=0;" parent="1" vertex="1">
                    <mxGeometry x="2970" y="681.5" width="70" height="70" as="geometry"/>
                </mxCell>
                <mxCell id="W5PPzOMBdSXC3b5csPom-1" value="\10_input" style="edgeStyle=orthogonalEdgeStyle;rounded=0;orthogonalLoop=1;jettySize=auto;html=1;fillColor=#1ba1e2;strokeColor=#006EAF;align=left;" parent="1" source="6cMvZ2hwRAPNSA1tBTO--12" target="6cMvZ2hwRAPNSA1tBTO--14" edge="1">
                    <mxGeometry x="-0.3351" y="-10" relative="1" as="geometry">
                        <Array as="points">
                            <mxPoint x="2930" y="851.5"/>
                            <mxPoint x="2930" y="716.5"/>
                        </Array>
                        <mxPoint y="1" as="offset"/>
                    </mxGeometry>
                </mxCell>
                <mxCell id="6cMvZ2hwRAPNSA1tBTO--26" value="(2)" style="edgeStyle=orthogonalEdgeStyle;rounded=0;orthogonalLoop=1;jettySize=auto;html=1;entryX=0.75;entryY=0;entryDx=0;entryDy=0;entryPerimeter=0;exitX=0;exitY=0.5;exitDx=0;exitDy=0;exitPerimeter=0;fillColor=#1ba1e2;strokeColor=#006EAF;" parent="1" source="6cMvZ2hwRAPNSA1tBTO--15" target="6cMvZ2hwRAPNSA1tBTO--13" edge="1">
                    <mxGeometry x="-0.3443" y="-5" relative="1" as="geometry">
                        <Array as="points">
                            <mxPoint x="2663" y="716.5"/>
                            <mxPoint x="2663" y="801.5"/>
                        </Array>
                        <mxPoint as="offset"/>
                    </mxGeometry>
                </mxCell>
                <mxCell id="6cMvZ2hwRAPNSA1tBTO--15" value="20-create-vectors" style="sketch=0;points=[[0,0,0],[0.25,0,0],[0.5,0,0],[0.75,0,0],[1,0,0],[0,1,0],[0.25,1,0],[0.5,1,0],[0.75,1,0],[1,1,0],[0,0.25,0],[0,0.5,0],[0,0.75,0],[1,0.25,0],[1,0.5,0],[1,0.75,0]];outlineConnect=0;fontColor=#232F3E;fillColor=#ED7100;strokeColor=#ffffff;dashed=0;verticalLabelPosition=bottom;verticalAlign=top;align=center;html=1;fontSize=12;fontStyle=0;aspect=fixed;shape=mxgraph.aws4.resourceIcon;resIcon=mxgraph.aws4.lambda;flipV=0;flipH=0;container=0;" parent="1" vertex="1">
                    <mxGeometry x="2730" y="681.5" width="70" height="70" as="geometry"/>
                </mxCell>
                <mxCell id="6cMvZ2hwRAPNSA1tBTO--16" value="30-process-user-query&lt;br&gt;Create Prompt and process User-Query&lt;br&gt;Evaluate Policy" style="sketch=0;points=[[0,0,0],[0.25,0,0],[0.5,0,0],[0.75,0,0],[1,0,0],[0,1,0],[0.25,1,0],[0.5,1,0],[0.75,1,0],[1,1,0],[0,0.25,0],[0,0.5,0],[0,0.75,0],[1,0.25,0],[1,0.5,0],[1,0.75,0]];outlineConnect=0;fontColor=#232F3E;fillColor=#ED7100;strokeColor=#ffffff;dashed=0;verticalLabelPosition=bottom;verticalAlign=top;align=center;html=1;fontSize=12;fontStyle=0;aspect=fixed;shape=mxgraph.aws4.resourceIcon;resIcon=mxgraph.aws4.lambda;flipV=0;flipH=0;container=0;" parent="1" vertex="1">
                    <mxGeometry x="2410" y="681.5" width="70" height="70" as="geometry"/>
                </mxCell>
                <mxCell id="6cMvZ2hwRAPNSA1tBTO--19" value="Amazon Bedrock" style="shape=image;imageAspect=0;aspect=fixed;verticalLabelPosition=bottom;verticalAlign=top;image=data:image/png,iVBORw0KGgoAAAANSUhEUgAAAMQAAADECAYAAADApo5rAAAAAXNSR0IArs4c6QAAIABJREFUeF7dfXe8VsW19noPHRGQIk2kd7GA2BEBATtYYtdo7JoYE00xmhhrjDEar4qK7UaNJZarMZqoIIidoiAiSJGqCNKb1HO+3+yZPbPWmjUz+z2Ye/OFP/S8be+ZWetZz2ozu9TjT9dUlUolwP/4azCf229lf5TA/C/7O//nLhV5rwRQkf3AfIf8r8Tedq/tPdTv0JCl8ZIZ4fGi25Y/BzdQPf6Cc+Drl/0ssuYls7ZYKBXoPSQIJwM3Fi4X9brKrnaJ3bo8GUhy09NJ6RDSGTtU/Rs8Xq5jvl6Z63AB02noq9r3iuiUlkmpECDMqK1IkBSkCei1cWKQQKI+riBaTWCF50Mm5xYwLgAiIAweAiZfIFxAVCDkQtlH8hycdOwdvJ+mQG3hqodQgQwMGqQEfIo39ruQ8eJGycrcB72dd8QoeUZKAI1saBFwkCHLAE2VTYMJv8fngF8jwLqf8DU1gJAQ7r0nWS0MDDZYjHrfIGplcFbWrT4ZYmBCTknjoNC6T6SGX1ELguROmQNZXqZ9SEctaKXxWxHT4RqB+kLJ5+fJoILNh+gqWSw3TyQXtlq+0UmAIFtLdBErP6xsjCkyq0snRF8j5eCKitTLXAGzmzE1AkjcMN2aSCCw62voU400Ywg8Xi4E3x3hSoYQjSwX+9MRNp8AAUaY2qhi6xFzAYnA9kAh/dYsrkUaAgEHCgMFBTYfP3WNCo035X5kWojGG1J47KbFQOF5b3oOQWAzhdfDoaDW1jxirIymiwBgMoiDQjJWAgjMhIKgwO5V2YAwC8D1whcSWiQ2K0xzyspWZq4HMXdO4ZX3SxZciCkS/uuOgJoCm1sl/aljioAw+NT4eLlScSvLFcyAQpIBtTcJoMfcWrzMajzWihIayeRkZYcGlHSZigAWGzNmSIu4T5yZiG0jMYYDdan7nb+q4pZLQrcLykgUxKiZB34BS+ZLUlQqZyxSljcRpBb2X+XAtQgoPKYIgECyvHaVqFGlVrbcQBsNOgqS3BBxVvD1XgeduVBYQiSLpTAg2Oee62SvT34ksJ9shKgN4d9xhkkCgbTe2maXQAYEn4w0eK5kdgzVnKD5Gcne4GtyZQkg3ILI82X1JIhyZORDzBrmKZz+0L+LMF1mKTnQuYJQOe0w8+VBGI+TiBKgMYtWlc7Yz0AxplCXwxkrElOkmE3UGZnFGCE42aEPqDjc4nLQkmFFQJ2tm2IIZ4mZPygolZcQ9IImpHhMIexCmpnQy7uV58EaWTKiVNwqpZnCD/KkQFViuioHp4iShUARs0pk/TnQmeXVhgwtbLnuE9FoLk1uaY0srcckrLcXaKezZ96Ki3GeHIzTbJMbn15Defwem3DDhGKMUvc7fqUkjYgwPiElDOI+BahZCoLj2RtKAVqx6Mj1Wx7+GVWnQSHFFMWExAWgf+WERMdrU7JlMIMInAKWV9ETXUHjAlC0iUpDf8mVSpCB5B4RjKbjPMkweQxulFxiAv4eZj9/uYREAVITnAQodbvj6kIxhIOM+UtIp3GvwgdFIMbw+TEYU4iZGgYUz4pKMYRA3+nx+oDwrZLTDAnUlj+RnmkDE2c7bgy8HL6h1fLdJ+ZKei4UsZbI5cSGCdGOyRrqREnauBK9woE2N7RMR0SQ4O+QIbnFJkaDJ2ugCjJAcCFJrz0li6UzkXH3lpvkrJmzwIGBK9pULtrSBajPXjWRfZJy5MpDDhYg0fh8DMsV4CDTocFbVvDWLeXC+qxQqmAMLq43AjbyYyn3urQSHl/IzeVzUPjMQFFmhlCLlYOQC19rOzUiAWYjS8iZwiy4VaVSDBBp10OyxCEqpOyBlo8jn6O8YErWs6Ci1fWp3BOAYRtqSRisjXmiQ0fqlJiDF9zyFGdOwgWYT5SBmjsOZiLjDQfazlhJIKDgwfaJF++KuE9ywbEIMJJM4alxOGOprmUZwiksUYVCPSp+oB0p3nEr65tar0SfzPMTA5JwPYr445Z58IWLpZQdOyH2i/ZuOSuFVJDGRUmmExTKLBpXGLfcHMDa6vpX4gpkF8c4V+41NSJUjzBTFHJpC3kg3LAWNLSIidEvtNPR7Y+/rPIC1QTNVW9Cnk2hAXKCKYo204nuXxEQBFKCkpDDSia5gPoKyZSsJCSCR2aoePaJgziQfSqa7BCkFekbooO3SoaGzCvaIe+CeI0cFNZ2UENFvQ93Bc5+EjPT+ymXSQFC8scTVilZiUSjLKJAnJY9miZKJVgpwhKS1S3gAqbSf1zp0MT4HH1vR1vaYLdoIt2qr89AIQDdc1m9LtmIFWXayCFIhyAxA/PR2fh4kB0CBTVCsrdBQSCztxsvgjczvJ5d0YDwzJOpQaUFUKRnhaPeT68FqI+vjLkQbxVwc3QtBiJTCErlCSVWVyHLREEZTykj5jA/S6VkyZzynxfIRolKxlOyBr1UNyJKZe9v5MSUKm55eUwhpM5T9S6RKQI64yubX1QlQ6IgLnWxgECtzETW3BqnLVX19ifIlktiipClxVRNscRtXaJ4VCgli2CdUJCQwuDWcTJPnn5M5P1lS8ssK++UFUFhzYhfpWegcEMKWF+RTfVF/IZAlRlTnnvEABcCBRo/pRBxDwiRSz7eLrcbhrD7E3gzHXU/ilJ3EVCk8/5hqvMCbYtT9Zt4Q2ChrtOC6T+fxPwWZcsPRglzQpbbVAJsncjpF3I/CoHCSIW7FmYSyGyJbR5OD8MNgVLbeKHxG4bnxg4va+7t0PfCc9KgcEa/1OX2X2iXCaET0zm2uoj4zX2xwkbQTTyG/ObotxLNCQKRLG2RHVy0rmBLafna5fqZ9tE9q4fVw62rVKyThOaYzi2AxBTW7qElLgRqqSCJs0/S5yShks+JzdOtWGLTjtMryZB6mSemh05PqW6ROCkQ91GVQuPnFoy5TxQQphYjbvzggxUW05s0VyB0DacgklKZ94KgcIi2FCy5FZ6xjadkC1kpM3DRAhGLUcwqSSllBA8LWrcUzPAkKtzinIRAm+sJBTUzXvk8vd4hJzdX7+O/dTIoxBR4vaX15TrFjKunZ/5EcU4JSp0NQ1i1ND8Idp16Spaqplr7xiwyMXc0/420LTkhdBkcbBOYGRmIG1d4miEVPwQFwK0Qb04LsADZT2G+w4M+97bpm+JGhFlQNgfPfRVdJ2l8PNDmUEXKHrS8ePHzuMa5tDy5YLGWmkPB5Ecw2WGn4oyr+qvU+Q8/z9KuUoChra9QaUylCFUDYBULkmJbCTkAOMpTTGG+X+TgArcO2HIVqKam6hSBQlLI0jpcuXEQtuBD4q5MtWIKFGiLdQoJxBwoEltwYFAl82kOua3YoJWbVvaSD9o4U3WJGw8SQ2BA0PXVFwnTuZtwCNESVac3/nMryywSAwaPKaKBNjOiXkYjm0gi+4SVHoGYGhvZVXJDj1vVajOzMP6kDAIdstx4kqhLmnd+b7KEVEfkOE6IXbHjoARcRRMk3pySTMEBkWuseZ/rVM4Q/noK+WOjMMRG2HnLIOET8EEhW6UijVtFi3fh8bJsVDUr2n7rCgd2BOgEqGFDVHTN8frqcfkKlS7eSYYoYayYAhE1tKrEQWIAgfYTeClZsfhYpAGQp8UlmegGQdy+b1wmihovx1zwIADJItkrY8r3CjESilPVR07lyM9KjZd8tRruUiA7w6laom7qsqG9Z9jy8hNJiGvglMqoe7p1XCh8eT1L5aRkGYVQ8uWWlzKvlTQxpBS0RfZoJ/e0mPVkBBCOVfPxdLpNxRCJ823MnMSBohyupPxBkAjuR9HBu/EGFj/QO8SFERxvKtBGCoHHLNVVuDuFsEiLX3zyKVBTLUw3YXoxEDNCamBeRbsIswnX8bJPDhSSDNzU3aSk0zzih7tpaaZrW+hbaM1ze1TqdNvPWFAtDB4RSLFeHEqNYVAwFsB7nPlguVXCFtWMjwdI5XXJJrJlEiuIgbZP1b6u4/VxSuCm5D4vUrwj2IgwsWxVeUWbKThmJ3Qjac8IATsudiXcKcT1uVZn/y/SEBjqqaOHYqQ6ld2cHSB804ViTC4gQeGlSRfwyaNHxAgIxivGY4hwmweRZG6/bIGSTh0rRPXcKT/TEbdK8pyQtcTgJ0vPW7OdMbN3TDBJ3uhjv8Z33qF7UxuElUx9EmgdJ0Pi4+V1IV+vePHOM66plg5uSFOvc4YgZyngRaDmx8pOdp+oQCShFGnpiDb/Ie2NB95uLFLrOLGDXA6R9F/RLt+y3CdGIeGKPFd4ab2rIwMvohDdJ6f2rILNKRAX7aVETAAkhCmQ3hUJtJNyMTotsTUJqjv9XrlM1F1wL6mmuIvpv4KVxkT6Mjl4u2DYsnMqR8snCYS9R90nHcRJoHAGhJrWIof5Rv1XtMbO3rh7eCAQ4joObAk4klJxuWmr5p+u52efrEmzhjANdGSxSDcLz8WZ1c8Hx40Qi02lAp7XviIet8rT4PHsU6nj739WRanQLEJKyczncjEs7WokT9MzCkTVEgkxaFUjQMEHLHvsnKJzyWiw0Qk5cV+BUunA1PgJRboiFDNqWFmsZU+5sJL7IbaOB+KkFFNwZgi8lkCtAFEJVfE92hIgIv1a3FCo1xkgnFW0tiP/wwT23JJhy62/6rdNkNkaVzVudWWrFVEgZ+qMxctnwtOZVImiFW067LIPE0ta3gB1B3uHyJIZZvZ5HwEDA9tDvZ+NYkDSC+m3jlM3VmLrAnJKBtp88X0WE08I9KwmYzY+p6AMMkBcZTcIJWmb0zhlR//YEUZ7dhkxnoQcuV/oQhNEdCa5AnwO0pyKZJ+QCbDBd82KGtCu8S7QbuemsGzjWpi3ZiVs3LolnfK0epn/gRSKMx1ZU/M9AQBhUDshSevNAauXk2uUfBgaNZypOTDQOBOr/8LFOoJbw2cBl1ZsPE3VtRAg8GF5Int3vPUqc1AZZwFEXFwgfELmNR8sWRI+6RgogjTnHz1Ch8bnEJ6Ta70O/AaPt1SCDrs0hSv3HwL92rSHGqWKLKfy9frV8O6iuTB+wWz4eOki2Lx9uxW7Z2WN1eWnF3IlM+pAGNXvYOAdo4K7R4rABVxYkSmYafKKdxJTJHqJPJawNG8ND07pSoZJ/ULaZET8R4srBvZET12pw61X6RgCSQYZYZovwF/kHZnovj6tsRy/sPjFAm2pzYMLwLCJAOJk75Mwp7o1a8JJ3fvAeX0OgYZ16jmFR39tr6qEFRvWw9uL58C4+Z/D9OVfw/otm/WSYutVOEVYcA7R4h2xWka8iV4t0RD5dQp/aTlbyIaIqqb5Db9YoKnRfc1dpUidQpKBn8V072SAoFaqiDDcYksItgNF1REvI1Ck0CUWvmQAuDk4Gxt2nxz7xdyndo2awi8POQL2bd2eBHMiKsybqsv3y3WrYcKX82DM/M/h46WLQQHG/iNtGNy9YelMN0xrmMIpWULB4VoLLtzlVtAzokx1MajFh7bITMH1yvYNucUwRkNiCf89o5mkflS9gws8p9waLgoIHxneNkGv+BXo3ec+Lke4VduU/2qxR3ysRIuvXTq9qsgKSexHTtcDgNo1asApe+wLF/Q5FBrUrhPT/+Rn32xYB+8smgNvLvgcpn+zBDZs3WJbNqQ1yfvxbMGM6GbYqpL15uRAQCCwBDusN5liVtcX2jwk5gh6GzFQIJlZqGG8M51JnfkkswRLApguiVKH311p6hBIiRIKFK4QY6WNPASFW6RU71DA1fB1BVO3RNth9stB0WmXZvCzg4eVxQpJVADA9spKWLZhLXzw1TwYPW8mzFyxVIMDGcIcvU6JuCvivhxOFsSZQnI9aBuGURS8uPaSTHDlNAQyYTEOsoZLBABjMv4djc8IqwW8ERfOIF2RAEGPHJetUlGmyAZbjWxT0kpJQvLcEWdqPCVjslUZpDN694Mf9OkPjQKxQhHFL/Idtb5L1q2GD76cB2MXzIKpyxbDFhWQm0FKQKfWl8vEzTOaQePrkyqgckPFA1JxkxFPv0oyYO9hGg+2iseBrvWsGv1obE6OIewYUz66ZKUcRyOsWdSLqTKGeo/WilRSRVAgpkPUa8VENStzCbs1aQFXHTw0YwUpuC+i5NX9TmVVJaz8dgOMXzgHxi2cBZ+pgFylcvEFHZpzzAjJDqcwRRoCiUqim4kbp0hiQPC/vXNkkQz4ejOZkJd55MN+Q1K09AdefatIoB0rCpfa/+6nutsV3ShanvdQ6ABi/6IXy94OVrT5fZnlTmafuFUVXyPxo8VWscKpvfaF8/r0h8b16ldXp7+z31VWVcGSdWvgw6/mw9gFM+GTb74izIFslrknMj+xNU9tR82Zo1SC2hU1YOfadaBBrTqwtbIS1mz9FjZv284SA4nepwiAua7TK/H5SIbWvSeBWgJE0tgiw2oAEUF0EYT75kzco80bAg3x+12nWeKdGMHEIVaMlzIBo+7LACv8XGWQ2rQvS6FVFunthbPh3QVz4KDdO0OfVrvDznXqlnWNol/+at1qeHTqe/DKF59lB3nhhUoWIM2csSEiv0Eya1KvPvRv0wn679YZujXZlbiM2yorYdG6VTD1m8UwZsEs+GzlUlDAlR6cw08c97JKoktL1JoAPeqWJ7JlRSra0pbmUvtbFEOE0n/MEvBBIEWTgjwpRWjZIpB+dCzDqEJwoaQ4g/bB66vhoLFezdrwvZ594KJ+h5WtyCs2rocHJo2Hv82eClu3V0JFRQma1dsJ9m/TAQZ36AG9W7SBRnXr0U0qRbU/8L0t27fBbe+/Dq98MR19w29Yo60fetbeE16pGw5qLY7tvAec1qMvNKnXgLppwnhUnPPxssXw8LT3Yfbqb4zaIDkFYgppbBJTIGfBAiOkQ9iYEvPH1Cb10BZeQHWAyIfACklkMrTMSlgAM7a/AMQvErtk9e/52ayJhjqefULUZ+WJXKiOjZvC1QOOhv3adCgrVlDTnrD4C7j1nX/CgrUrXY6fTgta7LQz7NuqHQzu2BP6tW4P9WrV2kE46J9/tXY1nPrSw5kLw/LNXkwRrlOYwZo12rV+A/jVAcOgb8vdyx6jyo7dP/UdeGXeZ/7pKkpk3kNbiFkyrSKcwa2KE+AjW+0YksuZAF04CwAbcp7mZ9cqtbvliqqSU1EhR84oDSFQ2jWVZApC5VRIsguVbjuQjh7BhkIp5im99oWL9x8EO9WqXbYCvDjzY7jp7VehUikkyrzw8eavFXM1rFMX+rftBIM79oDeu7aBxnV3LEY56YUH4Mt1a3PKC7hPSPGwhTImNE9Ntt65Edx+2PHQtuEuZa9F/gNVbHxs+gR4fMakDBSepeWBtkldUmZAri72NsiozKriBz9StYnKRH21yHZUDbwSlNrdfEVVqeTyEpoH83XP/2DoZXynQcAHns9KKzSaun0R7H1itJdOwfqZjxwkqq5wzWHHQN8yqs1cSx6cPB7unfRW8cQAXsNSCVrU3xn2a90OBrbvDvu0ags71a6bdE/4GM586RGYu3oFAoRb3zg7u8VUOtqwdl24beDx0KtZq2qDIf+hYqw/ThoDry/4XB9WjGfFd95ZJSbmXKjACwG71/8U3inoVJMqkeQ68bPDLCA0CPBZ1Dno0PPKOIJFUCBNsN6ObAXyOco77/ii0Z4grQAcNXQha9eoCaf37gcX7Tew7FhBBMTEtzIgR1OamD15ociMuUnd+nBw205waLsu0Ldlu8JjO/PFR2DOmuXBdCsTh46c+JslgJ/uOxBO7LbPDoMhv8Dazd/CZWOehcXr12g14nKJHVxg1QUZ3AJMQayCYGyJZqDxFErJKoawq5NdHLGFMT1BmktMiOotZgqq8NH9CTElC4Cic5PmcO1hx0Kf1u0K9yDFNCRjCAkQIpsyI04SEahLtVSCXerWh4N26wCHtesGh7brGlXSDBCrl1uXlpielJzM510aN4NRR56RtaZ8l//eWPA5/O7DN0wmTAKFXKyjiqtn5GWWqAkwoHPsyGq+svuEFkvqfcJAzlwmsjgcFEarJVDw9yTqdqAwymACc2QT6OOmvEwWcbaMtlF2yK1SjYoKOHuvA+D8fgN22GfHa6IBMc5lbqrYqYaRzl/e1Ci9Vu7GxPOujuro6S8+Al8oQCAjJCqUjxS7yevn+w+G4V32+i6xkF1LBdmXjn4GFq5b7WyrwBRpEHNQYC1xw87ljbaBCW6+7Karq8QOLii1vemKKvr8M9l9Ig6JNfC+P5gEhZlXNCVLAlc/qMaIzpepa9Nd4TcDh0OfNu3KErjKqavUZt2a4YzQg5NUDKEAgUQafZCisD/B8/DovNKAeDiLIUTXCIHE2k72xUZ16sLjx5wNzervHFwfpWDvLJ4DT8+YDJ+vXJa5cwPbdoGze+2XNDCjpr4LT33+EdZaP07yTh03AJBAzOakpoMBIDEJZYuwDCSPJNepDBAaNWidTJDNZCgcJCtPSAKFSIX2i4425DaPeKapS5Nd4YERZ0PLnRuXBYZVG9fD3R++CQM6dIcB7cMuiwgIIzASeUX9WdZlqiVgx1sMEJohKMtw/1t+3bt5K7j/iNOjwfwrcz+FOyaNha3bt5EU5x7NWsHvDj0u2uM1YckC+MXbf6Prz9PiSMmcjsh7XOjycC8BvcbAJ/bZvSA8g5RaCrQtIDxQZPLSO8Pw4AmY0aiD30HokFiBTDUQtCLYsaq2VrI7jzoVhnXZoywwjJs3E/74zmswf+1KuPOIU+DwTj2Dv1eAuGfiOPGJOTQ/F86o6WXwTIwNQgsBYpWKISQFivjo5pbDO/eGXxw4LDjHtZs3wVmv/BlWbtooZgQv2utgOKNnv+Dvv9m4Dr738qNeb1Fuee0Pxf0U+lOexg+yob2YsN5GQUMg4C6rl+nMGQLPlKSQeUqWZxLYqLnSc6B4yOeoDiCYAycfr5rghEuvhQa1i7VPLN+wDkZ++Ca8MHMqbK/UWz7vPDIFiLcyQEgVVyPJQtmn4AkcJSgQQzwMcxUgkEUKMoX9jlOLc3rvDxfu0z+o0JO/XghXjHlOCEo1kPdq3gbuPvx7wd8rt3PocyOdqvIsG35tKtpsmBgSZp6c7QhszL3Md4itCRsmD6CsTlFqe+PlVSrlGgKE/qzSyz5FGwA5SLiA8OBNdZoAyXxetEt2xhU3BwWVf6Byzu8snA23jf8HzFP5fGRpywUEB7XXIsGVNvHMO/X1Sef/KjqH019EgLBWEC2ksTx06d3n5+15AJy/9yHBe6iGwqvGvkBcJWyEejVrCfcNPTX4e9XzdPiz9wQB4SlipM1DmkP4PfWJqXpzSsFeKuqCsDAjxteAbbcbLzfnMsVAkZ+qXiwl68aFljTBJF7xDilVaptgChArDCv8dfrkbOmcldWD+lOCIUZNegvunTCOtE1IMVHoeRrWrhE2pC5UChCnvfgQfLHKFObsHIhjEOgy0Hc/qdvecOX+hwcVWrWgn/byo9kpImiB7JzP6LEvXBxhmFXfboTjX3qIuLQeCKRzk2KBNjKkUZDkAg3s3qTkgU05FYjSs1IIEOoePPvkV7RlSmOEEHQ1pDYP0vtumUIIqtEipADxgxcehg8Xz/faC3KBpRhCAeKeCeMifUPWZGejkot30hzce0UAoV0mtl8FHxCtJ+TwjgSxb8u2cPfQU4KAUKnfx6Z9CI9Mez/rZrWgKAG0adAI7hp8ErTYqWHw91OWLYYr3nwhDgixcJffCbOdPAc0Pak6YcfmGSvGFI5TqNyyVwoQeJae0jNgyG0ekaNHCrtPlP7JkuAUJ/manmkKEMf/5W6YtWIZkjGxGfCno06NBtUaEGPdwzWw5aLmJ92WYn9rI5Lsj0KAWJnHEH5g7TWvsEdLNa27Ezxx3DnR9Klye577/CN4ZuZkWL5xQ3bcTr+W7eCHfQdAu0ZNgmBQHzz26Yfw8KcfuMZHYnwT/Wjluk9Eo/nMjeYwuTiPScj24TT/bjf8SDW3k8kSpfce3pHrFXefWA+KV2BjliC7JR48H0M+JLeyYpMWlGDGT+IxxPFP3A2zVhpAGCuF28Qzl6lzr6DAR01UQfVYazXR0KNzIIcXYAXhawMlmHRBPIY47X8eckG1ZGnNoHx85mtcguv7Hw1DOvSIKrb6cPP2bbDq2w1Qt2btrElRKmThi2zavg1+NPqvMGuVaQnPOYoYfSpfbe3Ze4FHfDGbKngcvP+Jg4K6RtbYCsa11OaGH5kYwn2aYgk3XwyKCM0Rq0gH52duDHDIYqGWB79WDzN/cktUyCOe+C+YvVILiyE/u1ohQEwYG/DRA4ufekYf04XJF1wTnQMHhDUXeJ143p+BZO8Wu8E9Q08BVdH/Lv+pgxOuHv+ydrWIktE4SQ+HoCRXJT0csSEwolecBahw7Sv/bKzctiGdzwZeBRkgrL56Vt3vgiXvFGrz4MyBmMHdWC8MN2/4Pd6khX5QBBC5yyQdHJYGxLgshkArLPwZtkpyA6OZvJlzChCn/s+DMHflct+qCifRZYIlhsMp1Q2HHlOIJYoC5tutW+HyMTk7cGOX2xBsbJklEAJtfz8F/j0emel9QsUyrOK2tm3tKZcRlYH61AcEOVxMfcNBwGvxyK7nd8lyAsujUWOwcngyEHBao6aG0xxOyVYbEGYkKoYYEnWZxsHdBhBuDshy2aEKoDCfyQ2M2iopS1AYEDQdp2fAmcEYC9++lKBlg53hrsNPTsYERQChGGHUlHfgqZk6e+eWgapl9FFY1lgzoGSq5dENa10JGCEScusFigbauL08Z4h8AfzmM8NluWD9cWcVbe9f7HnBSIGygdJzb4yAHZNIKVm8VjN/+ruo/EY8/l9eDIF/UAwQKobgWzf913YdGUhSByxPvjDuMp36woM2hkgevECWDiuVHq/aN33H4BOhSf0GRfRe/I4S2UuzpsJdH43LzpxCQjMYZcFrrFAXArVZNG5IReDZL6GdeI7HLVqRGUPvOWNcanP9D/PtTsgNYAh3zp1bHC/YlvdT4DHl5ozqioxaOIJHAAAgAElEQVTycJsHZRIFxXIB4ZRWX6sQID5UMQRfF+YjJ5iCpGMp3mHyhddGlRMDgo8f/9DfOM8zUnqQqhX8N4ceDV122bVsUKiq9OOffghPzJgEKjNlbHAuXvPaarmoV/Y32MBa0WJaTWTUsHFFa0q9FCQ3LCOqStrgiYDILkypINsnIbBDtM3DoJb8zGMOtJycOTiaAm3WsxIMMfzxu7K0a2jnXQoQD0wcB/dkgLCqKHed0omKMVGoePdREUCoxEC5lpbLACldk7r14Mw99oPhXfeG+gW21ioXac7qb+D+j9+BSUsW6CInJiCcvsxhQT4X9Ero7/KfZFSdtD6BqRGcbHyxB1JqnTFEjif3vGBLLXhCgmtUdus4ApvTL0RkMSubT4uhvCgg9K19VN919GnRGOKBCSqGUHUIvK4pIfHFp5TAA+0igJiz8huxec6bl9gAyMfrbGjbRrvAub0PhCM7hVPPazZ9C3/48A1496t5sMX0gMknMkrFQW5c452/opzEJxn5MuAyIiLD3BXQMwsIJy6pcMFdAz9moO3j6mrIhTJWyt5DZA40AjZYSli+os268lbLJdIfwx/TDEETL05IfVvtDq12buT/1IBnzoplWY6dEYA1I31atYUz9zrQLTcb/9L1a+G2914jVkpdDAfaH12UcplGwZy8MJffmRgrH+jRo/gRU6iBDWnfHW4YcGxwHResWQmnv/yoowTze+wo00w5MnIiWySKdUYd6D5tuVXcVxcc2/FxUMPkjbL1bzVD5LRhQ5II1YlBtLCnQlIgDgpqdN0v9OLSQaBPiXLvKCBCzFHkialq6Y/s3At+PyzcCTpv1XIY8fRIb48zdp+SgHh+FMzJu10FQIhzEOoSUlOmWtch7bvBDQOOCwNi9cqs14nIJbXHnOqeH3gLbJ1c82odsMwZSjK++r1S699eZlo38A4jaz7EVJpV4lhKNrsESTbqn+V0zimL6L+PcGpkKHDKBQS9Fb4WWzjRv0Xhmvn8qIKAkJguZ4qPLvp1lOVOeX5UVoegdUknJ2doEnNgzJCjdGgBQGQMwa0cBwUPE0gignsfBVhCcnNx9kn6XOySCDMFTuBQQCCmMNobdDO0cBOuU+4k4O8Zy0/xwAabf8fnQvEkidkFXKbPVywV/e/04b62lu4UFjfQlQCO6rxHIYZwhsQznTClECBUtb0a/ncspjBrPDRzmdIMIc0hlCggUuWt2Aj+Yqo/lTzwumRTO++If0Hujg1VqdV1miFImjOQzXH6ySnIz0BFO2VFUGDLS90lXlThKdnZV8VjiOP+/Cdbh6AV3EAxiTNDYrxHdVEu08lBC69dpnutCygViYoCQpds+PonLG2gcIdXeWiHIoB4JDgHKu/4TjY8h5BOcRfQ73uSOiAkV8hPJlATR72NUqvrLrV1CIto6rqniy7ZOHY00BYQjBWRUTXWidlX/T7qbmBAWAuXShGWSv4xjYEH9mUu0xFFACEBXU9sysUJl+nZUVnK042fJTqECnaygIfWt1xAiGzH+7c4Tr06Trx4x0Hh3GajDGKXrMQUHCgSWxjtx4BAP9P35i4L8T9ditYtTmSTkbm4PfeJgM5e2GZu8sljp5WPJ39dCBCo/VsPBd8Te0PM+sao23z1aOUyJQAx/Kl78w4WczMjAHONKRf/JgrqU559QJ/LhMneYwq7yA44AttJfU7KZbrxsLDLNH/1Sjj9b4oheMaRjCgTV3A/CLIHEjNIBlkCBQF6oEPW3orpsLEBJGGD4WEYgo6U4IfojaNC109lp2E6MFJMkeh9QhNwgycqTAtkJYAigFCPsMK5f3mOMki4UHg6U8UQtxUAhGRkcn1NAeLkZx+AuVl7NU9+UMOUZIUcjhgoJQANiOFBUCpAnPa3R6KgNmjJ/pdqVXH2yF9zPAcNXt/4pot3zLwjZeJ6hbQfECDioKAeC6McQoVCPIHvmP0tgUKOIUREM9TP+VnaZXKAoFZUskqiUiFt1mNya3BUlyKAUPuN0bqxOUy9JM4Qz302GVZ/u8Gz0FyDpbEX+U6Hxs1gYPtuEUCsgNP+puoQSO2zNUCnJSFN8wu2znDiTE3Y+LICX4zp8kGVk5JlFJKPo9TyNyqG8INqhi9kmCiiRepLxRPWSqX2U0iujVlYtPhpQNwJM5frwpzcih23UhJtZ1MwwWohQDx5j9EDDgr9OgWIoKb+L30wf7UCBAqqKTL0cjCQh90napTspVKZJZ5QwNk+Cwq5d0tkBTZe9bLU8jeX2F0d0oQwrr0cOKINnDpz9ykjpnCrkuuaVSCJnWpUlKBP693hgv0Og8GR1m11sSlfLYQHJ4yD8fNnw+bKbeIp3lpEci0mJDDV/3NE5z3gvH6HQvvGTYOqqbJMwxUguFVCUvr/AhAvPYKMOzYi3GNw5jQJCgkb2ONIgcQOA2kJq1OQfeZcZ7lMNCAQH3DUUG0MMgVXKG0x0nUKchgaGpx/W/1ORUUF7LFra7jkwEFwaMfu0SMosYaqFuWPv1oAD096C96eP8d2abJiOPPReZVJX1E9b0IB4ax9DoJuzVomH74yb9U3cNyT8aB66iXX/S/Z+urdRjHEqS/5MUQRy5vJDX+REDI2Qtb0UOARZRD60cy17df4zjt0bz5e6uFU5QyBBmJ1gLoRnCmITSCo4+nAbDlIhdP3L9XHfI82zR+rfb37tGwLFx04GAZ07A61qnmCterYnLpkIYyaMNYBg4/fK35podWrWQuO6NIbzt33EOjcpHjb9NyVy2DEU/oQL9+r0Nf+dweEOmj59Jd0DOGUCmlF0JA6PZKzTz5F2Ktya45fF4opfPdJXUI8jTIfZotfa4aQikUEBKniHWVJwdLG3SePKYy/qPb/9mndFi48YBAc0r4r1IkcSlyO7dtWuR2mfb0IRk0YB+8umGs7OJ1pcJarQe06MKRTDziv3wDosEvz5KZ7Po53FsyCS17+S/CIGPX9Ty7992aI9xbPhZ+Ofp7OgZpbP4YQdIbvCQmn9ilQqCV3K1yk94mU8AL7znP1LVlACOYrlPcX2weSha60+8SzT/u03h0u3H8gDOrSE9QDUP4V/9Rzoid/OR8emfQ2jJ33ub2Fsi0KjMO77w1n9zkIujZvRdt4Cg5GMdK1b7wAL8/6xF07X1hkVf+dAaHmcP34l+G1eTOjMUQh90k4NZ26x9j3oO6UVKXXxpxSPD+YRvlr9B5aFLweo75TavHri20M4aE1yhxpBPs9KulNRhUVNWDfNu3gogMGwcDOPcu2xgX11PuaWoQpXy2Ahya+BZO+WgBDOvWC8/r1zxihuv9U3PKXqe/DHe+9Advzw7+4P2su/sllv63ubf6lv1M74p6ePhFGfjTeHWDGfXbRXUKKLWjjd1WncC4cuYnNANrF4VVtnqFyLhMCBHUQkUVzjgR1r4U4I1Ge14j23acaFTVgzxa7wQ8PGQIHd+haOFjm2pA9z5mfZleGyihXasWG9dC8QcNqg1Ep0adLF8NDk8bD2wvn6D3HWIkEUKQA8cHiL2DDls3hmVhRMMUI/YL75+x7ah3VY4jHL5oDk79eZB/c7qxqJH4o4G2QFDj6PneNpHiCs4JeTn/etKLtbuKW359DqcW1BhAk1YUAQIlAKC45UEh+XtD3Q4G2OgzrhmEnwLE9+1Q7WFbD/GrNanh88juwZtNGOHe/Q6GzygCVAYYd/WoWsH+9KGMZBQR3JKS5silkUebUKpYCxEnP3AdzzEFguLDFG+y1GOOGiiuUlXYqUDX+d/ARCQj0XieDeoooKTg7d4jXhpCaZnou7dGR5iACg/efecU7fDeAUnMDCHesi15QvK75An9XdQp9B+0+1SxVwO3HnAon7Bl+9kBKURetXgF/+eg9+Ou0ibBm86bs6/Vr1YIju/aGc/sdCt2V/y9YkNR1i36uGEFlrh6eNB7eW/wFbN2uj9kXFS/Qij0t4TIpQKjD1rgMiroeVqqcGbinkbK0BTpncSot7oZrUISzT541Zg+LkbcE+4E2CauzHDDz8qwRoYBA3wr+gH2QzE5hY+UVWSqgY+Nm8PrFv6hW0Lx07Rp47KO34ZlPJsLKb82DPvAcSgoYtUFVki84YBB0bLrrd8oY6oj9KV8vzALy8QtmWyBEHyOMXSdkzKdddn0Ufz4g3I+joOAuLJeB5G4IoKU77ahVDR2wbEcY1BmnHPK5VRIgpLR+eqMRd5+8wDuPKZpfe1EWVKvuInWgiIk9HGKIBRH63L2xJHbesRz/Md32hPu+d15RY5x978s1q+DxyW/DE1M+MMe3cwEhTTPrV6uiBhzbfU84p9+h0KN56x1iDOUKffTlfHh0sslMpayqlSs2z9RKJQHx9H0we5U6n1Zmb1L44l4TAQV3p9Rr1iBoj8oidEKfQ+0Bm/nj+DQ9rkPRNg9+T0u1jnV5ncj5VUFmFj0E4ZHBpebXaEBgH4lbHCkOIFTINxQRgcT92RG99oG7jz8nCQgV5H29dg3898Tx8MKnk2H5t+upgNAcuLuHX+9Uqw4M6dwDLtx/EHRutitUSIesBUajaxdfZkW99xZ9kT2s0bpGTEieuxRwNfK1nfbDBEM8PRJmoxhCckWkarBbFqdoVnWpaJJH3CQ7abmHgRaeysQ4cL4bUl5FOwV0DEQ7V4JOUzNGa0MBgWiYgYQrGWVazhwU1dLeA329EhQBxNdrV8OfJ42HZ6ZOhFWbNjp1Fd0P2zDs+dtYiVTV+ciuveD8/QZC1+Yto4DMXKMlph9qgWr72G5cr/gGl6jrxIxGIUBk5zK5H/rEVGLP9DCqn8s7kQHMZYIXIz0HmZ19UuB+Oxubs8qR1vF4m4dnhFh/mr4Fc5ZYOrbU7JqL9OnfztTlIa9+h6E4Wqwz3ydLRKyQvx94RK8+cPcJYYZYvHolHPnw7bBu87dmPqzAF6g8+sYHjQp9WLdmTRh1wjlwULsuQVA8OeV9uHncK/qZdCml8uIkZpECD0389Ic3REF50tMjYZY9l4kIy+sy+FcH2lJ12FeVyB5nZmydcXXKEt1kRIwJUTqjI3TNPaAHDljOrtTsmguzbleqQKizSKA1nNrzgmoOCjQ2q5IIJMN79YF7IoCYu2IpDH6A7pmOPrRFokZsVa0uuYHdO/xMGNa1d1Ah73t/DNz5/mixS9bfo50O8DxLVgJIAeJE5TKZI/2LZG5UWGBdKDMktHOBZWadQCSWkCyvZ2mNYapdUQPq1qoFu9Srn+nUus2bYP3WLbC1stI+zkzyNiRQqPfkTV1CYM3dJ88O8TdY5im7WQlKzX51oTo73ZAB114ZGNKEwilZN3h3dac0iiFigJizfCkMeuDW+OO9EGiLjI1/pygguICcofKZDyXQHflG2OPTH8UZQgNCB9VOeRxTiIZJ6DItzt6J/c5IZxQI1GFvwzr2hD133S079C1/yIpyN5dvXA/Tly+BN+fPhPe+mgcbtm5lc+BzQhYzCAq+5gEZIDMnuX/k1PKMIRQg7Aqzk5ON5vAahW9kkapjbbNjpBPEVqgoIPJ70hMC+c47Im6/74ZpUj7Ue4eflWaI90bnViP7v3Y9+f2oFUoGoagPJwmIpwwgONuRW+Jj33nhi7oWduRUNMnAGrOFml/flm3h0n0Pg+5NW0LNxINYVHZu8drV8MjUd+DNhbN1Cz4bPxWRjols9tPrl+Nz4pPJQ664XMiW1aa/upDFELLvR0GhByJZJZ59IlaUjj+7xog9ijGECIjsegwUQrMXsaq0zJrNIQWIke+PgT+99wapALv1ILynFQqZHQx+Z0goE6sVTwPiXu0yITaUDJMkE2pEMIgFQyUaDapQ6isqjf39PQ+Ac/Y+COqU2XipgPHavM/gjg/HZO6Uw3iYKaJ1CqdkcrKDp2lZJZ+AvOnVF1SFWmh5id7VKHJjWUKPduAsgaDAhYjkoAFxLiI2+mfuMuF3q7OfwoICLZ6BNdw7Is4QDhAU0cX7+9NxxfTLbwyugfrgxKfuzYJqbkHtawHozPwaN8Z8kWCBZ2/i7odigl8cNAyGd91rh+o5U5Yugp+NfRHWb9nsGVcOkkyHs7goAGLOHl4BMuEC5qJVgNDXYlbAjAh7QKbhIkeD82eZVZGE5sbrJqT+ylymExOAuP9WIlvpSUZyoI1bfGV3Sn1jpHKZuoWD6pHvj4Y73xuNVkhwR4j7lAYAN0JJQDx5L3uoISYsrCQBK2sELltarmRh10N9cs5eB8IlfQfsEBhy9L8xbwbc/N4/YYtqd2GGM1xr4a4SpQiRlQXm89rJldgyQNjrcaWRlYg+SJ27DHFmIFcsARxfABAD77/FrFVq55380BZmPL1q78jhZ6cB8a6OISSXsDoHF3ChFQNE/iTVsNLj8WXem/cc61jvUKKuAgDqwY13H3latbuROQ2qoPuPH46G52dNFfuLpGRNEWZ22KKGPlVXcYAwI002RiHK4G0eQTp3iMusAIaQcpnuTTCEAoSGWQIQ1nDEt6PSEQCMHFEEECaGCCQKCvfiBDJNKUCc8KSKIdyztv1UOWZD6hdyEPNda16WkROEuYB6bvXIo06Dvq3aRd27cj9csXEdnPnyn2H15k1e+j+/Fk71qy9F58DdQUog0VbxUpNfnu/FEOnCi1PpcO8TQqZQPMuZohxAuMWJb0fVoOMFvEClFBQglMu0Z1COmcv0rgNEHjRjtpMCV0e8jEUFF/OzH98U1aMTnryHPlpYLEjKoOCBdpa5sXUK536QURLxaSvQt0VbuOeo03eoRV+apGLwuyaMgWdmflSg01rTtJJuOPvEXUDuYoVdWgsIno8NFV7shAxTSIE2JgT9/TwjxUECMGKPvoUZAi+mtMmILHbq6ah2zUppQLw3Gu549w36bIRAg5oag9/f7wtAY8KtRwoQ5Vrd/6vvL1yzEh6e8g68u/iLLK3ap2VbOGevg2DPXdtEhzTtm6/gsn8+DVur9DPrqM1AUEUeSpwpOAikehgt8GW/UAzhBhCx6vb6Hp+iDlmj/IiiKCDsneyENUP8ILhYKss08L6bhfw4YwDhgS3eMMwqs9gN7stcpjBD/GPmVLhu9Iu0j4oUyNQVXfZGTsnGA+3/BEAsXL0Sfvz6M/Dl+jVIqUvQsHZduHXQ8VnxLvRv07atcOLzo2DlZtWrhrgXA8DqL9VTbYR8Y4vL8faK3k9Z3BQEBNImvm2QKJqxcvHiHUe4Q+/xPfvAvd+LA+Kw+24W88tav+PuEznNAy0uDrXuOz4OCHWfpetWw39Pegee/XQSrMn6qpxh4K6GFPQhU0EyZvnuuf8EQFw37m/w6tzpwsPlAfZo1goePPqs7OCG0L8LX30Cpn2zhGSbKB6MWmPhKeeYveZxKsVKnK0JQ8hMgT1lx2V8DPksqAuFkS6DQmWZkoAYqRiChcKYqBIHokkHpmF3pQgg1MxVRmTp+jXw2OR34YXpH8GKb9drYBDSpAuOM3IcOI4vS/DZFfEYIqhF/0YfDH78Tli7Re9YlLI5r55yGTSNPBv7l2++COMWzRYDaw4MrwCZ2nlXsNeptMsvzhODaiV8UtLGIzCj80FhqIv7JMzfxsXc43v1LQwIiZnsezGmyD6r9A5Dy5nvjmNOy2KZcv6pLtynp36QbVLasG0L22MTrlO4OVDgzLji5nJu/2/53QF/vh02btN9ShIoXj75UmjRoGFw7FePfRHGLpQBoa/nTAh9rVc12eWLFEirMNHgDIgZIKTBh1BOZiNmOnBDILGJxpJSphjRqy+MTLlMI28SBi9VUyPuk7ptlpP3U7Jn7LUf3HRk+IEnMe1buk5tY30Hnvt0MqzcZLaxanUwWqH/R2s3vsL8JwDip6/9Fd5ePJeqiFG69o2bwF9GnJe1fIT+XfKPJ+HjZYtdpgktYyiuSDJFAAQSWycBwUEh1SjIQBnqvJ13jFLUZAoDgimYMxbYLUsE2kLMoaxEo7p14c8nXwB7ta5efl3t5luyZg08/vE7mSvlgIGZQgiqc+CUAP4TADFt2Zfwk9f+CmuM25TrT52KGvDrQ4+GoR17BsGwtXI7nPjcA7Bs4/roCYfOdZJd8Mz4CDGF4xbu4lKmsAxByCjSpixvKGetHzjQNpaZbKxBDuHxe6QZYsDIm8S2CYn2tBDiwJDaPFo2aAQ3DD0eBnXuFQ38YmyhPsuOwvn4Hfjrp5OyvQCYKYIV7f8QQKj5T16yAO6ZMDZr91auh2KGC/buD0M69oi2esxauQzOf+Vx3cJhlVGqHalOIxJAarPC3KkQKKz5RKDBelRq/PMfpAtzQpAk1Slo9dTdUcpA5YNQQfXIk8OHDKi064B7lcuUeyB0Jpwp3FpS14hAxF6LfadUAXu3bAuXHDQI+nfoDnVqVu/4TKUIy9athmvfeB7emjfbBwUJ8DSnz/hJPIb48d//AirHz07qdc4ZWRZfYdwXiSfn7wAU/Oo8cdB719bwq/5HJw2GOpht9aaNWR2iaf2doGbETcrl9dDH78CDU9+l7pJxd+iJH8jWsznr3iTuI6GULPVi2dw1c2SA8FwjmtIxK+i1/3lnauqh4FHqv8OAUL1MfaOAUMHrkPtvhbV2C6k/YfsOVrQCR/F7Fe28RaGiAvZVz57YfyAM6NS9kEA5c2zcsgVOf/o++EylEXNtNEtjc+ZoqWb+RLenhP6NeOK/aKVasqLIVFK98MyhnMlhVjaTHXpPGYg/jzgXujZtER1ruR+u37IJznzpUViyfq3BXmq8RtO4ayQVSwNH8VtdRSDJAJUDgoOC/8CtPxmFkHP2gUNK7VhSAHCCcpkiDKHuqw4ZePiDcfDUlA9g1Sb9WKkU9TmQ8BYO3AeTZ03DbR592+wOF+0/CAZ06lFWy8JL0yfDVf94Vo81XzIEWF68KwKIWebBkdHDfTmTSsxBBhXL3jhtyd29Ae26wB+GnlQtIxECSsYOUxQ75LZD3TfgGjnhB4NvL9BOPZ/CXFPd1TEEUjNq5CkAPOCIreNWXfUMEQh471MRQKhLqDTwErXb6sNx8OwnE0E1hPEjDvVtpA06TuGl1nH5mXcO2KqYtHertnDxgYPg4Pbpc2c3btkMpz45EmYsX4qE7IMYg6LagLA6xOQUOCGQigPJibFDqKu3RqkG/PzgofC9XvuWSwTi9z/6eiFcNfp5WL91s7AFgW9Wk/WKDt2tQ2gOVhKcEbHLZMHJrIfEDMkz+c01fEYzKVk0kGN77A0PnnZhWYu7aPVKeHzi+KxApujWzycLKVnUKVtoPwWfQwlAdXuqx3hddIBypXpCDeZv55NQ7PCzfz6bgThY0WbZkJk//V10DUY8/l/24fOeUbIWjoOCu7D6i5Sk5YPPqBro6+brVrdWbfjj0JPgwN06lSU3/uXFa1bBpf98Er7esE7bTb6enO0EmfjpWAt5c02k2cJR/OzbUGr4s3OreI5cOkdJGnCqt5xkpJCssA/dqcmuMPZHv67mUZaKMd7KXKmV6gmd2D3wAldjj7HOkOqmkoi8n8IKMhdQqQL2ablbdmS/ijHwsys2b98Kxz36J5i7armX+XChGXJcTYxVLiAkQ1UIKN66sLRjgilyVlMHvv384GFwdNc9q3VK+kdLFsJ1b70MSzdqMOB/3CVksKZpWTRebvApE1BQ6/txw1nKASF/iBVMXGyOamN6ODP4WQLHFModuWvEWXDS3gdU29osXLUCnpj4Njw59YMsu2FR72VM0s+nkFKy0jmgao5q7H1bt4ML9j8MDunQNQOGYocrX31GW2KfIoMtKLMSDDH88btAxRBJIxSwtL6R4ylNwx5szGF/XO+rPrbrnnBh30Ozxwf4zrUv0nVbNsHT0ybCk9MnZm5SMRCbsSFjT95BlMfZz5AKGogGgU2BU4rQgFDvyR2azHoIqNIgw6bZw7ONIbivl9+zYd26cMvRp8Dw3v3KClz5cn+1ZhX89wTNGOqEP+txEuZIF+9SMYWRogVedvpE63ZwVp+D4IEPx8KM5V+boZkR+KbL23lXFBCFDFPAUBHZc+MlKhUfP7oCUqrGdevBkZ17wdDOe0C3pi283XSq6PbFquXw1vzP4e+zPzHZJB8+lBnkwy74UgaBHmQ6avx5xq/U8CoNCIcaCgILSpLSTEzG3hO7BlY9DVsZCjM3qFGjAvZp1Q5+fNiR0F89XbRWrWoxRtaAt3YNPPThOHhm6odZVsqtjRt3qninf4RcqIDC4JVQT0hV93f5cGp+Yr04s66kh7HxyQ9/TDMErUlROSTZIxBoc0PlGNaZ5BDbYUtbs0YNaFi7DuzecBfdxFcCWL3pW1i0dlX2mAIFDPwv7/SVdEx8r9CmKLfm4fXGeklbx0sNrzrHnsukW+D8Qga3StnC06dfGKMZYQq06pKC5tknpVT779YRLu0/BAZ33aOsw4i5En385QK48K8Pw5L1q00gGQdEBgGsY4FNRlRh0DX1QtlhkCIRNUzEf1W/+FcAQmST5FH3eqASSOj0jEELsp/6gJ8q7vvsSbc85YFwpkPC4YBwIJOYzsx756vOMecyOdRI/fwczXbZMAaqlSXQV6LFO/1ev93aw8UHD4HDu+1R7aePvvrZFLj4hUd1xkfICmGmkI63YVtPLLshwsBVERTY4+wNNxQ+c5QLCHKFCHuLx8BjJeNBdtDV4ECXlIpaXs+Qiv1o9Dd6XePM53UtmO/72NTvYGBQuTkrletfyQMEmqeXffKC1PguMGwq+WClfpTMQjOEq+PqFTAuPWQoDOjco2xgbN62Dfb9069h1bfGdfIWOx1T6EX0u2SDrkbCSnmWqwQwu4DL9PmKpR7TSSzgKZUVE7FeWlnofwpXsAn7mcsGe7UodoTsThEQRGIKyfvAMqDWA6ulNWa5MSztfGXuMsnVX62gBmnSgzTM5VP+a7J2YSQTCu5LFSXYt3V7uOzQYTCoS6+ygu/DR94CM1foQNetHbNC7ESPDJz0K2LreFGgcx+cg2L2VfEY4jrHrAcAACAASURBVLg//8nWIfwDlq0QkLD54PXsg+PlCiQBBZlXL6ZAt8PAcJrjcOCdh5SPzFtvzqzeF5hMnYQx0MmvInNQ8i7tfOX3s9O/aUrW0ZiUnrKTJAaHDTaV/mNAw5Li7hN21xRj7NmqLVzefxgc1qUn1KtV2ypB6I8h9/0OZpCtiUY16HpTFjAXozGF5rAgM4g5fqSITDJYqWZf9fvoPDAg8i/idQnJhG/08psyw6eRcG2TfHIpTiqsM0gH7CrFQCEZX6PgWCahZkB3O2YMMUg0IAyyuAdkVoBbbXc5FiQJMQTP4cs+La2W+s1vRtzYCmWuVAe4+ODD4Ygee0WVyQICUYS+ox9XpPZoa8PhF/m4CyiBhsqfzqkQIEwvk+9D0+mXxdbEKOTyRHadUQrSHRc7se94O9esk5F2sQsZWxIDEd4nLqA4VmtNkBbjNWjw0+9XRdNTWAkRcCQrVQjlgd4ntqYu0EYfGBX2KsBLrr83CojDM4b4itQl7LUYU2k6T8QVBY+4CbZJEBnqAl4RQMxcsTTwvAS86cUsmE/Y1doSTJMp3DD5hip3SpPbOe0wfcNU5NR0LTaCZrEXinp+EaDn45EAwSra1vkTgyYxc+NLww6eKbjVZA/1eiouyEYQZOhJA+KWzGUKMhubMD8hUDtKOADRFW8ySyJgEq16gavEFHN+FneZ1P7tVRt1p29ulxgvuLcFMOAfKZFVVlbBknVr4N1Fc2Cp6SWSN38VT8Fyw5rcpMMZG2GZxxlO5ESKfuYQp5UNRVB1kX6PHiWjAEEFREbpVXs5KJyl5VvzEu6UWE31q94hi4PpcMn1IxMMcQvMWKaPN0E2gha52CIkWSLXS5J9IldH1+dWG1tW/XcKENEJ7sCHKzash9+++SKMnT8r0FFgeR9hCikVEoQXaAe2c9pVYsD1XD3fMgcaAClopVahIFPQD6DU4Kdn2xhCyhxIVjXY5uFZWh8U6RMCZVoT72kGlwTESM0Q2LJKQvGDVJZuFTJPJKaw1pvPIdLGbOYw52e37YBa79hPN27dAje8+RL8fdY0DQp8QLLE6B4IqGbzQLuo++R0EwPOp7ukSxVga8oUyPji+WBASEwhgUQq3DleSWzi9gJvLQGKajnnTLNPNiyGr29IMEQGiK+crxFgCmsLkQyKMAU5DA1ZHCLKQCCYLUcVwJyf/98BQg15w5bN8NvR/wP/nPuZfhZcwIXFzGz5lk1UYgp1veDpeni9JaNShCnErGaggRE5QTzOKzW44uwqXiaWCkeSwsuFGL/IooHGrUj8dUgg6lrY4qirLCkAiM9wUG0FblefBARa6IQbdRSBhly9h7Yg94NZ3v9rQKiRfbt1K1w3+gV4dc70gPuEmA8pVTzwdotNDCmRgTXpmMSjFeskS3BQc9co8Lq0kwKE5xmYiTOOUTrCd6lVN+fsgcSYSswNatLSsx04U6QYYrBiiGWaIQjYiUcnCYWxXTnHZuZ8xDIh+m2aZlav5/4fM0RuGhRT3Kjcp9mf5kMV98lT1ZD1xVtvZszytDeBGWeLHTGkQbZGd6SUB6WdrjhLF+YIKJxyYDsZYg6590mwsonJ5ekYcbEZlWJQfH3Dffmn4v8Hj7xZB9UCIBBHkJYCu2Rluk/lto7nc/53AYRmii1w9evPw+gvZhhQ8GoSYnzBaDohBICC3Sdqh9IyoEI0MqXeRrGT6wMxhAaEsVqu3dXlGLkVjVhVKQPF85PFqM4PQtm6u5SsOoTgxgQg7r05EENYXjUrYM26lanXoiy0eKgvR7tkjRBjQJ/7iz9EQf2//aFyn64f8yL8ffY0nymQVSWqaAyeC6pROpMLMLqdUzDIxIVNF/j0kkeAYubgDcsBAiGG9U6Ul33iLb5+TJEEBR+s1VtqTlSQptrVl+0oICy15q4z5kUKGkdUtHjnxxT+01Gt5UJSyP9MAeK9+bP1/vHQP6EehL+a30ftWdhvt46wU+06SYxlgfaYF+Efc6dn3k3tGjWgUd160L5xU2hct37mzqr9JgtXr8oOOVYPZ3frw7jXt2jps1gFY+yuz5S9QJzqV/i56wRQqn/FWfSxvMpjJICIo9zN0w0we1Kke1xCbnZZJSsRaAt98PnOG25piwDCBdVI+3FLAdd7L6gWgJ0ItEMPgqQxhJ7NFwmGOObRO0B1u1pzjfQNiTVbY7nVxhmTYZ17we+GnVSoD0wxxe/eegUa16sHQzr1gm7NW3r739WzHWYt/xpem/0pvDJ7GqzcpB4XYEaK2MQQJZ0DZwpBJlZiKZdbZAW/tqVYn8ambgVL9a84M4shKN7MF4gRlBsAeZCqBl840JasGqo0hs6SpTStGOL+qLUbfO9N8JkUQxAQUPaxS4RuVsR9inbIIo3gBvOLX9wenYMCxExzrE00MYDG6x8e4UB9ROdecOPQE6FBAabYXlWZbdTybTIdslKyFRvWwahJb8H/zJwCm7dv9w9a4HGcF2iTMIK/0JoakYle4gR7BNqHst9qQGjNiIPCqAjXxgCt6eVzNCErGDEjyKoglwVnmhgf599adlMcEIPuucnEEHwOqTkJIPGsVKLvKRMQ+44RCN5qWj1AOESjFbMKo9tN+DlVTmDHdO0N1w85AeoX6BiOopV9qDpsX58zHW4a/3dYsxk/gzqw3ilQcLbmMqDUY6nJV1WMJMKrbosDBoSlJgMQ+9rvxyYtED4g9aIHs08I5ZpRE4gO+Ic57RUHRFiBPGNgseBAISmdHr4Piowp2bT4UfyWukvKZUowxCN/BNXcZ41XyjCZqXK2dsyk/xrSsTv8/shTCrlP5YBCffejJQvgR688lT2YHamUmHZ260XMv/sZD6qRskqdy9Ycs7S31NaB16RU//KcIVwHGxE8WgUtdxnl4eqkzwKc9rRSpWlO3x1bbf33N0UYwtQh/D3PAZB4C04Sb8LhaCRvnY1LCrSJ0UHU/cUvywOEb0fwsTdUqWQX1jHF0V16w28PHwEN6tQtV+eT33955hS4ftzLsKWy0juWx0vjR89hFdL43LAKxjVVEOa6V6p7+ZlV1r5hhSdTNSAIMoVTKipw/btg71O5RRczYWocS4UA8dky0/7tzIG2Pvi1n81DuwWp+2TnSSyXf+5TdIORuwjMSwDiaMUQy5d6PnkyA2jukYrrjuy8B9w87MTvnCkqq6rgmjdegFfm6EKf9ghChlW/73XJYjl5yY7ys5pSOjYfUanu5WdkQXVhUFAN9w/jCsYUxOS6xeFBUpIp/CLRNzc/ELVUg+65ERQgfHbjbMfdIwoC63VyVo+BwnA3FrIUU8z75R+jc8gBwfRJc2YB9yn6HG0jg5N67gvXHz4c1Mkn3+W/BauXw6nPjoINW7cE3SU+h/IaAssPtIOgqPujM1RnHW28MqMRnBityCz75FEfbp6zzpzMFB5lEZdIiyW1H7tcQDhmkN2/HK0cAFk6OTt4mblPlGrSG4yEuGPe1WUCwrtnrsLI4UWWOF/WoPsEAOftewhc2f/IZDZp6/btsHzDOqhZUQG71G+Q/T/2T7HE1a8/p+sZnsvNx2sgTwyJy3CiIoBNHlg5oZ8WiUvFinYGCPMvF3j20sxRKNozUEhW1nQ8MXfEXVbYO4EIxIoWW96Ie5UCxMC7b9S9TGg8WFeCQjLDbL1zYzikYzc4uuc+MH7ODHhk0niSDtTXouZDcW6VetAjsh6xIDsNiNtN2hWJP+j+ucWMpsURAdaqUROeOPkC2LNl26Buq+zRq7M+gfs+eBPmrVmZGSr1EJWfHDwM9tutQxQUo+dOhytfew7MMW7G0OGfBI7+FOIKDgA022hKtshhyiULCLS4BO8iW6AhiVVtydXA8A091aXMTUVGEZcnXKYTH74D3p2vnuRD/Veqx06hKypK0LJBY+jfsQsc26sv9N2tAzSqVz9TgI+/nA/HPnyHvB/by5H7gXZmFDB2TH4/CYiHc0AIwSUGOgOJOEfzHZuWBYDm9RvA6PN/DnVqhJ+a9MrMqfDrMS/C5u3biPKrqvXIY8+EvVqFwbRs3Ro46i93wxb1W2SNqGHSAgqDmOoQZ3A3dWacynDDS3V+dHpVaIdRtmAm0Eaej12M7HfVDLT1pf2AyN86mO5bWX7LqKh1+mbdGrh9zN/hsY/eNQeWWQ4ihr1JvZ1haLdecESPvWH/3TtB4/o7edfdvG0rDL3/Vpi7cpn5TPBf+Yl1iS5Z5YPOT7hMRz58O3yeB9WsBRgrUJz5EA2zina/1u3g8VMuCq6jcpPUU4zmrV5hrDtSuhLAwHZd4Z7jzoqyy2GP3AarVBU7AVopYynFQGGmkIwGBYk2FHgOGgWlOj88PXvGHNnJhlbVgcKgl0yZM4V5TSasn3dNfD8kF+vTUlJhR0LGJ5MChLqdovuxs6fDdf94DmabfL5agjaNmsDBHbrAMT33gUM6qTNlayd96FveeBHufX+MIxwv/ccn49cquPs0/1d3RkGdA0IguUIPIfSYArOEqkd07gl3RxR6ybrVMPgRmhrGCqWOx59wybXRORynAKWek8eze/lrEehU9tqtp31BMlOUn33KxqUAkY/QU7uSyT5xtwhxhLW1ouvkLDElAzpY8fkUbDCxwPqL39wFDevWiwoj/1CxxZ1jX4Fvt2+Do3rsDX3bdoRddmqQBAG++ISFc+GUx+6BLZXbkLEj9kqMKfBNygbEQ7fbXibfwGJD5P6m23WF1hsEisM79YR7hoct/Dfr18JhD9+md9Pl3IgsrHKb3r3w6qgMjnn8LliwdhUyJDg5gY2IZFgdIccSAy4nIxglikSf6QggkNV2xS+NRtvFEgy03Y/l4h0dHEd0EZaQhKDnV4JHTrsQjuv93TziqQiqtmzbBoffdwvMXfkNzXR4OXKpmCTvvEsyhAKEOmYfoSHuHjmLoofFX5v3zNt9W+0OT512SXD66omiZzzzAKhnUSMzZ4E/vPvecMvQE4O/V/1Qhz70+6wrVv8LKz1xAe252shCFuyCyPUDD0ovBV4LanlLtX94ahWqQjD3xgWh8ToFukHhlCxBYLh4J9Up2MHFPXdtDU+f+2No07hJEX3+Tr5zy+vKbRotC5bIjlN3dQHxhyyGcLqE1twuJWIpRiNyAdIZqmb1G8Cb5/08+hiCiYvnweV/fxLWmCfC5gu5e6MmMGrE92H3xk2Da7tw9UoY8eQ97kh8A1LOdlInAtVhoS1INOYYdtwwhePSUu3LTq3ihaJQl6kDBRMGRrz6mwfadjyacfJNQ5wp9E8FNklUtNXverVoDbcNPwMO6ND1O1H41EXGzPoUzn5KNRW68Trh8vWRBEBz9wuviccQRzykAUEVCAEAgUJiDqdUZizEDS9lex2eOOVC2LvV7tGpT12yCEZNGAsTvpwPKlV7WPtucPH+h0XBoC74txkfwzVjXqTXllr8XekuUtHW1ezKKrq/PuaWp7pkdV9ZFWSAyCptVTRnnqfGuAAKV7SDTGEk5+kIQz5xPwSFEphDBVyXHDgIrhh4dBYXfJf/VFC+YNVyeHvuTPj79I/hvYVzQLkBRPUJllmtRUz9uUUqBgh1YLN/kgS1qnp9k6Awi4OZ49w+B8EvBx5bVjxVZI23VW6Hy15+At5dOJccnI3Zzo034NoJ481/n2pLcQRSQI8yQNibsYqj8HANrysepWUxSWWxhH76Cssto+ER9y0caEtMwn1BN4cS9GjeGn4//LSMLUixsYj00HeU36yeRvTmrGnwymdTQFnHNZv1M+xCTY6E4HhMgV6rJ5o226kBHNahGwzrsRcM6do7OrojHlQMYR7V5Z1OJ4NAAoWU0sxjjCb16sPLZ18OzRs0KnOl4l//5OvFcPbzD4MCRr50kmsksp+dhFDstUIPHXEjGd949kkzRAgQ9n3qxvi9T/5uCqswwTqF4Bohq89RL1nibLoBd6pOzZrZwxB/OugYaFivftkCnrdiGfz21edg/PzPQe0ISwWlQXeJgaL5Tg1hcOceMKRbb9i/XWdoVLfY2CwgkJZTe4LcJ+k7+D3fcbescMZeB8CvBw/fIUOCF1slIC59+XH4YPE89zY3tNa+mDmw8XH2kHq3qCkPZ9RihjQbRu1LT1GFAqow2fVsSsmAGn0nT8fiX3lM4axo9pf53FkIBG8hL+1qfhyMuWuJqZWNHwFFbXm87bjT4cCOii0YA0Zgotyht2bPgGtffRbmrVpmQp8InYeaGksV0GrnRnBI+65wZI+9MhDsXKeu2O4eQ+0RD97mgmpuqMhSF1MqbUyQDMzfqlJ967CT4Jgee5dtRPgPlJt5/4SxcO+EcVkdSIpN4/sT3MTibOd0xElYaA+yX8O6nJOWAVGtS0/RlWpfp9gDQvyTMNSlaEyhJyCoJ9unbQbBrFa4eCeAIhFoZ8VAIwT1DInz9jsUrjr8uLJ7/lXd4g9j/g5PTnk/ixns8pGNaFQJ1b0b190JDu/aE47psQ/02a0DNNnBmGbAyJtgwZoVuC/Z5Ca4cDlTMJmITGHQYZ4O0LBOPbhv+FnQr23HaoNCrf1LMz6G6978m3WVpD0vUoOd9S4SzMFBnQXawS3MauLxZ95l11OAsEvGicLb+igoO2YL5B7RSxkhRbNPNvlklS5nE16ncOvE7pLoWenavCXceuxp0L9T97IstBLuuNmfwTU5WwRy+m0aNoaDsqp3Hzi4Q1eoX2C/chGNU8/hHjzq97C1cquRKWI6o+DUy0CgoFoT2U/hjI76S+21vnbgsTC8Vx9Q8U45/1S/kmqAvG/iW6DiMPwv1hXB5xCcE/og3uYheRecOVhKlgCCUG9uxfHic5ZwlFsk+8Tbxj3a9hhcT0hXdf3JcSCLFojFGWr/8Dn9+sOVg4/NGvbK+afY4o9jFVt8CFu3b8tcsJYNGkH/Tl0zEOzbVjUB7lQW2FL3Vz74Na/+FZ79dKL9qr+fQmYFZmCDxTDiOiEZ1K6oAcO69IIfHTQE2u3SLBlXqKB5+tIv4a7334AJi+eDavv2M2C54YsYs6Brw+dJmTln71xVZPcpnmkq1bpExRBULH6gyrNPzDEyCht3nwxl5UskxhSU/vliyuk1aYIU9Rp4+Nol6N2iDdx4zMlwSMfuKZ0knyu2eOPzafDmrE9hYJdecED7LmUDq+gNFTPc/fY/4blPJ8F2knOXDy7wU7JFgMKVissAoEGtOjCgQzc4olvvrKO1RYNGdj23V1bC4rWrQD0C+ZVZU+HDRfOy4ptWCXetZPxgvk9UEbMfGZZ/jIwUaGfG1AIcsyY1rvYTpUq1LjnZPmMOGQd/4z8OtJHpoRMwFp2OhOENLVJm+nk6zVzcI4S8TkEF5uYbsTjmS1wodWrWgvP3GwA/HnjUDvv4RZU89r3KqkpYvHoljP9iZpbmnfTlAtdqTdoVMGFy94kbK7TehGjxAmNQ8HVEXkCplD3sUrlTjevWyxhg1aaN8O22rbBtu3GNmOJi4UsZQdpv5Toj7GUCxbtQrYW3qYQ8DA+w2TRLOSAEiyoE2hJVS4hOM4UhNxZTSChn4qSnvUWYTUwUCOk+JaQ9WuwGNx79PTi4Y7fv1N0pAhJlYVdsWAuvfT4NXp85DT5estC2RhQ5il+Libq1SO+Dew+kYh4z6lpFiFAcG/vPAcwdFpbnL9BlID0Ikrt7hbNRGElGANJ2VKP+XjLJMAThBvKlHXafHEQNBrGamGli90lIB2KywxfhXbK+AI0diQAn/43aBnnxAYMytpD2QRRR7qLfUW7X4jUrYdycz+C1GZ/A+4u+gM3bVa1DSClnb/ouK3mHg8JoNteN0L4X45mEi41YJkjBuTvitIgXv8K9Q/mk/bEhpuOsY2+EXTKqw15chE8I9JwMFGjXuvhkL4aI+n5GammrpL/Ig21GyJpRuXStAMITdoGTkG8mJrLYETe5QFSj4E3HnAwHd+yeDCKLAkB9TwWcS9auzrag/m36RzDt68WwdvO33uMFLJXzfduRrahaqVgPgdFyicEdANxCSQpkrSjSNWuczIUlUPh9Q4mYzlw/tXce96N4ICYyxy6gVdjsLsE41KRkSxkgKLjEjA4NSjlNe0tHqDobRKBwp4aeyT4ICjchKlz3irdncP/QGRQMMI82rLubV7l/oqrcBfdZhMCxdO3qLAh/dcZUmPTlfNiQtT+be+P/cdeC92rl4swVkQ1fk4KQHhUeQuiYCNl0KwhqPgk78+Kjtx0Wra9hKbwuyTOSeLxgRc9Nut+rJYGcDkFfI3WaR6nmxd8zhx3j2ZrVKeD/0dPo5OIdIQHkHrHlI2xBrYzTHP4biSkIPD29p2/EhNS5aQu4bfhpZbGFCjQXoibA9xfNgW3bVQ8Pn4MACqFhkdoqo/B4Cl6w7TOF5I4EM1L22oKVJcaWjl9mCpZpChaA4zLRP8Og8LSAZbToqvGKPEnHImZRV6WAILRDqYYyEra01UnJEruTE2b2f3ryOC7WxUEhF+8Svmt+Z5KSpWynqtw/6Ncfrhh0NDSu5++xVt9WgbHaRJ8xwWdTYIoKjL0TsCWmC7cXOCvOlKXA8ylCZ8kSFivaIEhuH5BBzlpagn7JqEBXAWfYaJoWgZbhV2eK2JjLKd5lgMgX3yRAWeRdQKk8/zVRwEPZJS7u7DXLPjnqi1vZYlbKB7pvgfwGlO7NW8FNx5ySHUdTo0IdMVOVpUhHz1TZoU/g/YVzYNM2fRqFSN92GcOW10HRtRhY00EMpO8aJZ9PYQZFdYUZJqM50vil4l05ltc7pifRVaBljiftTDIFAW+HR3NCE5FAQfrlctWqeZEGBGEzYbCpQFvyX/0JoTZd0XWi1hk/Lb1IStZN0A/i+AJLVe2UVapdoyZ0bdYSOjZpDl+vW5096nfjFnUaHSE50Uo5UCPBYu3ERSxPIMhGkWJXAhjGunAFoqCVjFcAtDwDyJeZZKCc8fJUGX9ULnsIWxKKFiSToMhcpotOssfh01iPMQMRmNldxIFTkCnoHm3uPpnXnqwDB1mR0EdntXSDFxWICAi2FVWySmn/22m1wzhXKIcYblUlZVG/lthaGzx3v0KnjgeyTxwUBNPkHm6EPk7DGT77OIQI0Pl8vPXP7YynZz6Ii9YpJMNEnmpbwwACX1ASmh5b2n0qmumIp2MRU7AahTchovfuBQmc7NvxPhZRIPi3Vmv8XWsk74ZMsuRquGV040Vqjnxw4XPR1XCzlR4XzLbPGFHKu+q4u+ReU/fFM2MBtsOGyf6GXsqOxy0vvpicNiduLgcdpcRCD23JvYsSBUT8vBsREBK9C4UkTmskFxJwn6zasZSslDPnAgpmnxLpzZCVItVUDhKqRcjTCx/PyOcQnhM1RLJVTccUGXcSpUVGh9KF+5qZVzJ+4LZS/cCoUpG4Tlpzb55iShZJHcmA4oGzNWZYxH65TGtcaFwmHPRxBKMJav2nCBYnlGodNxMgoowdm8kDbRakUlxSJtB4c4vHTwcsapmKFo7CSoAcEyGnL7GfzBzWl8gvaKafOI6f1ypyhUfDIjBhQOc+uARip2K4zYPO279HKEZiepYaLwK2CAoOfHJ5Pd5SjQtPtM+plqicTBAByisuSYG4UCwKBtpSYc6KGz8I0i1ueYG2Nes5djwXsOxAmwENm1Yfv767JqUIiQw81yLeEqH1ZUcDbQJBvdhYEZkS+WKXz2ZVlxFbbbw0rd8L5e228wLrSKaJ6WyY7YzB1IBAv2JBKrmeVFghAZjEHLxOUWSTkecA6cyNAJq4VXXMwK22ZHn1tXyrxEcc3fllfu4H9Zy6zcpypiC4DdC9/Y76g+4C03Ogay7FFXyLsMQMkpX11ttzGIylRcYsAwO9mBgn2Z8IcohWuYnhyBcU6RC7NyU+usalGheciHqZnDTs5RJWqkig7QkpkDrTVsT8q5C3olIjiNSaTxq/RnMoUsCTOmX91hUOnEigjcZiVLjwzjVrrDhQjNzdcahOAbRLmGKKRO8TGzNmP67blOm4DjngW9HmBjhoDMhkMU6IwZLqFEQq2HDE9AOBWgOC0QoarxkMS68RK+oPXlYozhR+8UtpSaHsUzQlKwnECUUERIGYiLAHV5ZcZDjwQ9/xE2X+8+Ak98+JJa1kngUVKtr8GH7K/ri7hLfx4GJjQSMkMYe5oWyU/Ng05cKGmNrOKwJqKzJKF+AAURAUaDms8eJWzN0M04vwnOMAU3BQUMGhETBHPVR44WzHBWKtdgF/lpgrsZrK+27c6LnbQGVhRikwm7P9cisLFR1W2HT2SWJvWRW44cPjpWxZpNYSZGqG0mRDoLV1eHwyW1OS4MA286lxwQleYQ5retJy0bUIPJ0zX7wKqCp0QmDBinaUKRwrEBCbF8FMkNdlKgR5zpiapZKbGrnCi/ck6yeAgngcVCk50PVXpV6iMmIKajpRG0qROZoR8DkFMoIWFBwEZA4ciKG6BANBFlr5IJZAob9mVrPi/BOq8Bu5u4StvqRQ7sIcEWnq489r1nEhuo73zDsramag80kgn0WgagnUTkV45oZoIHKdsUVhc85ugDbUa7NL0v65ZlFS09/RPn9oDhwkHOiCwnBQp+IJE3OQ7ZxGSXzdxvdDY0PPduCGINcpC2AzhTAgBBkUcGtTrTe5Tkvjs9hxgPBgaiTkFkACgWSligTa0ZMj7FDINiSbqiAAzbEddJ/iVrWoP6t1nAIh9ZpWU6nCk3YBtvTWWmHJkWkIMvGYjbV5ZLeXTx63ViazDYhNOCgQaLlSudcW4hoH6IshlzYogwJsTSxkuX1OaN1zZi0pQLiBU6GxkmUwVSYBBa0GXu9wLw4ylfx6hPBNhMpUU99OSMtKlpf3CUmWSgK6lm0EFAJTKNAg42mNDGcKu/K+Sc7J3K0jUkyqM3Hw6/HH3SdlqPjGf6l2ZCMlDhJxjYjm5YRhDLa+gORO6l/5LisGQSrwzm8m7afAy4hcpuNtYU76AgFFmVYqUx5vKyRXKD/7JHUv0kDbLhVa7YTwXQAACCJJREFUG6PCjCm4woSqq5ILxQGQBISVe6pQxJXAKQy3vFS/zBwZIKgZExru0JIn07EGNByXXk4QVf5RoIH/tOAPF8PMvM3NZMNUpH+O6hRhZmRp2LfkGKPifAUIp2CSP8uZIkR9Th/4AN1rGdHVAQW6JuIgfuq4sxBIbaS2CS4UDn6iVHxppYKeH4RSg6NXi+NXzOkXKX5RcqBM7LkefotHZqXxtHiXrEGmaFUZvUmgdsDGuoCYA/2JXSgiZTzHhPuq7xcBChoknfZ5BhD4C1xy3FwE+nAsMn0oYpYzVoR+KbnLy4wvnpJFdiyVkg0UhYrGFEmqNuP1l45qrkpGZ+3qaM2dKPgaFQO1/j03GJKlTWWfIqlyPl6i236dJcl0DBvicwfRd/Tt4+6UzBTO+HvMli3becfrPdXYAuYvygWGlTU3Vzl7cgGnQGGn7QCFM1BI6dmV2FZUdIyyMCf3lrtKdnABbf71BCBZoWhFW13eUDAdBmYKpMixsSKBkSyh0HpD+J9b1kSgLRkq7FHI7lJ4DpL75PTa6Q2PKYgmEPVKgEJkCi0Ivm9fvVsqnTeC9DIVyQrkC0JBShBFA0GsrcRyycCxQvCsXA5c/TvOFhwUmSLwQFtgN6mQVDjQFtKBOOUq0bbvjzuLJKVlwy6rW7/CClPAfeK9T8Uygsjy2unIey48tgiwtZaxkBbnelEt90lOixNAcKsl0ZyXXPd0mjd3cQdYoG5O8ViLOesQX9N8GGEKCgqjNgQ5QjOavaw16YidpbpFPPtEMk3W62HsZ4Rqkmg5pXqJPpqSdYsh1VqCIPEUiMVwPJ4wdQpH0zlZmgwaY7LsJXovHlQ71wfxiv29Xg+enEkH2kXY20/eqFv9YIRp7iPDMT6oTVCSCebMYJkiCQo+gSI0R4Uk7UWwjwzm8YKVHFKJYPZJAokTUjD7hCyXVgDKT0mBGCrnKVkbUyAr619eBrHHkNyYRCxxoe2oHBimd8slYjjICTLSp2EEkh2crR3W3P2K7nHx4gp2+ogGhLVaMu1Roya5OQIrGIXhg3dWhlvadNDnKRm2qvmFjYll8HZTRCaYW9V44YgHqtWwUoKCWovPZJC5C5Ll9dgU/TCSPbMOAhafF0+k6xS5D4qH5vUlG4rwmIIxhwT0UIxROCXLXCxfZ+Sm0nw+FBCc6gpQX7h45xRIokLOLrJFlXufpA3lqeyTK7wQzWOJCp7Dd3OQCkcSMySr10YLqNcmN6NloOBMEVUqyTBhOfjGjM/B22rqpWP1qOj4ZUOqvrNjbSlosvhsVvp2MtuUlAkyVKXSD4a7HXOCleIop6g2CsR5P0DNluC4d5EMknidQqbmwqCwmmYEyaWbSsmWKRCJ2TwHq1Dvk7sxt6RSwZGsEsFCKlAV9l8XeD5F+uQLNP6gsTUfCGxH6yTcB4i74cW2/yrP91wFCOYDIxTEAeFphoGUkIeOCMRrh9ADoqlgL9D2swT04AIGmhzsef6LZZ+iCmVNXaTFIJE9KyYQv8ItFe6s3cJy8k12IhEQZkOtDtULtHlLhwQSigWk2MxFdGpJmS3oPhF1rJ5L6wDBQWF1ktMsnwCSRNDS0msUYQpuVZOFO6Ml5OBjI1N/750ZQbB45xAQTclykBNJ6wFhIJRD3RS/gYo2s7IeexO7IgAgkRhQd62CSgKOaEoWKXTSs6AZdJuWkuK4smTA1ZFlqDy29mSUM4Q1O0yqIltQwueFIStMHlgTAXCgoQHYj/zvRIGBBELsW+w0D3VbERgSiClz8X3TEtCTFW2jxW7oCIxMJrxGQZmCyk0u1glz8gJryZ1KsIVwQJ2A1fiBxRhMQaYgFJBN36ZlSaaX6yd9HQNFqXTOcfQ51cJg8lSV1LXp0Zq8Eij2RgyjbShxjYxZdZgSKo1JtkAgzhYMZZ68Tk51/2BKlo6PKq0eolQ44inA5B5tDgrxtR6L5EIVsap81emyCxk//gjb5MEFfpuHtOfZ6gtTJswCcXahoIgmO5KNpZROlJwQIJiqZCPkvQvyrikHiriCWwvqAb18UOh7oioBbrO219d3dKDQHzD7kcMSp3TYhh390HHUAKLRYC5kfVpOaDiuqEadIq94U90xoCCyxAUypPrMuElxkpsGd6nS7Bw9zQPJgA4DaQGbg1tT850UU5D1l4xXkdQ+ZxPFEEyBrHmmUPUbxtDnocUmmmPHx6nbX/xk45ZYPRVO6sgPLkgU77IlCMYUbrGJpUVrKTajMaYuElgXzelL7pMWBxdwLk23xtwwcebjr90VEhuMAhVtYobM+HxdxyBwf1MzLRckrdFD87dzTMjAj+tyQFgUoEUVEKrBE86bO9+VnxcUFohdMDZ4yZ3iQg81n7lClPpFlcucBwNtZCvF4h0HMbVIRVjCKpantMRUugDT/QATEmImbAEJVM13ApY2aJh48dEMgKfFkzvv5Ie2SC43tbkpZkBzxLpp/uYyoEB0Ck4SHcyIlOD7x1ZRX08rEMt5YrjQPhXkOvCUm/0iA1Y4xUmVzDEVFbZXps8EnHaf4nUKdI/CKVk0eRKKMOX0UsiqN4cajCIZqFAKkxfvqIxToECGQFAyyVjx4p3nOlkxooU0mk9VIQJiplfenAKgllOyvl6F1jsDhNTfQRDAmYJYctzRGEa4axN2cYm7LF4Yaon1OIr4gjQTEuoydaDgSosUg3IwwyUyGFgoaE3E7FOMFawhphQp929he+S+z0ERaoHgoDIS85fZY4V0a00yphC9CzICy2wSczhQ0IIwvkK0eOfNyXcx/x+9dWEgt9E6owAAAABJRU5ErkJggg==;flipV=0;flipH=0;container=0;" parent="1" vertex="1">
                    <mxGeometry x="2616" y="961.5" width="70" height="70" as="geometry"/>
                </mxCell>
                <mxCell id="6cMvZ2hwRAPNSA1tBTO--24" value="\20_processed" style="edgeStyle=orthogonalEdgeStyle;rounded=0;orthogonalLoop=1;jettySize=auto;html=1;entryX=1;entryY=0.75;entryDx=0;entryDy=0;entryPerimeter=0;fillColor=#1ba1e2;strokeColor=#006EAF;align=right;" parent="1" source="6cMvZ2hwRAPNSA1tBTO--12" target="6cMvZ2hwRAPNSA1tBTO--15" edge="1">
                    <mxGeometry x="-0.1013" relative="1" as="geometry">
                        <Array as="points">
                            <mxPoint x="2840" y="876.5"/>
                            <mxPoint x="2840" y="734.5"/>
                            <mxPoint x="2800" y="734.5"/>
                        </Array>
                        <mxPoint as="offset"/>
                    </mxGeometry>
                </mxCell>
                <mxCell id="6cMvZ2hwRAPNSA1tBTO--30" value="(1)" style="edgeStyle=orthogonalEdgeStyle;rounded=0;orthogonalLoop=1;jettySize=auto;html=1;fillColor=#60a917;strokeColor=#2D7600;" parent="1" source="W5PPzOMBdSXC3b5csPom-3" target="6cMvZ2hwRAPNSA1tBTO--16" edge="1">
                    <mxGeometry relative="1" as="geometry">
                        <mxPoint x="2444" y="717.5" as="sourcePoint"/>
                        <Array as="points">
                            <mxPoint x="2340" y="716.5"/>
                            <mxPoint x="2340" y="716.5"/>
                        </Array>
                    </mxGeometry>
                </mxCell>
                <mxCell id="6cMvZ2hwRAPNSA1tBTO--25" value="(1)" style="edgeStyle=orthogonalEdgeStyle;rounded=0;orthogonalLoop=1;jettySize=auto;html=1;entryX=1;entryY=0.5;entryDx=0;entryDy=0;exitX=0;exitY=0.75;exitDx=0;exitDy=0;exitPerimeter=0;fillColor=#1ba1e2;strokeColor=#006EAF;" parent="1" source="6cMvZ2hwRAPNSA1tBTO--15" target="6cMvZ2hwRAPNSA1tBTO--19" edge="1">
                    <mxGeometry relative="1" as="geometry">
                        <Array as="points">
                            <mxPoint x="2700" y="734"/>
                            <mxPoint x="2700" y="997"/>
                        </Array>
                    </mxGeometry>
                </mxCell>
                <mxCell id="6cMvZ2hwRAPNSA1tBTO--28" value="(2)" style="edgeStyle=orthogonalEdgeStyle;rounded=0;orthogonalLoop=1;jettySize=auto;html=1;entryX=0.25;entryY=0;entryDx=0;entryDy=0;entryPerimeter=0;fillColor=#60a917;strokeColor=#2D7600;" parent="1" source="6cMvZ2hwRAPNSA1tBTO--16" target="6cMvZ2hwRAPNSA1tBTO--13" edge="1">
                    <mxGeometry relative="1" as="geometry"/>
                </mxCell>
                <mxCell id="6cMvZ2hwRAPNSA1tBTO--31" value="(5)" style="edgeStyle=orthogonalEdgeStyle;rounded=0;orthogonalLoop=1;jettySize=auto;html=1;fillColor=#60a917;strokeColor=#2D7600;" parent="1" source="6cMvZ2hwRAPNSA1tBTO--16" target="W5PPzOMBdSXC3b5csPom-3" edge="1">
                    <mxGeometry x="-0.1378" relative="1" as="geometry">
                        <Array as="points">
                            <mxPoint x="2340" y="741.5"/>
                            <mxPoint x="2340" y="741.5"/>
                        </Array>
                        <mxPoint x="2355" y="737.9999999999998" as="targetPoint"/>
                        <mxPoint as="offset"/>
                    </mxGeometry>
                </mxCell>
                <mxCell id="6cMvZ2hwRAPNSA1tBTO--5" value="" style="sketch=0;points=[[0,0,0],[0.25,0,0],[0.5,0,0],[0.75,0,0],[1,0,0],[0,1,0],[0.25,1,0],[0.5,1,0],[0.75,1,0],[1,1,0],[0,0.25,0],[0,0.5,0],[0,0.75,0],[1,0.25,0],[1,0.5,0],[1,0.75,0]];gradientDirection=north;outlineConnect=0;fontColor=#232F3E;gradientColor=#505863;fillColor=#1E262E;strokeColor=#ffffff;dashed=0;verticalLabelPosition=bottom;verticalAlign=top;align=right;html=1;fontSize=12;fontStyle=0;aspect=fixed;shape=mxgraph.aws4.resourceIcon;resIcon=mxgraph.aws4.general;flipV=0;flipH=0;container=0;" parent="1" vertex="1">
                    <mxGeometry x="2200" y="560" width="40" height="40" as="geometry"/>
                </mxCell>
                <mxCell id="6cMvZ2hwRAPNSA1tBTO--33" value="SEMPER Chatbot Client Resources" style="fillColor=#EFF0F3;strokeColor=default;dashed=1;verticalAlign=top;fontStyle=0;fontColor=#232F3D;whiteSpace=wrap;html=1;opacity=60;flipV=0;flipH=0;container=0;" parent="1" vertex="1">
                    <mxGeometry x="1477.83" y="580" width="520" height="300" as="geometry"/>
                </mxCell>
                <mxCell id="6cMvZ2hwRAPNSA1tBTO--39" value="assume Role" style="edgeStyle=orthogonalEdgeStyle;rounded=0;orthogonalLoop=1;jettySize=auto;html=1;fillColor=#60a917;strokeColor=#2D7600;" parent="1" source="6cMvZ2hwRAPNSA1tBTO--38" target="W5PPzOMBdSXC3b5csPom-3" edge="1">
                    <mxGeometry x="0.2022" y="15" relative="1" as="geometry">
                        <Array as="points">
                            <mxPoint x="2140" y="715"/>
                            <mxPoint x="2140" y="715"/>
                        </Array>
                        <mxPoint x="2077" y="704.0000000000002" as="targetPoint"/>
                        <mxPoint as="offset"/>
                    </mxGeometry>
                </mxCell>
                <mxCell id="jtLlMTJgqhqr8NrwFMSb-33" style="edgeStyle=orthogonalEdgeStyle;rounded=0;orthogonalLoop=1;jettySize=auto;html=1;exitX=0;exitY=0.75;exitDx=0;exitDy=0;exitPerimeter=0;entryX=1;entryY=0.75;entryDx=0;entryDy=0;entryPerimeter=0;fillColor=#60a917;strokeColor=#2D7600;" parent="1" source="6cMvZ2hwRAPNSA1tBTO--38" target="jtLlMTJgqhqr8NrwFMSb-25" edge="1">
                    <mxGeometry relative="1" as="geometry">
                        <mxPoint x="1877.83" y="698.1000000000004" as="targetPoint"/>
                    </mxGeometry>
                </mxCell>
                <mxCell id="6cMvZ2hwRAPNSA1tBTO--38" value="10-get-answer-for-query" style="sketch=0;points=[[0,0,0],[0.25,0,0],[0.5,0,0],[0.75,0,0],[1,0,0],[0,1,0],[0.25,1,0],[0.5,1,0],[0.75,1,0],[1,1,0],[0,0.25,0],[0,0.5,0],[0,0.75,0],[1,0.25,0],[1,0.5,0],[1,0.75,0]];outlineConnect=0;fontColor=#232F3E;fillColor=#ED7100;strokeColor=#ffffff;dashed=0;verticalLabelPosition=bottom;verticalAlign=top;align=center;html=1;fontSize=12;fontStyle=0;aspect=fixed;shape=mxgraph.aws4.resourceIcon;resIcon=mxgraph.aws4.lambda;flipV=0;flipH=0;container=0;" parent="1" vertex="1">
                    <mxGeometry x="1807.83" y="680" width="70" height="70" as="geometry"/>
                </mxCell>
                <mxCell id="6cMvZ2hwRAPNSA1tBTO--41" style="edgeStyle=orthogonalEdgeStyle;rounded=0;orthogonalLoop=1;jettySize=auto;html=1;entryX=0;entryY=0.25;entryDx=0;entryDy=0;entryPerimeter=0;exitX=1;exitY=0.25;exitDx=0;exitDy=0;exitPerimeter=0;fillColor=#60a917;strokeColor=#2D7600;" parent="1" source="jtLlMTJgqhqr8NrwFMSb-25" target="6cMvZ2hwRAPNSA1tBTO--38" edge="1">
                    <mxGeometry relative="1" as="geometry">
                        <mxPoint x="1877.83" y="822.5" as="targetPoint"/>
                    </mxGeometry>
                </mxCell>
                <mxCell id="6cMvZ2hwRAPNSA1tBTO--51" value="retrieve result" style="edgeStyle=orthogonalEdgeStyle;rounded=0;orthogonalLoop=1;jettySize=auto;html=1;fillColor=#60a917;strokeColor=#2D7600;entryX=1;entryY=0.75;entryDx=0;entryDy=0;entryPerimeter=0;" parent="1" source="W5PPzOMBdSXC3b5csPom-3" target="6cMvZ2hwRAPNSA1tBTO--38" edge="1">
                    <mxGeometry x="-0.2507" y="10" relative="1" as="geometry">
                        <Array as="points">
                            <mxPoint x="2050" y="733"/>
                            <mxPoint x="2050" y="733"/>
                        </Array>
                        <mxPoint x="2077" y="730.0000000000002" as="sourcePoint"/>
                        <mxPoint x="2080" y="810" as="targetPoint"/>
                        <mxPoint as="offset"/>
                    </mxGeometry>
                </mxCell>
                <mxCell id="6cMvZ2hwRAPNSA1tBTO--52" value="SEMPER-Policies" style="sketch=0;points=[[0,0,0],[0.25,0,0],[0.5,0,0],[0.75,0,0],[1,0,0],[0,1,0],[0.25,1,0],[0.5,1,0],[0.75,1,0],[1,1,0],[0,0.25,0],[0,0.5,0],[0,0.75,0],[1,0.25,0],[1,0.5,0],[1,0.75,0]];outlineConnect=0;fontColor=#232F3E;fillColor=#7AA116;strokeColor=#ffffff;dashed=0;verticalLabelPosition=bottom;verticalAlign=top;align=center;html=1;fontSize=12;fontStyle=0;aspect=fixed;shape=mxgraph.aws4.resourceIcon;resIcon=mxgraph.aws4.s3;flipV=0;flipH=0;container=0;" parent="1" vertex="1">
                    <mxGeometry x="1497.83" y="960" width="70" height="70" as="geometry"/>
                </mxCell>
                <mxCell id="6cMvZ2hwRAPNSA1tBTO--29" value="(3)" style="edgeStyle=orthogonalEdgeStyle;rounded=0;orthogonalLoop=1;jettySize=auto;html=1;entryX=0;entryY=0.5;entryDx=0;entryDy=0;fillColor=#60a917;strokeColor=#2D7600;" parent="1" source="6cMvZ2hwRAPNSA1tBTO--16" target="6cMvZ2hwRAPNSA1tBTO--19" edge="1">
                    <mxGeometry relative="1" as="geometry">
                        <Array as="points">
                            <mxPoint x="2580" y="741.5"/>
                            <mxPoint x="2580" y="996.5"/>
                        </Array>
                    </mxGeometry>
                </mxCell>
                <mxCell id="W5PPzOMBdSXC3b5csPom-2" value="(2) \30_instructions" style="edgeStyle=orthogonalEdgeStyle;rounded=0;orthogonalLoop=1;jettySize=auto;html=1;fillColor=#60a917;strokeColor=#2D7600;" parent="1" source="6cMvZ2hwRAPNSA1tBTO--16" target="6cMvZ2hwRAPNSA1tBTO--12" edge="1">
                    <mxGeometry relative="1" as="geometry">
                        <mxPoint x="2875" y="976.5" as="sourcePoint"/>
                        <mxPoint x="2825" y="816.5" as="targetPoint"/>
                        <Array as="points">
                            <mxPoint x="2460" y="600"/>
                            <mxPoint x="2885" y="600"/>
                        </Array>
                    </mxGeometry>
                </mxCell>
                <mxCell id="W5PPzOMBdSXC3b5csPom-3" value="Lambda Invoker" style="sketch=0;outlineConnect=0;fontColor=#232F3E;gradientColor=none;fillColor=#DD344C;strokeColor=none;dashed=0;verticalLabelPosition=bottom;verticalAlign=top;align=center;html=1;fontSize=12;fontStyle=0;aspect=fixed;pointerEvents=1;shape=mxgraph.aws4.role;flipV=0;flipH=0;container=0;" parent="1" vertex="1">
                    <mxGeometry x="2240" y="701.5" width="78" height="44" as="geometry"/>
                </mxCell>
                <mxCell id="jtLlMTJgqhqr8NrwFMSb-2" value="&lt;span&gt;Nuvibit SEMPER Backend&lt;br&gt;&lt;/span&gt;" style="points=[[0,0],[0.25,0],[0.5,0],[0.75,0],[1,0],[1,0.25],[1,0.5],[1,0.75],[1,1],[0.75,1],[0.5,1],[0.25,1],[0,1],[0,0.75],[0,0.5],[0,0.25]];outlineConnect=0;html=1;whiteSpace=wrap;fontSize=12;fontStyle=0;shape=mxgraph.aws4.group;grIcon=mxgraph.aws4.group_aws_cloud_alt;verticalAlign=top;align=left;spacingLeft=30;dashed=0;fillColor=#dae8fc;strokeColor=#6c8ebf;opacity=60;flipV=0;flipH=0;container=0;" parent="1" vertex="1">
                    <mxGeometry x="2160" y="1160" width="960" height="200" as="geometry"/>
                </mxCell>
                <mxCell id="jtLlMTJgqhqr8NrwFMSb-1" value="policy-validation" style="sketch=0;points=[[0,0,0],[0.25,0,0],[0.5,0,0],[0.75,0,0],[1,0,0],[0,1,0],[0.25,1,0],[0.5,1,0],[0.75,1,0],[1,1,0],[0,0.25,0],[0,0.5,0],[0,0.75,0],[1,0.25,0],[1,0.5,0],[1,0.75,0]];outlineConnect=0;fontColor=#232F3E;fillColor=#ED7100;strokeColor=#ffffff;dashed=0;verticalLabelPosition=bottom;verticalAlign=top;align=center;html=1;fontSize=12;fontStyle=0;aspect=fixed;shape=mxgraph.aws4.resourceIcon;resIcon=mxgraph.aws4.lambda;flipV=0;flipH=0;container=0;" parent="1" vertex="1">
                    <mxGeometry x="2500" y="1240" width="70" height="70" as="geometry"/>
                </mxCell>
                <mxCell id="jtLlMTJgqhqr8NrwFMSb-3" value="Lambda Invoker" style="sketch=0;outlineConnect=0;fontColor=#232F3E;gradientColor=none;fillColor=#DD344C;strokeColor=none;dashed=0;verticalLabelPosition=bottom;verticalAlign=top;align=center;html=1;fontSize=12;fontStyle=0;aspect=fixed;pointerEvents=1;shape=mxgraph.aws4.role;flipV=0;flipH=0;container=0;" parent="1" vertex="1">
                    <mxGeometry x="2392" y="1174.5" width="78" height="44" as="geometry"/>
                </mxCell>
                <mxCell id="jtLlMTJgqhqr8NrwFMSb-4" value="(4)" style="edgeStyle=orthogonalEdgeStyle;rounded=0;orthogonalLoop=1;jettySize=auto;html=1;fillColor=#60a917;strokeColor=#2D7600;" parent="1" source="6cMvZ2hwRAPNSA1tBTO--16" target="jtLlMTJgqhqr8NrwFMSb-1" edge="1">
                    <mxGeometry relative="1" as="geometry">
                        <Array as="points">
                            <mxPoint x="2560" y="750"/>
                        </Array>
                    </mxGeometry>
                </mxCell>
                <mxCell id="jtLlMTJgqhqr8NrwFMSb-25" value="Amazon Lex" style="sketch=0;points=[[0,0,0],[0.25,0,0],[0.5,0,0],[0.75,0,0],[1,0,0],[0,1,0],[0.25,1,0],[0.5,1,0],[0.75,1,0],[1,1,0],[0,0.25,0],[0,0.5,0],[0,0.75,0],[1,0.25,0],[1,0.5,0],[1,0.75,0]];outlineConnect=0;fontColor=#232F3E;fillColor=#01A88D;strokeColor=#ffffff;dashed=0;verticalLabelPosition=bottom;verticalAlign=top;align=center;html=1;fontSize=12;fontStyle=0;aspect=fixed;shape=mxgraph.aws4.resourceIcon;resIcon=mxgraph.aws4.lex;flipV=0;flipH=0;container=0;" parent="1" vertex="1">
                    <mxGeometry x="1637.83" y="680" width="70" height="70" as="geometry"/>
                </mxCell>
                <mxCell id="jtLlMTJgqhqr8NrwFMSb-31" style="edgeStyle=orthogonalEdgeStyle;rounded=0;orthogonalLoop=1;jettySize=auto;html=1;fillColor=#60a917;strokeColor=#2D7600;" parent="1" edge="1">
                    <mxGeometry relative="1" as="geometry">
                        <Array as="points">
                            <mxPoint x="1580" y="700"/>
                            <mxPoint x="1580" y="700"/>
                        </Array>
                        <mxPoint x="1387.83" y="700" as="sourcePoint"/>
                        <mxPoint x="1640" y="700" as="targetPoint"/>
                    </mxGeometry>
                </mxCell>
                <mxCell id="jtLlMTJgqhqr8NrwFMSb-32" style="edgeStyle=orthogonalEdgeStyle;rounded=0;orthogonalLoop=1;jettySize=auto;html=1;entryX=1;entryY=0.75;entryDx=0;entryDy=0;fillColor=#60a917;strokeColor=#2D7600;" parent="1" edge="1">
                    <mxGeometry relative="1" as="geometry">
                        <Array as="points">
                            <mxPoint x="1638" y="733"/>
                        </Array>
                        <mxPoint x="1638" y="740" as="sourcePoint"/>
                        <mxPoint x="1387.83" y="732.8775" as="targetPoint"/>
                    </mxGeometry>
                </mxCell>
                <mxCell id="jtLlMTJgqhqr8NrwFMSb-37" value="Customer" style="points=[[0,0],[0.25,0],[0.5,0],[0.75,0],[1,0],[1,0.25],[1,0.5],[1,0.75],[1,1],[0.75,1],[0.5,1],[0.25,1],[0,1],[0,0.75],[0,0.5],[0,0.25]];outlineConnect=0;gradientColor=none;html=1;whiteSpace=wrap;fontSize=12;fontStyle=0;container=1;pointerEvents=0;collapsible=0;recursiveResize=0;shape=mxgraph.aws4.group;grIcon=mxgraph.aws4.group_corporate_data_center;strokeColor=#7D8998;fillColor=none;verticalAlign=top;align=left;spacingLeft=30;fontColor=#5A6C86;dashed=0;" parent="1" vertex="1">
                    <mxGeometry x="1120" y="420" width="960" height="980" as="geometry"/>
                </mxCell>
                <mxCell id="jtLlMTJgqhqr8NrwFMSb-45" value="" style="shape=image;imageAspect=0;aspect=fixed;verticalLabelPosition=bottom;verticalAlign=top;image=https://assets-global.website-files.com/621c8d7ad9e04933c4e51ffb/624fd2870c9d7634deb2576c_The%20Slack%20logo.svg;clipPath=inset(22.48% 19.67% 21.81% 18%);flipV=0;flipH=0;container=0;" parent="1" vertex="1">
                    <mxGeometry x="1220" y="677.01" width="167.83" height="74.49" as="geometry"/>
                </mxCell>
                <mxCell id="jtLlMTJgqhqr8NrwFMSb-46" value="Customer" style="sketch=0;aspect=fixed;html=1;points=[];align=center;image;fontSize=12;image=img/lib/mscae/Person.svg;fillColor=#FFD045;" parent="1" vertex="1">
                    <mxGeometry x="1160" y="855.94" width="80" height="108.11" as="geometry"/>
                </mxCell>
                <mxCell id="jtLlMTJgqhqr8NrwFMSb-47" value="&lt;span style=&quot;&quot;&gt;SEMPER&amp;nbsp;&lt;/span&gt;&lt;span style=&quot;&quot;&gt;Policies&lt;/span&gt;" style="dashed=0;outlineConnect=0;html=1;align=center;labelPosition=center;verticalLabelPosition=bottom;verticalAlign=top;shape=mxgraph.weblogos.json_2;fontStyle=0;fontColor=#000000;" parent="1" vertex="1">
                    <mxGeometry x="1307.43" y="930" width="80.4" height="25.200000000000003" as="geometry"/>
                </mxCell>
                <mxCell id="jtLlMTJgqhqr8NrwFMSb-48" style="edgeStyle=orthogonalEdgeStyle;rounded=0;orthogonalLoop=1;jettySize=auto;html=1;fillColor=#60a917;strokeColor=#2D7600;" parent="1" source="jtLlMTJgqhqr8NrwFMSb-46" target="jtLlMTJgqhqr8NrwFMSb-45" edge="1">
                    <mxGeometry relative="1" as="geometry">
                        <Array as="points">
                            <mxPoint x="1200" y="710"/>
                        </Array>
                        <mxPoint x="1398" y="710" as="sourcePoint"/>
                        <mxPoint x="1650" y="710" as="targetPoint"/>
                    </mxGeometry>
                </mxCell>
                <mxCell id="jtLlMTJgqhqr8NrwFMSb-49" style="edgeStyle=orthogonalEdgeStyle;rounded=0;orthogonalLoop=1;jettySize=auto;html=1;fillColor=#60a917;strokeColor=#2D7600;" parent="1" source="jtLlMTJgqhqr8NrwFMSb-45" target="jtLlMTJgqhqr8NrwFMSb-46" edge="1">
                    <mxGeometry relative="1" as="geometry">
                        <Array as="points">
                            <mxPoint x="1230" y="800"/>
                            <mxPoint x="1230" y="800"/>
                        </Array>
                        <mxPoint x="1648" y="750" as="sourcePoint"/>
                        <mxPoint x="1398" y="743" as="targetPoint"/>
                    </mxGeometry>
                </mxCell>
                <mxCell id="jtLlMTJgqhqr8NrwFMSb-50" value="Git Flow" style="edgeStyle=orthogonalEdgeStyle;rounded=0;orthogonalLoop=1;jettySize=auto;html=1;fillColor=#60a917;strokeColor=#2D7600;" parent="1" source="jtLlMTJgqhqr8NrwFMSb-46" edge="1">
                    <mxGeometry relative="1" as="geometry">
                        <Array as="points">
                            <mxPoint x="1240" y="995"/>
                        </Array>
                        <mxPoint x="1240" y="762" as="sourcePoint"/>
                        <mxPoint x="1498" y="995" as="targetPoint"/>
                    </mxGeometry>
                </mxCell>
                <mxCell id="b62pHRGO3tKcMVhjvDDH-1" value="SEMPER Development" style="sketch=0;aspect=fixed;html=1;points=[];align=center;image;fontSize=12;image=img/lib/mscae/Person.svg;fillColor=#FFD045;" parent="1" vertex="1">
                    <mxGeometry x="3240" y="853.3900000000001" width="80" height="108.11" as="geometry"/>
                </mxCell>
                <mxCell id="b62pHRGO3tKcMVhjvDDH-2" value="update documentation at &lt;br&gt;\10_input&amp;nbsp;&lt;br&gt;\30_instructions" style="edgeStyle=orthogonalEdgeStyle;rounded=0;orthogonalLoop=1;jettySize=auto;html=1;fillColor=#1ba1e2;strokeColor=#006EAF;" parent="1" source="b62pHRGO3tKcMVhjvDDH-1" target="6cMvZ2hwRAPNSA1tBTO--12" edge="1">
                    <mxGeometry x="-0.4595" y="-20" relative="1" as="geometry">
                        <Array as="points">
                            <mxPoint x="3070" y="940"/>
                            <mxPoint x="3070" y="890"/>
                        </Array>
                        <mxPoint x="3050" y="726" as="sourcePoint"/>
                        <mxPoint x="2930" y="886" as="targetPoint"/>
                        <mxPoint as="offset"/>
                    </mxGeometry>
                </mxCell>
                <mxCell id="ZwfjskNNVrwdCnqv__4B-1" value="trigger vector creation" style="edgeStyle=orthogonalEdgeStyle;rounded=0;orthogonalLoop=1;jettySize=auto;html=1;fillColor=#1ba1e2;strokeColor=#006EAF;" parent="1" source="b62pHRGO3tKcMVhjvDDH-1" target="ZwfjskNNVrwdCnqv__4B-2" edge="1">
                    <mxGeometry x="0.0314" y="-10" relative="1" as="geometry">
                        <Array as="points">
                            <mxPoint x="3280" y="730"/>
                        </Array>
                        <mxPoint x="3250" y="950" as="sourcePoint"/>
                        <mxPoint x="2930" y="900" as="targetPoint"/>
                        <mxPoint as="offset"/>
                    </mxGeometry>
                </mxCell>
                <mxCell id="ZwfjskNNVrwdCnqv__4B-2" value="prepare-milvus-vectors" style="points=[[0,0],[0.25,0],[0.5,0],[0.75,0],[1,0],[1,0.25],[1,0.5],[1,0.75],[1,1],[0.75,1],[0.5,1],[0.25,1],[0,1],[0,0.75],[0,0.5],[0,0.25]];outlineConnect=0;gradientColor=none;html=1;whiteSpace=wrap;fontSize=12;fontStyle=0;container=1;pointerEvents=0;collapsible=0;recursiveResize=0;shape=mxgraph.aws4.group;grIcon=mxgraph.aws4.group_aws_step_functions_workflow;strokeColor=#CD2264;fillColor=none;verticalAlign=top;align=left;spacingLeft=30;fontColor=#CD2264;dashed=0;" parent="1" vertex="1">
                    <mxGeometry x="2710" y="630" width="360" height="150" as="geometry"/>
                </mxCell>
                <mxCell id="Q8xseIHgYDdqp9szZhGN-1" value="Conversation ID" style="sketch=0;points=[[0,0,0],[0.25,0,0],[0.5,0,0],[0.75,0,0],[1,0,0],[0,1,0],[0.25,1,0],[0.5,1,0],[0.75,1,0],[1,1,0],[0,0.25,0],[0,0.5,0],[0,0.75,0],[1,0.25,0],[1,0.5,0],[1,0.75,0]];outlineConnect=0;fontColor=#232F3E;fillColor=#C925D1;strokeColor=#ffffff;dashed=0;verticalLabelPosition=bottom;verticalAlign=top;align=center;html=1;fontSize=12;fontStyle=0;aspect=fixed;shape=mxgraph.aws4.resourceIcon;resIcon=mxgraph.aws4.dynamodb;" parent="1" vertex="1">
                    <mxGeometry x="1720" y="785.94" width="70" height="70" as="geometry"/>
                </mxCell>
                <mxCell id="Q8xseIHgYDdqp9szZhGN-2" value="User enters new_conversation_key-word &quot;Hi&quot;&lt;br&gt;Chatbot Client will create and locally persist a new conversation_id&lt;br&gt;Each client query to the backend should contain the latest conversation_id&lt;br&gt;&lt;br&gt;Use-Case: Start New Conversation&lt;br&gt;Use-Case: Proceed with latest Conversation" style="text;html=1;strokeColor=none;fillColor=none;align=left;verticalAlign=top;whiteSpace=wrap;rounded=0;" parent="1" vertex="1">
                    <mxGeometry x="1200" y="260" width="400" height="110" as="geometry"/>
                </mxCell>
                <mxCell id="Q8xseIHgYDdqp9szZhGN-3" value="Conversation History Registry&lt;br&gt;- Conversation ID&lt;br&gt;" style="sketch=0;points=[[0,0,0],[0.25,0,0],[0.5,0,0],[0.75,0,0],[1,0,0],[0,1,0],[0.25,1,0],[0.5,1,0],[0.75,1,0],[1,1,0],[0,0.25,0],[0,0.5,0],[0,0.75,0],[1,0.25,0],[1,0.5,0],[1,0.75,0]];outlineConnect=0;fontColor=#232F3E;fillColor=#C925D1;strokeColor=#ffffff;dashed=0;verticalLabelPosition=bottom;verticalAlign=top;align=center;html=1;fontSize=12;fontStyle=0;aspect=fixed;shape=mxgraph.aws4.resourceIcon;resIcon=mxgraph.aws4.dynamodb;" parent="1" vertex="1">
                    <mxGeometry x="2290" y="894.0500000000001" width="70" height="70" as="geometry"/>
                </mxCell>
                <mxCell id="Q8xseIHgYDdqp9szZhGN-4" value="User enters new_conversation_key-word &quot;Hi&quot;&lt;br&gt;Chatbot Client will create and locally persist a new conversation_id&lt;br&gt;Each client query to the backend should contain the latest conversation_id&lt;br&gt;&lt;br&gt;Use-Case: New Conversation&lt;br&gt;Use-Case: Proceed with any Conversation" style="text;html=1;strokeColor=none;fillColor=none;align=left;verticalAlign=top;whiteSpace=wrap;rounded=0;" parent="1" vertex="1">
                    <mxGeometry x="2170" y="250" width="400" height="110" as="geometry"/>
                </mxCell>
            </root>
        </mxGraphModel>
    </diagram>
</mxfile>